<svg width="40" height="40" viewBox="0 0 40 40" fill="none" xmlns="http://www.w3.org/2000/svg">
<rect x="0.5" y="0.5" width="39" height="39" rx="19.5" stroke="#494949"/>
<path d="M28.125 19.9991C28.1224 21.9849 27.3938 23.9012 26.0764 25.3871C24.7591 26.873 22.9438 27.8258 20.9726 28.0663C20.9287 28.0712 20.8843 28.0668 20.8422 28.0534C20.8001 28.0399 20.7614 28.0177 20.7286 27.9881C20.6957 27.9586 20.6695 27.9225 20.6516 27.8821C20.6338 27.8417 20.6247 27.7979 20.625 27.7538V21.8741H22.5C22.5856 21.8743 22.6704 21.8568 22.7491 21.8229C22.8278 21.7889 22.8986 21.7391 22.9572 21.6766C23.0158 21.6141 23.061 21.5402 23.0898 21.4596C23.1187 21.3789 23.1306 21.2931 23.125 21.2077C23.1112 21.0469 23.037 20.8974 22.9174 20.7891C22.7979 20.6809 22.6417 20.6219 22.4804 20.6241H20.625V18.7491C20.625 18.4175 20.7567 18.0996 20.9911 17.8652C21.2255 17.6308 21.5434 17.4991 21.875 17.4991H23.125C23.2106 17.4993 23.2954 17.4818 23.3741 17.4479C23.4528 17.4139 23.5236 17.3641 23.5822 17.3016C23.6408 17.2391 23.686 17.1652 23.7148 17.0846C23.7437 17.0039 23.7556 16.9182 23.75 16.8327C23.7361 16.6717 23.6618 16.5219 23.5419 16.4136C23.422 16.3053 23.2654 16.2465 23.1039 16.2491H21.875C21.2119 16.2491 20.576 16.5125 20.1072 16.9813C19.6384 17.4501 19.375 18.086 19.375 18.7491V20.6241H17.5C17.4143 20.6239 17.3295 20.6413 17.2508 20.6753C17.1722 20.7092 17.1013 20.759 17.0427 20.8215C16.9841 20.884 16.939 20.9579 16.9101 21.0386C16.8812 21.1192 16.8693 21.205 16.875 21.2905C16.8888 21.4515 16.9632 21.6012 17.0831 21.7095C17.203 21.8178 17.3595 21.8766 17.5211 21.8741H19.375V27.7553C19.3752 27.7994 19.3662 27.8431 19.3484 27.8834C19.3305 27.9238 19.3044 27.9599 19.2716 27.9894C19.2389 28.0189 19.2002 28.0412 19.1583 28.0547C19.1163 28.0682 19.0719 28.0727 19.0281 28.0678C17.0041 27.8213 15.1465 26.824 13.8228 25.2732C12.4992 23.7224 11.806 21.7311 11.8804 19.6936C12.0367 15.4748 15.4539 12.0452 19.6757 11.8811C20.7688 11.8388 21.8591 12.0173 22.8816 12.4061C23.904 12.7948 24.8376 13.3858 25.6263 14.1437C26.4151 14.9015 27.0429 15.8107 27.4723 16.8168C27.9016 17.8229 28.1236 18.9052 28.125 19.9991Z" fill="white"/>
</svg>
