<svg width="41" height="28" viewBox="0 0 41 28" fill="none" xmlns="http://www.w3.org/2000/svg">
<mask id="path-1-outside-1_1000_18152" maskUnits="userSpaceOnUse" x="-1" y="-1" width="43" height="30" fill="black">
<rect fill="white" x="-1" y="-1" width="43" height="30"/>
<path d="M0.548 13.896C0.548 5.724 4.94 0.179998 11.672 0.179998C18.404 0.179998 22.832 5.724 22.832 13.896C22.832 22.032 18.656 27.468 11.672 27.468C4.688 27.468 0.548 22.032 0.548 13.896ZM5.084 13.896C5.084 19.98 7.532 23.4 11.672 23.4C15.848 23.4 18.296 19.98 18.296 13.896C18.296 7.668 15.848 4.248 11.672 4.248C7.532 4.248 5.084 7.668 5.084 13.896ZM35.6868 4.824H29.9268V0.684H40.1148V27H35.6868V4.824Z"/>
</mask>
<path d="M1.548 13.896C1.548 9.98053 2.60036 6.79035 4.36423 4.60085C6.11245 2.43079 8.60627 1.18 11.672 1.18V-0.820003C8.00573 -0.820003 4.93755 0.701208 2.80677 3.34614C0.691638 5.97165 -0.452 9.63947 -0.452 13.896H1.548ZM11.672 1.18C14.7383 1.18 17.2418 2.4313 18.9992 4.60261C20.7716 6.79258 21.832 9.98241 21.832 13.896H23.832C23.832 9.63759 22.6784 5.96942 20.5538 3.34438C18.4142 0.700691 15.3377 -0.820003 11.672 -0.820003V1.18ZM21.832 13.896C21.832 17.804 20.8285 20.9537 19.0927 23.1051C17.3765 25.2323 14.8795 26.468 11.672 26.468V28.468C15.4485 28.468 18.5315 26.9857 20.6493 24.3609C22.7475 21.7603 23.832 18.124 23.832 13.896H21.832ZM11.672 26.468C8.46502 26.468 5.97785 25.2327 4.27072 23.1069C2.54349 20.956 1.548 17.8059 1.548 13.896H-0.452C-0.452 18.1221 0.622514 21.758 2.71129 24.3591C4.82015 26.9853 7.89498 28.468 11.672 28.468V26.468ZM4.084 13.896C4.084 17.0512 4.71554 19.6569 6.00595 21.5025C7.32854 23.3942 9.2861 24.4 11.672 24.4V22.4C9.9179 22.4 8.58146 21.6958 7.64505 20.3565C6.67646 18.9711 6.084 16.8248 6.084 13.896H4.084ZM11.672 24.4C14.0728 24.4 16.0399 23.3967 17.3685 21.504C18.6645 19.6577 19.296 17.051 19.296 13.896H17.296C17.296 16.825 16.7035 18.9703 15.7315 20.355C14.7921 21.6933 13.4472 22.4 11.672 22.4V24.4ZM19.296 13.896C19.296 10.6731 18.6661 8.03113 17.3715 6.16623C16.0429 4.2525 14.074 3.248 11.672 3.248V5.248C13.446 5.248 14.7891 5.9535 15.7285 7.30677C16.7019 8.70887 17.296 10.8909 17.296 13.896H19.296ZM11.672 3.248C9.2849 3.248 7.32553 4.25507 6.00298 6.16776C4.71397 8.03195 4.084 10.6729 4.084 13.896H6.084C6.084 10.8911 6.67803 8.70805 7.64802 7.30524C8.58447 5.95093 9.9191 5.248 11.672 5.248V3.248ZM35.6868 4.824H36.6868V3.824H35.6868V4.824ZM29.9268 4.824H28.9268V5.824H29.9268V4.824ZM29.9268 0.684V-0.316H28.9268V0.684H29.9268ZM40.1148 0.684H41.1148V-0.316H40.1148V0.684ZM40.1148 27V28H41.1148V27H40.1148ZM35.6868 27H34.6868V28H35.6868V27ZM35.6868 3.824H29.9268V5.824H35.6868V3.824ZM30.9268 4.824V0.684H28.9268V4.824H30.9268ZM29.9268 1.684H40.1148V-0.316H29.9268V1.684ZM39.1148 0.684V27H41.1148V0.684H39.1148ZM40.1148 26H35.6868V28H40.1148V26ZM36.6868 27V4.824H34.6868V27H36.6868Z" fill="#F7931A" mask="url(#path-1-outside-1_1000_18152)"/>
</svg>
