<svg width="49" height="28" viewBox="0 0 49 28" fill="none" xmlns="http://www.w3.org/2000/svg">
<mask id="path-1-outside-1_970_15823" maskUnits="userSpaceOnUse" x="-1" y="-1" width="51" height="30" fill="black">
<rect fill="white" x="-1" y="-1" width="51" height="30"/>
<path d="M0.548 13.896C0.548 5.724 4.94 0.179998 11.672 0.179998C18.404 0.179998 22.832 5.724 22.832 13.896C22.832 22.032 18.656 27.468 11.672 27.468C4.688 27.468 0.548 22.032 0.548 13.896ZM5.084 13.896C5.084 19.98 7.532 23.4 11.672 23.4C15.848 23.4 18.296 19.98 18.296 13.896C18.296 7.668 15.848 4.248 11.672 4.248C7.532 4.248 5.084 7.668 5.084 13.896ZM48.6108 26.964L30.3588 27V23.544L38.9628 16.272C42.5268 13.248 43.7148 11.52 43.7148 9C43.7148 6.012 42.0948 4.32 39.3228 4.32C36.4428 4.32 34.6428 6.336 34.6068 9.72H30.0348C30.0708 3.96 33.7428 0.215999 39.3228 0.215999C44.9388 0.215999 48.4308 3.42 48.4308 8.748C48.4308 12.42 46.4148 15.192 42.4188 18.612L37.6668 22.68H48.6108V26.964Z"/>
</mask>
<path d="M1.548 13.896C1.548 9.98053 2.60036 6.79035 4.36423 4.60085C6.11245 2.43079 8.60627 1.18 11.672 1.18V-0.820003C8.00573 -0.820003 4.93755 0.701208 2.80677 3.34614C0.691638 5.97165 -0.452 9.63947 -0.452 13.896H1.548ZM11.672 1.18C14.7383 1.18 17.2418 2.4313 18.9992 4.60261C20.7716 6.79258 21.832 9.98241 21.832 13.896H23.832C23.832 9.63759 22.6784 5.96942 20.5538 3.34438C18.4142 0.700691 15.3377 -0.820003 11.672 -0.820003V1.18ZM21.832 13.896C21.832 17.804 20.8285 20.9537 19.0927 23.1051C17.3765 25.2323 14.8795 26.468 11.672 26.468V28.468C15.4485 28.468 18.5315 26.9857 20.6493 24.3609C22.7475 21.7603 23.832 18.124 23.832 13.896H21.832ZM11.672 26.468C8.46502 26.468 5.97785 25.2327 4.27072 23.1069C2.54349 20.956 1.548 17.8059 1.548 13.896H-0.452C-0.452 18.1221 0.622514 21.758 2.71129 24.3591C4.82015 26.9853 7.89498 28.468 11.672 28.468V26.468ZM4.084 13.896C4.084 17.0512 4.71554 19.6569 6.00595 21.5025C7.32854 23.3942 9.2861 24.4 11.672 24.4V22.4C9.9179 22.4 8.58146 21.6958 7.64505 20.3565C6.67646 18.9711 6.084 16.8248 6.084 13.896H4.084ZM11.672 24.4C14.0728 24.4 16.0399 23.3967 17.3685 21.504C18.6645 19.6577 19.296 17.051 19.296 13.896H17.296C17.296 16.825 16.7035 18.9703 15.7315 20.355C14.7921 21.6933 13.4472 22.4 11.672 22.4V24.4ZM19.296 13.896C19.296 10.6731 18.6661 8.03113 17.3715 6.16623C16.0429 4.2525 14.074 3.248 11.672 3.248V5.248C13.446 5.248 14.7891 5.9535 15.7285 7.30677C16.7019 8.70887 17.296 10.8909 17.296 13.896H19.296ZM11.672 3.248C9.2849 3.248 7.32553 4.25507 6.00298 6.16776C4.71397 8.03195 4.084 10.6729 4.084 13.896H6.084C6.084 10.8911 6.67803 8.70805 7.64802 7.30524C8.58447 5.95093 9.9191 5.248 11.672 5.248V3.248ZM48.6108 26.964L48.6128 27.964L49.6108 27.962V26.964H48.6108ZM30.3588 27H29.3588V28.002L30.3608 28L30.3588 27ZM30.3588 23.544L29.7133 22.7803L29.3588 23.0799V23.544H30.3588ZM38.9628 16.272L39.6083 17.0358L39.6098 17.0345L38.9628 16.272ZM34.6068 9.72V10.72H35.5962L35.6068 9.73064L34.6068 9.72ZM30.0348 9.72L29.0348 9.71375L29.0285 10.72H30.0348V9.72ZM42.4188 18.612L41.7686 17.8523L41.7685 17.8523L42.4188 18.612ZM37.6668 22.68L37.0165 21.9203L34.961 23.68H37.6668V22.68ZM48.6108 22.68H49.6108V21.68H48.6108V22.68ZM48.6088 25.964L30.3568 26L30.3608 28L48.6128 27.964L48.6088 25.964ZM31.3588 27V23.544H29.3588V27H31.3588ZM31.0043 24.3078L39.6083 17.0357L38.3173 15.5082L29.7133 22.7803L31.0043 24.3078ZM39.6098 17.0345C41.4054 15.5109 42.6852 14.2474 43.5099 12.9978C44.363 11.7053 44.7148 10.4509 44.7148 9H42.7148C42.7148 10.0691 42.4726 10.9387 41.8407 11.8962C41.1804 12.8966 40.0842 14.0091 38.3158 15.5095L39.6098 17.0345ZM44.7148 9C44.7148 7.33179 44.2609 5.88685 43.2857 4.85324C42.3028 3.81152 40.9155 3.32 39.3228 3.32V5.32C40.5021 5.32 41.3108 5.67447 41.831 6.22576C42.3587 6.78514 42.7148 7.68021 42.7148 9H44.7148ZM39.3228 3.32C37.6348 3.32 36.1762 3.91975 35.1471 5.09095C34.1327 6.24547 33.6266 7.85047 33.6069 9.70936L35.6068 9.73064C35.623 8.20553 36.0349 7.11053 36.6495 6.41105C37.2495 5.72825 38.1308 5.32 39.3228 5.32V3.32ZM34.6068 8.72H30.0348V10.72H34.6068V8.72ZM31.0348 9.72625C31.0515 7.05966 31.9056 4.94761 33.3146 3.50729C34.7211 2.06961 36.7631 1.216 39.3228 1.216V-0.784C36.3025 -0.784 33.7186 0.234387 31.885 2.10871C30.054 3.98039 29.0542 6.62034 29.0348 9.71375L31.0348 9.72625ZM39.3228 1.216C41.9447 1.216 43.955 1.96185 45.3012 3.21575C46.6386 4.46138 47.4308 6.31045 47.4308 8.748H49.4308C49.4308 5.85755 48.4771 3.44062 46.6644 1.75225C44.8606 0.0721502 42.3169 -0.784 39.3228 -0.784V1.216ZM47.4308 8.748C47.4308 11.9597 45.7141 14.4755 41.7686 17.8523L43.069 19.3717C47.1156 15.9085 49.4308 12.8803 49.4308 8.748H47.4308ZM41.7685 17.8523L37.0165 21.9203L38.3171 23.4397L43.0691 19.3717L41.7685 17.8523ZM37.6668 23.68H48.6108V21.68H37.6668V23.68ZM47.6108 22.68V26.964H49.6108V22.68H47.6108Z" fill="#F7931A" mask="url(#path-1-outside-1_970_15823)"/>
</svg>
