<svg width="48" height="28" viewBox="0 0 48 28" fill="none" xmlns="http://www.w3.org/2000/svg">
<mask id="path-1-outside-1_988_17384" maskUnits="userSpaceOnUse" x="-1" y="-1" width="51" height="30" fill="black">
<rect fill="white" x="-1" y="-1" width="51" height="30"/>
<path d="M0.548 13.896C0.548 5.724 4.94 0.179998 11.672 0.179998C18.404 0.179998 22.832 5.724 22.832 13.896C22.832 22.032 18.656 27.468 11.672 27.468C4.688 27.468 0.548 22.032 0.548 13.896ZM5.084 13.896C5.084 19.98 7.532 23.4 11.672 23.4C15.848 23.4 18.296 19.98 18.296 13.896C18.296 7.668 15.848 4.248 11.672 4.248C7.532 4.248 5.084 7.668 5.084 13.896ZM37.9213 13.968H34.7173V10.98L41.4853 4.752H30.5413V0.684H47.2453V4.356L40.8373 10.26C44.8693 11.052 48.0013 14.004 48.0013 18.648C48.0013 24.048 43.7893 27.468 38.4613 27.468C33.3133 27.468 29.3173 24.3 29.3173 18.612H33.8533C33.8533 21.636 35.7253 23.364 38.5333 23.364C41.4133 23.364 43.3213 21.492 43.3213 18.576C43.3213 15.912 41.5933 13.968 37.9213 13.968Z"/>
</mask>
<path d="M1.548 13.896C1.548 9.98053 2.60036 6.79035 4.36423 4.60085C6.11245 2.43079 8.60627 1.18 11.672 1.18V-0.820003C8.00573 -0.820003 4.93755 0.701208 2.80677 3.34614C0.691638 5.97165 -0.452 9.63947 -0.452 13.896H1.548ZM11.672 1.18C14.7383 1.18 17.2418 2.4313 18.9992 4.60261C20.7716 6.79258 21.832 9.98241 21.832 13.896H23.832C23.832 9.63759 22.6784 5.96942 20.5538 3.34438C18.4142 0.700691 15.3377 -0.820003 11.672 -0.820003V1.18ZM21.832 13.896C21.832 17.804 20.8285 20.9537 19.0927 23.1051C17.3765 25.2323 14.8795 26.468 11.672 26.468V28.468C15.4485 28.468 18.5315 26.9857 20.6493 24.3609C22.7475 21.7603 23.832 18.124 23.832 13.896H21.832ZM11.672 26.468C8.46502 26.468 5.97785 25.2327 4.27072 23.1069C2.54349 20.956 1.548 17.8059 1.548 13.896H-0.452C-0.452 18.1221 0.622514 21.758 2.71129 24.3591C4.82015 26.9853 7.89498 28.468 11.672 28.468V26.468ZM4.084 13.896C4.084 17.0512 4.71554 19.6569 6.00595 21.5025C7.32854 23.3942 9.2861 24.4 11.672 24.4V22.4C9.9179 22.4 8.58146 21.6958 7.64505 20.3565C6.67646 18.9711 6.084 16.8248 6.084 13.896H4.084ZM11.672 24.4C14.0728 24.4 16.0399 23.3967 17.3685 21.504C18.6645 19.6577 19.296 17.051 19.296 13.896H17.296C17.296 16.825 16.7035 18.9703 15.7315 20.355C14.7921 21.6933 13.4472 22.4 11.672 22.4V24.4ZM19.296 13.896C19.296 10.6731 18.6661 8.03113 17.3715 6.16623C16.0429 4.2525 14.074 3.248 11.672 3.248V5.248C13.446 5.248 14.7891 5.9535 15.7285 7.30677C16.7019 8.70887 17.296 10.8909 17.296 13.896H19.296ZM11.672 3.248C9.2849 3.248 7.32553 4.25507 6.00298 6.16776C4.71397 8.03195 4.084 10.6729 4.084 13.896H6.084C6.084 10.8911 6.67803 8.70805 7.64802 7.30524C8.58447 5.95093 9.9191 5.248 11.672 5.248V3.248ZM34.7173 13.968H33.7173V14.968H34.7173V13.968ZM34.7173 10.98L34.0402 10.2441L33.7173 10.5412V10.98H34.7173ZM41.4853 4.752L42.1625 5.48785L44.0488 3.752H41.4853V4.752ZM30.5413 4.752H29.5413V5.752H30.5413V4.752ZM30.5413 0.684V-0.316H29.5413V0.684H30.5413ZM47.2453 0.684H48.2453V-0.316H47.2453V0.684ZM47.2453 4.356L47.9229 5.09144L48.2453 4.79439V4.356H47.2453ZM40.8373 10.26L40.1598 9.52456L38.7091 10.8611L40.6446 11.2412L40.8373 10.26ZM29.3173 18.612V17.612H28.3173V18.612H29.3173ZM33.8533 18.612H34.8533V17.612H33.8533V18.612ZM37.9213 12.968H34.7173V14.968H37.9213V12.968ZM35.7173 13.968V10.98H33.7173V13.968H35.7173ZM35.3945 11.7159L42.1625 5.48785L40.8082 4.01615L34.0402 10.2441L35.3945 11.7159ZM41.4853 3.752H30.5413V5.752H41.4853V3.752ZM31.5413 4.752V0.684H29.5413V4.752H31.5413ZM30.5413 1.684H47.2453V-0.316H30.5413V1.684ZM46.2453 0.684V4.356H48.2453V0.684H46.2453ZM46.5677 3.62056L40.1598 9.52456L41.5149 10.9954L47.9229 5.09144L46.5677 3.62056ZM40.6446 11.2412C44.2926 11.9578 47.0013 14.5636 47.0013 18.648H49.0013C49.0013 13.4444 45.4461 10.1462 41.0301 9.27875L40.6446 11.2412ZM47.0013 18.648C47.0013 21.0699 46.0649 23.0006 44.5645 24.336C43.0528 25.6815 40.9147 26.468 38.4613 26.468V28.468C41.336 28.468 43.9679 27.5445 45.8942 25.83C47.8318 24.1054 49.0013 21.6261 49.0013 18.648H47.0013ZM38.4613 26.468C36.0884 26.468 34.059 25.7393 32.6339 24.4353C31.2211 23.1424 30.3173 21.2076 30.3173 18.612H28.3173C28.3173 21.7044 29.4116 24.1976 31.2838 25.9107C33.1437 27.6127 35.6863 28.468 38.4613 28.468V26.468ZM29.3173 19.612H33.8533V17.612H29.3173V19.612ZM32.8533 18.612C32.8533 20.3338 33.391 21.7984 34.4372 22.833C35.4808 23.8652 36.9238 24.364 38.5333 24.364V22.364C37.3348 22.364 36.4379 21.9988 35.8435 21.411C35.2517 20.8256 34.8533 19.9142 34.8533 18.612H32.8533ZM38.5333 24.364C40.1937 24.364 41.6592 23.8202 42.7125 22.7725C43.7668 21.7239 44.3213 20.257 44.3213 18.576H42.3213C42.3213 19.811 41.9219 20.7381 41.3021 21.3545C40.6815 21.9718 39.753 22.364 38.5333 22.364V24.364ZM44.3213 18.576C44.3213 17.0226 43.8115 15.5814 42.6751 14.5368C41.5476 13.5004 39.9272 12.968 37.9213 12.968V14.968C39.5875 14.968 40.6671 15.4076 41.3216 16.0092C41.9672 16.6026 42.3213 17.4654 42.3213 18.576H44.3213Z" fill="#F7931A" mask="url(#path-1-outside-1_988_17384)"/>
</svg>
