<svg width="24" height="24" viewBox="0 0 24 24" fill="none" xmlns="http://www.w3.org/2000/svg">
<rect width="24" height="24" rx="12" fill="white"/>
<g clip-path="url(#clip0_2054_15999)">
<path fill-rule="evenodd" clip-rule="evenodd" d="M18.156 18.13C16.5015 19.35 14.104 20 12.04 20C9.14001 20 6.53901 18.93 4.56751 17.1485C4.41751 17.0085 4.55151 16.8175 4.73751 16.9265C6.86501 18.165 9.50001 18.91 12.213 18.91C14.1723 18.901 16.1104 18.5047 17.916 17.744C18.196 17.625 18.431 17.927 18.156 18.13ZM18.844 17.343C18.634 17.073 17.446 17.2155 16.914 17.278C16.7515 17.298 16.727 17.1565 16.873 17.055C17.823 16.39 19.37 16.5815 19.551 16.805C19.732 17.0285 19.504 18.585 18.616 19.327C18.4795 19.441 18.3495 19.3805 18.416 19.229C18.616 18.731 19.063 17.614 18.851 17.343" fill="#FF9900"/>
<path fill-rule="evenodd" clip-rule="evenodd" d="M13.2149 10.932C13.2149 11.778 13.2364 12.4835 12.8089 13.2345C12.4589 13.8445 11.9089 14.221 11.3064 14.221C10.4729 14.221 9.98436 13.586 9.98436 12.6485C9.98436 10.7985 11.6424 10.462 13.2154 10.462L13.2149 10.932ZM15.4054 16.224C15.2619 16.3525 15.0544 16.3615 14.8924 16.276C14.1724 15.6775 14.0404 15.3995 13.6464 14.8285C12.4554 16.0435 11.6094 16.407 10.0674 16.407C8.23836 16.407 6.81836 15.28 6.81836 13.0235C6.81836 11.2615 7.77086 10.0615 9.13336 9.475C10.3119 8.956 11.9584 8.865 13.2159 8.725V8.45C13.2159 7.934 13.2559 7.323 12.9509 6.8775C12.6884 6.4775 12.1809 6.3125 11.7324 6.3125C10.9049 6.3125 10.1689 6.7375 9.98886 7.6165C9.95236 7.8165 9.80886 8.0045 9.61036 8.0135L7.49986 7.7775C7.32286 7.7375 7.12486 7.5945 7.17636 7.3275C7.66386 4.77 9.97236 4 12.0369 4C13.0934 4 14.4739 4.281 15.3069 5.081C16.3634 6.0675 16.2629 7.3835 16.2629 8.816V12.2C16.2629 13.217 16.6844 13.6625 17.0814 14.2125C17.2189 14.4125 17.2494 14.6425 17.0724 14.7895C16.512 15.2634 15.9573 15.7439 15.4084 16.231L15.4054 16.225" fill="#090909"/>
</g>
<defs>
<clipPath id="clip0_2054_15999">
<rect width="16" height="16" fill="white" transform="translate(4 4)"/>
</clipPath>
</defs>
</svg>
