<svg width="425" height="107" viewBox="0 0 425 107" fill="none" xmlns="http://www.w3.org/2000/svg">
<g clip-path="url(#clip0_3016_23230)">
<path d="M63.789 24.8296C63.789 11.2587 51.8611 0 37.3402 0C22.8167 0 10.8861 11.264 10.8861 24.827V32.7658H0V89.8468L37.3323 107L74.6856 89.8521V33.0178H63.7995L63.7916 24.827L63.789 24.8296ZM24.3703 24.8296C24.3703 18.4313 30.0784 13.311 37.3402 13.311C44.6019 13.311 50.3048 18.4313 50.3048 24.8296V32.7658H24.3729L24.3703 24.8296ZM59.6424 80.6351L37.3297 90.8809L15.0248 80.643V46.334H59.6398L59.6424 80.6351Z" fill="white"/>
<path d="M105.027 32.7667H151.967V46.3349H135.887V90.1049H120.847V46.3349H105.027V32.7667ZM205.912 51.9643C205.912 40.4431 197.871 33.0213 185.943 33.0213H158.709V90.1023H173.752V70.9073H179.458L190.089 90.1023H207.481L194.774 68.8603C200.206 66.8132 205.912 61.4332 205.912 51.9643ZM184.14 57.5963H173.752V46.0751H184.127C188.016 46.0751 190.609 48.382 190.609 51.7097C190.609 55.292 188.016 57.5963 184.127 57.5963H184.14ZM212.911 32.7667H254.926V46.0777H227.952V54.5257H254.149V67.5796H227.952V76.7912H254.926V90.1049H212.911V32.7667ZM339.211 31.9951C321.578 31.9951 309.135 44.5398 309.135 61.4358C309.135 78.3292 321.835 90.8817 339.211 90.8817C356.587 90.8817 369.555 78.3397 369.555 61.4437C369.555 44.5477 356.847 31.9977 339.211 31.9977V31.9951ZM339.211 77.5628C330.396 77.5628 324.428 70.9073 324.428 61.4489C324.428 51.7202 330.396 45.3298 339.211 45.3298C348.029 45.3298 354.254 51.9879 354.254 61.4463C354.254 70.9073 348.029 77.5602 339.211 77.5602V77.5628ZM411.829 68.8603C417.272 66.8132 422.983 61.4332 422.983 51.9643C422.983 40.4431 414.941 33.0213 403.011 33.0213H375.782V90.1023H390.823V70.9073H396.539L407.17 90.1023H424.547L411.829 68.8603ZM401.195 57.5963H390.823V46.0751H401.195C405.089 46.0751 407.68 48.382 407.68 51.7097C407.68 55.292 405.089 57.5963 401.195 57.5963ZM262.187 32.7667H306.535V44.2853L282.416 76.5393H306.535V90.1049H262.187V78.5837L286.306 46.3349H262.187V32.7667Z" fill="white"/>
</g>
<defs>
<clipPath id="clip0_3016_23230">
<rect width="424.546" height="107" fill="white"/>
</clipPath>
</defs>
</svg>
