<svg width="120" height="120" viewBox="0 0 120 120" fill="none" xmlns="http://www.w3.org/2000/svg">
<g filter="url(#filter0_b_1162_31649)">
<rect width="120" height="120" rx="12" fill="#F7931A" fill-opacity="0.1"/>
<rect x="0.5" y="0.5" width="119" height="119" rx="11.5" stroke="url(#paint0_linear_1162_31649)"/>
<path d="M70.62 56.925C72.138 55.4634 73.2042 53.5965 73.6918 51.5465C74.1794 49.4964 74.0679 47.3494 73.3706 45.3609C72.6733 43.3724 71.4194 41.626 69.7582 40.3295C68.097 39.033 66.0984 38.2409 64 38.0475V34C64 33.4696 63.7893 32.9609 63.4142 32.5858C63.0391 32.2107 62.5304 32 62 32C61.4696 32 60.9609 32.2107 60.5858 32.5858C60.2107 32.9609 60 33.4696 60 34V38H56V34C56 33.4696 55.7893 32.9609 55.4142 32.5858C55.0391 32.2107 54.5304 32 54 32C53.4696 32 52.9609 32.2107 52.5858 32.5858C52.2107 32.9609 52 33.4696 52 34V38H44C43.4696 38 42.9609 38.2107 42.5858 38.5858C42.2107 38.9609 42 39.4696 42 40C42 40.5304 42.2107 41.0391 42.5858 41.4142C42.9609 41.7893 43.4696 42 44 42H46V76H44C43.4696 76 42.9609 76.2107 42.5858 76.5858C42.2107 76.9609 42 77.4696 42 78C42 78.5304 42.2107 79.0391 42.5858 79.4142C42.9609 79.7893 43.4696 80 44 80H52V84C52 84.5304 52.2107 85.0391 52.5858 85.4142C52.9609 85.7893 53.4696 86 54 86C54.5304 86 55.0391 85.7893 55.4142 85.4142C55.7893 85.0391 56 84.5304 56 84V80H60V84C60 84.5304 60.2107 85.0391 60.5858 85.4142C60.9609 85.7893 61.4696 86 62 86C62.5304 86 63.0391 85.7893 63.4142 85.4142C63.7893 85.0391 64 84.5304 64 84V80H66C68.7737 80 71.4617 79.0392 73.6069 77.2809C75.7521 75.5226 77.222 73.0756 77.7665 70.3558C78.311 67.6361 77.8966 64.8118 76.5937 62.3632C75.2908 59.9145 73.1799 57.9929 70.62 56.925ZM70 49C70 50.8565 69.2625 52.637 67.9497 53.9497C66.637 55.2625 64.8565 56 63 56H50V42H63C64.8565 42 66.637 42.7375 67.9497 44.0503C69.2625 45.363 70 47.1435 70 49ZM66 76H50V60H66C68.1217 60 70.1566 60.8429 71.6569 62.3431C73.1571 63.8434 74 65.8783 74 68C74 70.1217 73.1571 72.1566 71.6569 73.6569C70.1566 75.1571 68.1217 76 66 76Z" fill="#F7931A"/>
</g>
<defs>
<filter id="filter0_b_1162_31649" x="-8" y="-8" width="136" height="136" filterUnits="userSpaceOnUse" color-interpolation-filters="sRGB">
<feFlood flood-opacity="0" result="BackgroundImageFix"/>
<feGaussianBlur in="BackgroundImageFix" stdDeviation="4"/>
<feComposite in2="SourceAlpha" operator="in" result="effect1_backgroundBlur_1162_31649"/>
<feBlend mode="normal" in="SourceGraphic" in2="effect1_backgroundBlur_1162_31649" result="shape"/>
</filter>
<linearGradient id="paint0_linear_1162_31649" x1="0" y1="0" x2="120" y2="120" gradientUnits="userSpaceOnUse">
<stop stop-color="#F8C296"/>
<stop offset="1" stop-color="#F9CAA4" stop-opacity="0"/>
</linearGradient>
</defs>
</svg>
