<svg width="64" height="64" viewBox="0 0 64 64" fill="none" xmlns="http://www.w3.org/2000/svg">
<rect width="64" height="64" rx="32" fill="#2B2B2B"/>
<path d="M43.84 24.4878L32.84 18.4665C32.5828 18.3245 32.2938 18.25 32 18.25C31.7062 18.25 31.4172 18.3245 31.16 18.4665L20.16 24.489C19.8848 24.6396 19.6551 24.8615 19.495 25.1313C19.3349 25.4011 19.2503 25.709 19.25 26.0228V37.9778C19.2503 38.2915 19.3349 38.5995 19.495 38.8693C19.6551 39.1391 19.8848 39.3609 20.16 39.5115L31.16 45.534C31.4173 45.6759 31.7062 45.7502 32 45.7502C32.2938 45.7502 32.5827 45.6759 32.84 45.534L43.84 39.5115C44.1152 39.3609 44.3449 39.1391 44.505 38.8693C44.6651 38.5995 44.7497 38.2915 44.75 37.9778V26.0228C44.75 25.7088 44.6655 25.4007 44.5054 25.1306C44.3452 24.8605 44.1154 24.6385 43.84 24.4878ZM31.875 19.7815C31.9118 19.7614 31.9531 19.7509 31.995 19.7509C32.0369 19.7509 32.0782 19.7614 32.115 19.7815L42.5637 25.5003L32 31.2803L21.4363 25.5003L31.875 19.7815ZM20.875 38.1965C20.8367 38.1744 20.8049 38.1425 20.7829 38.1041C20.761 38.0656 20.7496 38.0221 20.75 37.9778V26.8328L31.25 32.5828V43.8753L20.875 38.1965ZM43.115 38.1965L32.75 43.8753V32.5803L43.25 26.8303V37.9753C43.2508 38.02 43.2397 38.0641 43.2177 38.103C43.1957 38.1419 43.1637 38.1742 43.125 38.1965H43.115Z" fill="#F7931A"/>
</svg>
