<svg width="32" height="32" viewBox="0 0 32 32" fill="none" xmlns="http://www.w3.org/2000/svg">
<path d="M27.84 8.48779L16.84 2.46654C16.5828 2.3245 16.2938 2.25 16 2.25C15.7062 2.25 15.4172 2.3245 15.16 2.46654L4.16 8.48904C3.88476 8.63964 3.65506 8.86147 3.49497 9.1313C3.33487 9.40113 3.25026 9.70904 3.25 10.0228V21.9778C3.25026 22.2915 3.33487 22.5995 3.49497 22.8693C3.65506 23.1391 3.88476 23.3609 4.16 23.5115L15.16 29.534C15.4173 29.6759 15.7062 29.7502 16 29.7502C16.2938 29.7502 16.5827 29.6759 16.84 29.534L27.84 23.5115C28.1152 23.3609 28.3449 23.1391 28.505 22.8693C28.6651 22.5995 28.7497 22.2915 28.75 21.9778V10.0228C28.75 9.70883 28.6655 9.40066 28.5054 9.13059C28.3452 8.86052 28.1154 8.6385 27.84 8.48779ZM15.875 3.78154C15.9118 3.76141 15.9531 3.75086 15.995 3.75086C16.0369 3.75086 16.0782 3.76141 16.115 3.78154L26.5637 9.50029L16 15.2803L5.43625 9.50029L15.875 3.78154ZM4.875 22.1965C4.83666 22.1744 4.80489 22.1425 4.78293 22.1041C4.76097 22.0656 4.7496 22.0221 4.75 21.9778V10.8328L15.25 16.5828V27.8753L4.875 22.1965ZM27.115 22.1965L16.75 27.8753V16.5803L27.25 10.8303V21.9753C27.2508 22.02 27.2397 22.0641 27.2177 22.103C27.1957 22.1419 27.1637 22.1742 27.125 22.1965H27.115Z" fill="#F7931A"/>
</svg>
