<svg width="16" height="19" viewBox="0 0 16 19" fill="none" xmlns="http://www.w3.org/2000/svg">
<path d="M15.4 4.80463L8.525 1.04135C8.36426 0.95257 8.18363 0.906006 8 0.906006C7.81637 0.906006 7.63574 0.95257 7.475 1.04135L0.6 4.80541C0.427973 4.89953 0.284414 5.03818 0.184355 5.20682C0.0842952 5.37547 0.0314147 5.56791 0.03125 5.764V13.2359C0.0314147 13.432 0.0842952 13.6244 0.184355 13.7931C0.284414 13.9617 0.427973 14.1003 0.6 14.1945L7.475 17.9585C7.63579 18.0472 7.8164 18.0937 8 18.0937C8.1836 18.0937 8.36421 18.0472 8.525 17.9585L15.4 14.1945C15.572 14.1003 15.7156 13.9617 15.8156 13.7931C15.9157 13.6244 15.9686 13.432 15.9688 13.2359V5.764C15.9687 5.56778 15.9159 5.37517 15.8158 5.20638C15.7158 5.03758 15.5721 4.89882 15.4 4.80463ZM7.92188 1.86322C7.94487 1.85064 7.97066 1.84404 7.99687 1.84404C8.02309 1.84404 8.04888 1.85064 8.07187 1.86322L14.6023 5.43744L8 9.04994L1.39766 5.43744L7.92188 1.86322ZM1.04688 13.3726C1.02291 13.3588 1.00306 13.3388 0.989331 13.3148C0.975605 13.2908 0.968502 13.2635 0.96875 13.2359V6.27025L7.53125 9.864V16.9218L1.04688 13.3726ZM14.9469 13.3726L8.46875 16.9218V9.86244L15.0312 6.26869V13.2343C15.0318 13.2622 15.0248 13.2898 15.0111 13.3141C14.9973 13.3384 14.9773 13.3586 14.9531 13.3726H14.9469Z" fill="white"/>
</svg>
