<svg width="120" height="120" viewBox="0 0 120 120" fill="none" xmlns="http://www.w3.org/2000/svg">
<rect x="0.5" y="0.5" width="119" height="119" rx="11.5" fill="#F7931A" fill-opacity="0.1"/>
<rect x="0.5" y="0.5" width="119" height="119" rx="11.5" stroke="url(#paint0_linear_3775_18132)"/>
<path d="M80 36.5H73.5V34C73.5 33.6022 73.342 33.2206 73.0607 32.9393C72.7794 32.658 72.3978 32.5 72 32.5C71.6022 32.5 71.2206 32.658 70.9393 32.9393C70.658 33.2206 70.5 33.6022 70.5 34V36.5H49.5V34C49.5 33.6022 49.342 33.2206 49.0607 32.9393C48.7794 32.658 48.3978 32.5 48 32.5C47.6022 32.5 47.2206 32.658 46.9393 32.9393C46.658 33.2206 46.5 33.6022 46.5 34V36.5H40C39.0717 36.5 38.1815 36.8687 37.5251 37.5251C36.8687 38.1815 36.5 39.0717 36.5 40V80C36.5 80.9283 36.8687 81.8185 37.5251 82.4749C38.1815 83.1312 39.0717 83.5 40 83.5H80C80.9283 83.5 81.8185 83.1312 82.4749 82.4749C83.1312 81.8185 83.5 80.9283 83.5 80V40C83.5 39.0717 83.1312 38.1815 82.4749 37.5251C81.8185 36.8687 80.9283 36.5 80 36.5ZM40 39.5H46.5V42C46.5 42.3978 46.658 42.7794 46.9393 43.0607C47.2206 43.342 47.6022 43.5 48 43.5C48.3978 43.5 48.7794 43.342 49.0607 43.0607C49.342 42.7794 49.5 42.3978 49.5 42V39.5H70.5V42C70.5 42.3978 70.658 42.7794 70.9393 43.0607C71.2206 43.342 71.6022 43.5 72 43.5C72.3978 43.5 72.7794 43.342 73.0607 43.0607C73.342 42.7794 73.5 42.3978 73.5 42V39.5H80C80.1326 39.5 80.2598 39.5527 80.3536 39.6464C80.4473 39.7402 80.5 39.8674 80.5 40V48.5H39.5V40C39.5 39.8674 39.5527 39.7402 39.6464 39.6464C39.7402 39.5527 39.8674 39.5 40 39.5ZM80 80.5H40C39.8674 80.5 39.7402 80.4473 39.6464 80.3536C39.5527 80.2598 39.5 80.1326 39.5 80V51.5H80.5V80C80.5 80.1326 80.4473 80.2598 80.3536 80.3536C80.2598 80.4473 80.1326 80.5 80 80.5ZM62.5 61C62.5 61.4945 62.3534 61.9778 62.0787 62.3889C61.804 62.8001 61.4135 63.1205 60.9567 63.3097C60.4999 63.4989 59.9972 63.5484 59.5123 63.452C59.0273 63.3555 58.5819 63.1174 58.2322 62.7678C57.8826 62.4181 57.6445 61.9727 57.548 61.4877C57.4516 61.0028 57.5011 60.5001 57.6903 60.0433C57.8795 59.5865 58.2 59.196 58.6111 58.9213C59.0222 58.6466 59.5055 58.5 60 58.5C60.663 58.5 61.2989 58.7634 61.7678 59.2322C62.2366 59.7011 62.5 60.337 62.5 61ZM73.5 61C73.5 61.4945 73.3534 61.9778 73.0787 62.3889C72.804 62.8001 72.4135 63.1205 71.9567 63.3097C71.4999 63.4989 70.9972 63.5484 70.5123 63.452C70.0273 63.3555 69.5819 63.1174 69.2322 62.7678C68.8826 62.4181 68.6445 61.9727 68.548 61.4877C68.4516 61.0028 68.5011 60.5001 68.6903 60.0433C68.8795 59.5865 69.2 59.196 69.6111 58.9213C70.0222 58.6466 70.5055 58.5 71 58.5C71.663 58.5 72.2989 58.7634 72.7678 59.2322C73.2366 59.7011 73.5 60.337 73.5 61ZM51.5 71C51.5 71.4945 51.3534 71.9778 51.0787 72.3889C50.804 72.8 50.4135 73.1205 49.9567 73.3097C49.4999 73.4989 48.9972 73.5484 48.5123 73.452C48.0273 73.3555 47.5819 73.1174 47.2322 72.7678C46.8826 72.4181 46.6445 71.9727 46.548 71.4877C46.4516 71.0028 46.5011 70.5001 46.6903 70.0433C46.8795 69.5865 47.2 69.196 47.6111 68.9213C48.0222 68.6466 48.5055 68.5 49 68.5C49.663 68.5 50.2989 68.7634 50.7678 69.2322C51.2366 69.7011 51.5 70.337 51.5 71ZM62.5 71C62.5 71.4945 62.3534 71.9778 62.0787 72.3889C61.804 72.8 61.4135 73.1205 60.9567 73.3097C60.4999 73.4989 59.9972 73.5484 59.5123 73.452C59.0273 73.3555 58.5819 73.1174 58.2322 72.7678C57.8826 72.4181 57.6445 71.9727 57.548 71.4877C57.4516 71.0028 57.5011 70.5001 57.6903 70.0433C57.8795 69.5865 58.2 69.196 58.6111 68.9213C59.0222 68.6466 59.5055 68.5 60 68.5C60.663 68.5 61.2989 68.7634 61.7678 69.2322C62.2366 69.7011 62.5 70.337 62.5 71ZM73.5 71C73.5 71.4945 73.3534 71.9778 73.0787 72.3889C72.804 72.8 72.4135 73.1205 71.9567 73.3097C71.4999 73.4989 70.9972 73.5484 70.5123 73.452C70.0273 73.3555 69.5819 73.1174 69.2322 72.7678C68.8826 72.4181 68.6445 71.9727 68.548 71.4877C68.4516 71.0028 68.5011 70.5001 68.6903 70.0433C68.8795 69.5865 69.2 69.196 69.6111 68.9213C70.0222 68.6466 70.5055 68.5 71 68.5C71.663 68.5 72.2989 68.7634 72.7678 69.2322C73.2366 69.7011 73.5 70.337 73.5 71Z" fill="#F7931A"/>
<defs>
<linearGradient id="paint0_linear_3775_18132" x1="0" y1="0" x2="120" y2="120" gradientUnits="userSpaceOnUse">
<stop stop-color="#F8C296"/>
<stop offset="1" stop-color="#F9CAA4" stop-opacity="0"/>
</linearGradient>
</defs>
</svg>
