<svg width="64" height="64" viewBox="0 0 64 64" fill="none" xmlns="http://www.w3.org/2000/svg">
<rect width="64" height="64" rx="32" fill="#2B2B2B"/>
<path d="M28.2738 20.5671C28.224 20.3747 28.2527 20.1704 28.3535 19.999C28.4542 19.8277 28.6189 19.7034 28.8113 19.6534C30.9021 19.1142 33.0955 19.1142 35.1863 19.6534C35.3789 19.7031 35.5439 19.8273 35.6449 19.9987C35.746 20.1701 35.7748 20.3745 35.7251 20.5671C35.6753 20.7598 35.5511 20.9247 35.3798 21.0258C35.2084 21.1268 35.0039 21.1556 34.8113 21.1059C32.9666 20.6296 31.0311 20.6296 29.1863 21.1059C28.9939 21.1553 28.7897 21.1263 28.6186 21.0253C28.4476 20.9243 28.3235 20.7595 28.2738 20.5671ZM22.8988 23.0671C21.3869 24.608 20.2906 26.5072 19.7126 28.5871C19.6864 28.6821 19.6791 28.7813 19.6913 28.8791C19.7034 28.9768 19.7347 29.0712 19.7833 29.1569C19.832 29.2426 19.897 29.3178 19.9747 29.3783C20.0525 29.4389 20.1413 29.4835 20.2363 29.5096C20.3014 29.528 20.3687 29.5372 20.4363 29.5371C20.6003 29.5371 20.7598 29.4832 20.8903 29.3839C21.0208 29.2846 21.1151 29.1452 21.1588 28.9871C21.6704 27.1544 22.6385 25.4814 23.9726 24.1246C24.0416 24.0544 24.0961 23.9712 24.133 23.8799C24.1699 23.7886 24.1884 23.6909 24.1875 23.5924C24.1867 23.4939 24.1664 23.3966 24.1279 23.3059C24.0894 23.2152 24.0335 23.133 23.9632 23.064C23.8929 22.995 23.8098 22.9405 23.7184 22.9036C23.6271 22.8667 23.5294 22.8482 23.4309 22.849C23.3325 22.8499 23.2351 22.8702 23.1444 22.9087C23.0538 22.9472 22.9716 23.0031 22.9026 23.0734L22.8988 23.0671ZM21.1601 35.0109C21.1362 34.9134 21.093 34.8217 21.033 34.7413C20.973 34.6608 20.8975 34.5932 20.8109 34.5424C20.7243 34.4917 20.6284 34.4588 20.5289 34.4458C20.4294 34.4328 20.3283 34.4399 20.2316 34.4667C20.1348 34.4934 20.0445 34.5394 19.9658 34.6017C19.8872 34.664 19.8218 34.7415 19.7736 34.8296C19.7255 34.9176 19.6955 35.0144 19.6854 35.1143C19.6754 35.2141 19.6854 35.315 19.7151 35.4109C20.2923 37.4919 21.3887 39.3921 22.9013 40.9334C23.0424 41.0673 23.2299 41.1411 23.4243 41.1394C23.6188 41.1377 23.805 41.0605 23.9436 40.9241C24.0822 40.7878 24.1625 40.6029 24.1674 40.4085C24.1724 40.2141 24.1016 40.0254 23.9701 39.8821C22.6366 38.5221 21.6698 36.8461 21.1601 35.0109ZM34.8113 42.8934C32.9666 43.3697 31.0311 43.3697 29.1863 42.8934C29.0909 42.8688 28.9917 42.8632 28.8941 42.8769C28.7966 42.8907 28.7027 42.9235 28.6179 42.9735C28.533 43.0236 28.4588 43.0898 28.3996 43.1685C28.3404 43.2472 28.2972 43.3368 28.2726 43.4321C28.2479 43.5275 28.2423 43.6268 28.2561 43.7243C28.2698 43.8219 28.3027 43.9158 28.3527 44.0006C28.4027 44.0855 28.469 44.1596 28.5477 44.2189C28.6264 44.2781 28.7159 44.3213 28.8113 44.3459C30.9021 44.8848 33.0955 44.8848 35.1863 44.3459C35.3789 44.2962 35.5439 44.172 35.6449 44.0006C35.746 43.8292 35.7748 43.6248 35.7251 43.4321C35.6753 43.2395 35.5511 43.0746 35.3798 42.9735C35.2084 42.8725 35.0039 42.8437 34.8113 42.8934ZM43.7638 34.4896C43.5722 34.4367 43.3674 34.462 43.1944 34.56C43.0214 34.6579 42.8944 34.8206 42.8413 35.0121C42.3316 36.8493 41.3634 38.5268 40.0276 39.8871C39.8882 40.029 39.8108 40.2205 39.8126 40.4194C39.8144 40.6183 39.8951 40.8084 40.0369 40.9478C40.1788 41.0872 40.3703 41.1645 40.5692 41.1627C40.7681 41.161 40.9582 41.0803 41.0976 40.9384C42.6116 39.3961 43.7092 37.4946 44.2876 35.4121C44.3138 35.3172 44.321 35.218 44.3089 35.1202C44.2967 35.0225 44.2654 34.9281 44.2168 34.8424C44.1681 34.7567 44.1031 34.6815 44.0254 34.621C43.9477 34.5604 43.8588 34.5158 43.7638 34.4896ZM42.8401 28.9896C42.8838 29.1477 42.9781 29.2871 43.1086 29.3864C43.2391 29.4857 43.3986 29.5396 43.5626 29.5396C43.6302 29.5397 43.6975 29.5305 43.7626 29.5121C43.9541 29.459 44.1168 29.332 44.2148 29.159C44.3127 28.9861 44.338 28.7813 44.2851 28.5896C43.7078 26.5087 42.6115 24.6084 41.0988 23.0671C40.9578 22.9333 40.7703 22.8594 40.5758 22.8611C40.3814 22.8629 40.1952 22.9401 40.0565 23.0764C39.9179 23.2128 39.8377 23.3977 39.8327 23.5921C39.8278 23.7865 39.8985 23.9752 40.0301 24.1184C41.3636 25.4779 42.3304 27.1535 42.8401 28.9884V28.9896Z" fill="#F7931A"/>
</svg>
