<svg width="64" height="64" viewBox="0 0 64 64" fill="none" xmlns="http://www.w3.org/2000/svg">
<rect width="64" height="64" rx="32" fill="#2B2B2B"/>
<path d="M23.4698 28.5302L19.4698 24.5302C19.3294 24.3895 19.2505 24.1989 19.2505 24.0002C19.2505 23.8014 19.3294 23.6108 19.4698 23.4702L23.4698 19.4702C23.5385 19.3965 23.6213 19.3374 23.7133 19.2964C23.8053 19.2554 23.9046 19.2333 24.0053 19.2316C24.106 19.2298 24.206 19.2483 24.2994 19.286C24.3928 19.3238 24.4776 19.3799 24.5489 19.4511C24.6201 19.5223 24.6762 19.6072 24.714 19.7006C24.7517 19.7939 24.7702 19.894 24.7684 19.9947C24.7666 20.0954 24.7446 20.1947 24.7036 20.2867C24.6626 20.3787 24.6035 20.4615 24.5298 20.5302L21.0611 24.0002L24.5298 27.4702C24.6035 27.5388 24.6626 27.6216 24.7036 27.7136C24.7446 27.8056 24.7666 27.9049 24.7684 28.0056C24.7702 28.1063 24.7517 28.2064 24.714 28.2998C24.6762 28.3931 24.6201 28.478 24.5489 28.5492C24.4776 28.6204 24.3928 28.6766 24.2994 28.7143C24.206 28.752 24.106 28.7705 24.0053 28.7687C23.9046 28.767 23.8053 28.7449 23.7133 28.7039C23.6213 28.6629 23.5385 28.6038 23.4698 28.5302ZM28.4698 28.5302C28.6105 28.6706 28.8011 28.7495 28.9998 28.7495C29.1986 28.7495 29.3892 28.6706 29.5298 28.5302L33.5298 24.5302C33.6703 24.3895 33.7492 24.1989 33.7492 24.0002C33.7492 23.8014 33.6703 23.6108 33.5298 23.4702L29.5298 19.4702C29.4612 19.3965 29.3784 19.3374 29.2864 19.2964C29.1944 19.2554 29.0951 19.2333 28.9943 19.2316C28.8936 19.2298 28.7936 19.2483 28.7002 19.286C28.6068 19.3238 28.522 19.3799 28.4508 19.4511C28.3796 19.5223 28.3234 19.6072 28.2857 19.7006C28.248 19.7939 28.2295 19.894 28.2312 19.9947C28.233 20.0954 28.2551 20.1947 28.296 20.2867C28.337 20.3787 28.3961 20.4615 28.4698 20.5302L31.9386 24.0002L28.4698 27.4702C28.3294 27.6108 28.2505 27.8014 28.2505 28.0002C28.2505 28.1989 28.3294 28.3895 28.4698 28.5302ZM40.9998 21.2502H37.9998C37.8009 21.2502 37.6101 21.3292 37.4695 21.4698C37.3288 21.6105 37.2498 21.8012 37.2498 22.0002C37.2498 22.1991 37.3288 22.3898 37.4695 22.5305C37.6101 22.6711 37.8009 22.7502 37.9998 22.7502H40.9998C41.0661 22.7502 41.1297 22.7765 41.1766 22.8234C41.2235 22.8703 41.2498 22.9338 41.2498 23.0002V41.0002C41.2498 41.0665 41.2235 41.13 41.1766 41.1769C41.1297 41.2238 41.0661 41.2502 40.9998 41.2502H22.9998C22.9335 41.2502 22.8699 41.2238 22.8231 41.1769C22.7762 41.13 22.7498 41.0665 22.7498 41.0002V33.0002C22.7498 32.8012 22.6708 32.6105 22.5302 32.4698C22.3895 32.3292 22.1987 32.2502 21.9998 32.2502C21.8009 32.2502 21.6102 32.3292 21.4695 32.4698C21.3288 32.6105 21.2498 32.8012 21.2498 33.0002V41.0002C21.2498 41.4643 21.4342 41.9094 21.7624 42.2376C22.0906 42.5658 22.5357 42.7502 22.9998 42.7502H40.9998C41.464 42.7502 41.9091 42.5658 42.2373 42.2376C42.5655 41.9094 42.7498 41.4643 42.7498 41.0002V23.0002C42.7498 22.536 42.5655 22.0909 42.2373 21.7627C41.9091 21.4345 41.464 21.2502 40.9998 21.2502Z" fill="#F7931A"/>
</svg>
