<svg width="40" height="40" viewBox="0 0 40 40" fill="none" xmlns="http://www.w3.org/2000/svg">
<rect width="40" height="40" rx="20" fill="#2B2B2B"/>
<path d="M27.5 15.7812H26.0938V15C26.0938 14.5442 25.9127 14.107 25.5903 13.7847C25.268 13.4623 24.8308 13.2812 24.375 13.2812H13.125C12.6692 13.2812 12.232 13.4623 11.9097 13.7847C11.5873 14.107 11.4062 14.5442 11.4062 15V22.5C11.4062 22.9558 11.5873 23.393 11.9097 23.7153C12.232 24.0377 12.6692 24.2188 13.125 24.2188H22.0312V25C22.0312 25.4558 22.2123 25.893 22.5347 26.2153C22.857 26.5377 23.2942 26.7188 23.75 26.7188H27.5C27.9558 26.7188 28.393 26.5377 28.7153 26.2153C29.0377 25.893 29.2188 25.4558 29.2188 25V17.5C29.2188 17.0442 29.0377 16.607 28.7153 16.2847C28.393 15.9623 27.9558 15.7812 27.5 15.7812ZM13.125 23.2812C12.9178 23.2812 12.7191 23.1989 12.5726 23.0524C12.4261 22.9059 12.3438 22.7072 12.3438 22.5V15C12.3438 14.7928 12.4261 14.5941 12.5726 14.4476C12.7191 14.3011 12.9178 14.2188 13.125 14.2188H24.375C24.5822 14.2188 24.7809 14.3011 24.9274 14.4476C25.0739 14.5941 25.1562 14.7928 25.1562 15V15.7812H23.75C23.2942 15.7812 22.857 15.9623 22.5347 16.2847C22.2123 16.607 22.0312 17.0442 22.0312 17.5V23.2812H13.125ZM28.2812 25C28.2812 25.2072 28.1989 25.4059 28.0524 25.5524C27.9059 25.6989 27.7072 25.7812 27.5 25.7812H23.75C23.5428 25.7812 23.3441 25.6989 23.1976 25.5524C23.0511 25.4059 22.9688 25.2072 22.9688 25V17.5C22.9688 17.2928 23.0511 17.0941 23.1976 16.9476C23.3441 16.8011 23.5428 16.7188 23.75 16.7188H27.5C27.7072 16.7188 27.9059 16.8011 28.0524 16.9476C28.1989 17.0941 28.2812 17.2928 28.2812 17.5V25ZM20.4688 26.25C20.4688 26.3743 20.4194 26.4935 20.3315 26.5815C20.2435 26.6694 20.1243 26.7188 20 26.7188H16.875C16.7507 26.7188 16.6315 26.6694 16.5435 26.5815C16.4556 26.4935 16.4062 26.3743 16.4062 26.25C16.4062 26.1257 16.4556 26.0065 16.5435 25.9185C16.6315 25.8306 16.7507 25.7812 16.875 25.7812H20C20.1243 25.7812 20.2435 25.8306 20.3315 25.9185C20.4194 26.0065 20.4688 26.1257 20.4688 26.25ZM26.7188 18.75C26.7188 18.8743 26.6694 18.9935 26.5815 19.0815C26.4935 19.1694 26.3743 19.2188 26.25 19.2188H25C24.8757 19.2188 24.7565 19.1694 24.6685 19.0815C24.5806 18.9935 24.5312 18.8743 24.5312 18.75C24.5312 18.6257 24.5806 18.5065 24.6685 18.4185C24.7565 18.3306 24.8757 18.2812 25 18.2812H26.25C26.3743 18.2812 26.4935 18.3306 26.5815 18.4185C26.6694 18.5065 26.7188 18.6257 26.7188 18.75Z" fill="white"/>
</svg>
