<svg width="64" height="64" viewBox="0 0 64 64" fill="none" xmlns="http://www.w3.org/2000/svg">
<rect width="64" height="64" rx="32" fill="#2B2B2B"/>
<path d="M44 22.25H36C35.2027 22.2506 34.4184 22.4518 33.7194 22.8352C33.0204 23.2186 32.4291 23.7718 32 24.4438C31.5709 23.7718 30.9796 23.2186 30.2806 22.8352C29.5816 22.4518 28.7973 22.2506 28 22.25H20C19.5359 22.25 19.0908 22.4344 18.7626 22.7626C18.4344 23.0908 18.25 23.5359 18.25 24V40C18.25 40.4641 18.4344 40.9092 18.7626 41.2374C19.0908 41.5656 19.5359 41.75 20 41.75H28C28.862 41.75 29.6886 42.0924 30.2981 42.7019C30.9076 43.3114 31.25 44.138 31.25 45C31.25 45.1989 31.329 45.3897 31.4697 45.5303C31.6103 45.671 31.8011 45.75 32 45.75C32.1989 45.75 32.3897 45.671 32.5303 45.5303C32.671 45.3897 32.75 45.1989 32.75 45C32.75 44.138 33.0924 43.3114 33.7019 42.7019C34.3114 42.0924 35.138 41.75 36 41.75H44C44.4641 41.75 44.9092 41.5656 45.2374 41.2374C45.5656 40.9092 45.75 40.4641 45.75 40V24C45.75 23.5359 45.5656 23.0908 45.2374 22.7626C44.9092 22.4344 44.4641 22.25 44 22.25ZM28 40.25H20C19.9337 40.25 19.8701 40.2237 19.8232 40.1768C19.7763 40.1299 19.75 40.0663 19.75 40V24C19.75 23.9337 19.7763 23.8701 19.8232 23.8232C19.8701 23.7763 19.9337 23.75 20 23.75H28C28.862 23.75 29.6886 24.0924 30.2981 24.7019C30.9076 25.3114 31.25 26.138 31.25 27V41.5387C30.3709 40.7101 29.2081 40.249 28 40.25ZM44.25 40C44.25 40.0663 44.2237 40.1299 44.1768 40.1768C44.1299 40.2237 44.0663 40.25 44 40.25H36C34.7917 40.2495 33.629 40.711 32.75 41.54V27C32.75 26.138 33.0924 25.3114 33.7019 24.7019C34.3114 24.0924 35.138 23.75 36 23.75H44C44.0663 23.75 44.1299 23.7763 44.1768 23.8232C44.2237 23.8701 44.25 23.9337 44.25 24V40Z" fill="#F7931A"/>
</svg>
