<svg width="64" height="64" viewBox="0 0 64 64" fill="none" xmlns="http://www.w3.org/2000/svg">
<rect width="64" height="64" rx="32" fill="#2B2B2B"/>
<path d="M42.75 22V28C42.75 28.1989 42.671 28.3897 42.5303 28.5303C42.3897 28.671 42.1989 28.75 42 28.75C41.8011 28.75 41.6103 28.671 41.4697 28.5303C41.329 28.3897 41.25 28.1989 41.25 28V23.81L35.53 29.53C35.3878 29.6625 35.1998 29.7346 35.0055 29.7312C34.8112 29.7277 34.6258 29.649 34.4884 29.5116C34.351 29.3742 34.2723 29.1888 34.2688 28.9945C34.2654 28.8002 34.3375 28.6122 34.47 28.47L40.19 22.75H36C35.8011 22.75 35.6103 22.671 35.4697 22.5303C35.329 22.3897 35.25 22.1989 35.25 22C35.25 21.8011 35.329 21.6103 35.4697 21.4697C35.6103 21.329 35.8011 21.25 36 21.25H42C42.1989 21.25 42.3897 21.329 42.5303 21.4697C42.671 21.6103 42.75 21.8011 42.75 22ZM28.47 34.47L22.75 40.19V36C22.75 35.8011 22.671 35.6103 22.5303 35.4697C22.3897 35.329 22.1989 35.25 22 35.25C21.8011 35.25 21.6103 35.329 21.4697 35.4697C21.329 35.6103 21.25 35.8011 21.25 36V42C21.25 42.1989 21.329 42.3897 21.4697 42.5303C21.6103 42.671 21.8011 42.75 22 42.75H28C28.1989 42.75 28.3897 42.671 28.5303 42.5303C28.671 42.3897 28.75 42.1989 28.75 42C28.75 41.8011 28.671 41.6103 28.5303 41.4697C28.3897 41.329 28.1989 41.25 28 41.25H23.81L29.53 35.53C29.6625 35.3878 29.7346 35.1998 29.7312 35.0055C29.7277 34.8112 29.649 34.6258 29.5116 34.4884C29.3742 34.351 29.1888 34.2723 28.9945 34.2688C28.8002 34.2654 28.6122 34.3375 28.47 34.47ZM42 35.25C41.8011 35.25 41.6103 35.329 41.4697 35.4697C41.329 35.6103 41.25 35.8011 41.25 36V40.19L35.53 34.47C35.3878 34.3375 35.1998 34.2654 35.0055 34.2688C34.8112 34.2723 34.6258 34.351 34.4884 34.4884C34.351 34.6258 34.2723 34.8112 34.2688 35.0055C34.2654 35.1998 34.3375 35.3878 34.47 35.53L40.19 41.25H36C35.8011 41.25 35.6103 41.329 35.4697 41.4697C35.329 41.6103 35.25 41.8011 35.25 42C35.25 42.1989 35.329 42.3897 35.4697 42.5303C35.6103 42.671 35.8011 42.75 36 42.75H42C42.1989 42.75 42.3897 42.671 42.5303 42.5303C42.671 42.3897 42.75 42.1989 42.75 42V36C42.75 35.8011 42.671 35.6103 42.5303 35.4697C42.3897 35.329 42.1989 35.25 42 35.25ZM23.81 22.75H28C28.1989 22.75 28.3897 22.671 28.5303 22.5303C28.671 22.3897 28.75 22.1989 28.75 22C28.75 21.8011 28.671 21.6103 28.5303 21.4697C28.3897 21.329 28.1989 21.25 28 21.25H22C21.8011 21.25 21.6103 21.329 21.4697 21.4697C21.329 21.6103 21.25 21.8011 21.25 22V28C21.25 28.1989 21.329 28.3897 21.4697 28.5303C21.6103 28.671 21.8011 28.75 22 28.75C22.1989 28.75 22.3897 28.671 22.5303 28.5303C22.671 28.3897 22.75 28.1989 22.75 28V23.81L28.47 29.53C28.6122 29.6625 28.8002 29.7346 28.9945 29.7312C29.1888 29.7277 29.3742 29.649 29.5116 29.5116C29.649 29.3742 29.7277 29.1888 29.7312 28.9945C29.7346 28.8002 29.6625 28.6122 29.53 28.47L23.81 22.75Z" fill="#F7931A"/>
</svg>
