<svg width="40" height="40" viewBox="0 0 40 40" fill="none" xmlns="http://www.w3.org/2000/svg">
<rect width="40" height="40" rx="20" fill="#2B2B2B"/>
<path d="M26.7188 13.75V17.5C26.7188 17.6243 26.6694 17.7435 26.5815 17.8315C26.4935 17.9194 26.3743 17.9688 26.25 17.9688C26.1257 17.9688 26.0065 17.9194 25.9185 17.8315C25.8306 17.7435 25.7812 17.6243 25.7812 17.5V14.8812L22.2063 18.4562C22.1174 18.539 21.9999 18.5841 21.8784 18.582C21.757 18.5798 21.6411 18.5306 21.5552 18.4448C21.4694 18.3589 21.4202 18.243 21.418 18.1216C21.4159 18.0001 21.4609 17.8826 21.5437 17.7938L25.1188 14.2188H22.5C22.3757 14.2188 22.2565 14.1694 22.1685 14.0815C22.0806 13.9935 22.0312 13.8743 22.0312 13.75C22.0312 13.6257 22.0806 13.5065 22.1685 13.4185C22.2565 13.3306 22.3757 13.2812 22.5 13.2812H26.25C26.3743 13.2812 26.4935 13.3306 26.5815 13.4185C26.6694 13.5065 26.7188 13.6257 26.7188 13.75ZM17.7938 21.5437L14.2188 25.1188V22.5C14.2188 22.3757 14.1694 22.2565 14.0815 22.1685C13.9935 22.0806 13.8743 22.0312 13.75 22.0312C13.6257 22.0312 13.5065 22.0806 13.4185 22.1685C13.3306 22.2565 13.2812 22.3757 13.2812 22.5V26.25C13.2812 26.3743 13.3306 26.4935 13.4185 26.5815C13.5065 26.6694 13.6257 26.7188 13.75 26.7188H17.5C17.6243 26.7188 17.7435 26.6694 17.8315 26.5815C17.9194 26.4935 17.9688 26.3743 17.9688 26.25C17.9688 26.1257 17.9194 26.0065 17.8315 25.9185C17.7435 25.8306 17.6243 25.7812 17.5 25.7812H14.8812L18.4562 22.2063C18.539 22.1174 18.5841 21.9999 18.582 21.8784C18.5798 21.757 18.5306 21.6411 18.4448 21.5552C18.3589 21.4694 18.243 21.4202 18.1216 21.418C18.0001 21.4159 17.8826 21.4609 17.7938 21.5437ZM26.25 22.0312C26.1257 22.0312 26.0065 22.0806 25.9185 22.1685C25.8306 22.2565 25.7812 22.3757 25.7812 22.5V25.1188L22.2063 21.5437C22.1174 21.4609 21.9999 21.4159 21.8784 21.418C21.757 21.4202 21.6411 21.4694 21.5552 21.5552C21.4694 21.6411 21.4202 21.757 21.418 21.8784C21.4159 21.9999 21.4609 22.1174 21.5437 22.2063L25.1188 25.7812H22.5C22.3757 25.7812 22.2565 25.8306 22.1685 25.9185C22.0806 26.0065 22.0312 26.1257 22.0312 26.25C22.0312 26.3743 22.0806 26.4935 22.1685 26.5815C22.2565 26.6694 22.3757 26.7188 22.5 26.7188H26.25C26.3743 26.7188 26.4935 26.6694 26.5815 26.5815C26.6694 26.4935 26.7188 26.3743 26.7188 26.25V22.5C26.7188 22.3757 26.6694 22.2565 26.5815 22.1685C26.4935 22.0806 26.3743 22.0312 26.25 22.0312ZM14.8812 14.2188H17.5C17.6243 14.2188 17.7435 14.1694 17.8315 14.0815C17.9194 13.9935 17.9688 13.8743 17.9688 13.75C17.9688 13.6257 17.9194 13.5065 17.8315 13.4185C17.7435 13.3306 17.6243 13.2812 17.5 13.2812H13.75C13.6257 13.2812 13.5065 13.3306 13.4185 13.4185C13.3306 13.5065 13.2812 13.6257 13.2812 13.75V17.5C13.2812 17.6243 13.3306 17.7435 13.4185 17.8315C13.5065 17.9194 13.6257 17.9688 13.75 17.9688C13.8743 17.9688 13.9935 17.9194 14.0815 17.8315C14.1694 17.7435 14.2188 17.6243 14.2188 17.5V14.8812L17.7938 18.4562C17.8826 18.539 18.0001 18.5841 18.1216 18.582C18.243 18.5798 18.3589 18.5306 18.4448 18.4448C18.5306 18.3589 18.5798 18.243 18.582 18.1216C18.5841 18.0001 18.539 17.8826 18.4562 17.7938L14.8812 14.2188Z" fill="white"/>
</svg>
