<svg width="64" height="64" viewBox="0 0 64 64" fill="none" xmlns="http://www.w3.org/2000/svg">
<rect width="64" height="64" rx="32" fill="#2B2B2B"/>
<path d="M32 19.25C29.4783 19.25 27.0132 19.9978 24.9165 21.3988C22.8198 22.7998 21.1856 24.791 20.2205 27.1208C19.2555 29.4505 19.003 32.0141 19.495 34.4874C19.987 36.9607 21.2013 39.2325 22.9844 41.0156C24.7675 42.7987 27.0393 44.0131 29.5126 44.505C31.9859 44.997 34.5495 44.7445 36.8792 43.7795C39.209 42.8144 41.2003 41.1802 42.6012 39.0835C44.0022 36.9868 44.75 34.5217 44.75 32C44.746 28.6197 43.4015 25.379 41.0112 22.9888C38.621 20.5985 35.3803 19.254 32 19.25ZM32.75 20.775C33.5978 20.8312 34.4365 20.9834 35.25 21.2288V42.7712C34.4365 43.0166 33.5978 43.1688 32.75 43.225V20.775ZM36.75 21.8038C37.6501 22.2253 38.4907 22.7637 39.25 23.405V40.595C38.4907 41.2363 37.6501 41.7747 36.75 42.1963V21.8038ZM20.75 32C20.7535 29.1472 21.8393 26.402 23.7882 24.3185C25.737 22.2351 28.4038 20.9687 31.25 20.775V43.225C28.4038 43.0313 25.737 41.7649 23.7882 39.6815C21.8393 37.598 20.7535 34.8528 20.75 32ZM40.75 39.0625V24.9375C42.3674 26.936 43.2499 29.429 43.2499 32C43.2499 34.571 42.3674 37.064 40.75 39.0625Z" fill="#F7931A"/>
</svg>
