<svg width="616" height="320" viewBox="0 0 616 320" fill="none" xmlns="http://www.w3.org/2000/svg">
<rect x="0.5" y="0.5" width="615" height="319" rx="19.5" fill="#0D0D0D"/>
<rect x="0.5" y="0.5" width="615" height="319" rx="19.5" stroke="#494949"/>
<path d="M413.673 203.703V209.998H456.883V181.605H450.587V203.703H413.673ZM413.673 110V116.296H450.587V138.395H456.883V110H413.673ZM391.391 158.704V144.075H401.267C406.083 144.075 407.811 145.679 407.811 150.063V152.655C407.811 157.161 406.144 158.704 401.267 158.704H391.391ZM407.069 161.296C411.574 160.123 414.722 155.925 414.722 150.926C414.722 147.778 413.488 144.938 411.143 142.654C408.18 139.814 404.228 138.395 399.105 138.395H385.217V181.604H391.391V164.383H400.65C405.402 164.383 407.316 166.358 407.316 171.297V181.605H413.612V172.284C413.612 165.494 412.008 162.902 407.069 162.161V161.296ZM355.095 162.715H374.108V157.037H355.095V144.073H375.959V138.395H348.798V181.604H376.885V175.925H355.095V162.715ZM334.416 165V167.962C334.416 174.197 332.131 176.234 326.391 176.234H325.034C319.292 176.234 316.515 174.382 316.515 165.802V154.197C316.515 145.555 319.416 143.764 325.156 143.764H326.39C332.008 143.764 333.798 145.863 333.859 151.666H340.649C340.032 143.147 334.353 137.778 325.834 137.778C321.699 137.778 318.242 139.074 315.65 141.543C311.761 145.185 309.601 151.358 309.601 159.999C309.601 168.333 311.453 174.506 315.28 178.332C317.872 180.863 321.452 182.221 324.971 182.221C328.674 182.221 332.07 180.739 333.798 177.53H334.661V181.604H340.34V159.321H323.612V165H334.416ZM279.973 144.073H286.702C293.061 144.073 296.518 145.678 296.518 154.321V165.678C296.518 174.319 293.061 175.925 286.702 175.925H279.973V144.073ZM287.257 181.605C299.048 181.605 303.429 172.655 303.429 160.001C303.429 147.161 298.738 138.396 287.133 138.396H273.799V181.605H287.257ZM243.987 162.715H262.999V157.037H243.987V144.073H264.85V138.395H237.689V181.604H265.777V175.925H243.987V162.715ZM207.568 138.395H201.272V181.604H229.667V175.925H207.568V138.395ZM158 181.605V210H201.209V203.703H164.296V181.605H158ZM158 110V138.395H164.296V116.296H201.209V110H158Z" fill="white"/>
</svg>
