<svg width="64" height="64" viewBox="0 0 64 64" fill="none" xmlns="http://www.w3.org/2000/svg">
<rect width="64" height="64" rx="32" fill="#2B2B2B"/>
<path d="M35 28.25H29C28.8011 28.25 28.6103 28.329 28.4697 28.4697C28.329 28.6103 28.25 28.8011 28.25 29V35C28.25 35.1989 28.329 35.3897 28.4697 35.5303C28.6103 35.671 28.8011 35.75 29 35.75H35C35.1989 35.75 35.3897 35.671 35.5303 35.5303C35.671 35.3897 35.75 35.1989 35.75 35V29C35.75 28.8011 35.671 28.6103 35.5303 28.4697C35.3897 28.329 35.1989 28.25 35 28.25ZM34.25 34.25H29.75V29.75H34.25V34.25ZM45 34.25H42.75V29.75H45C45.1989 29.75 45.3897 29.671 45.5303 29.5303C45.671 29.3897 45.75 29.1989 45.75 29C45.75 28.8011 45.671 28.6103 45.5303 28.4697C45.3897 28.329 45.1989 28.25 45 28.25H42.75V23C42.75 22.5359 42.5656 22.0908 42.2374 21.7626C41.9092 21.4344 41.4641 21.25 41 21.25H35.75V19C35.75 18.8011 35.671 18.6103 35.5303 18.4697C35.3897 18.329 35.1989 18.25 35 18.25C34.8011 18.25 34.6103 18.329 34.4697 18.4697C34.329 18.6103 34.25 18.8011 34.25 19V21.25H29.75V19C29.75 18.8011 29.671 18.6103 29.5303 18.4697C29.3897 18.329 29.1989 18.25 29 18.25C28.8011 18.25 28.6103 18.329 28.4697 18.4697C28.329 18.6103 28.25 18.8011 28.25 19V21.25H23C22.5359 21.25 22.0908 21.4344 21.7626 21.7626C21.4344 22.0908 21.25 22.5359 21.25 23V28.25H19C18.8011 28.25 18.6103 28.329 18.4697 28.4697C18.329 28.6103 18.25 28.8011 18.25 29C18.25 29.1989 18.329 29.3897 18.4697 29.5303C18.6103 29.671 18.8011 29.75 19 29.75H21.25V34.25H19C18.8011 34.25 18.6103 34.329 18.4697 34.4697C18.329 34.6103 18.25 34.8011 18.25 35C18.25 35.1989 18.329 35.3897 18.4697 35.5303C18.6103 35.671 18.8011 35.75 19 35.75H21.25V41C21.25 41.4641 21.4344 41.9092 21.7626 42.2374C22.0908 42.5656 22.5359 42.75 23 42.75H28.25V45C28.25 45.1989 28.329 45.3897 28.4697 45.5303C28.6103 45.671 28.8011 45.75 29 45.75C29.1989 45.75 29.3897 45.671 29.5303 45.5303C29.671 45.3897 29.75 45.1989 29.75 45V42.75H34.25V45C34.25 45.1989 34.329 45.3897 34.4697 45.5303C34.6103 45.671 34.8011 45.75 35 45.75C35.1989 45.75 35.3897 45.671 35.5303 45.5303C35.671 45.3897 35.75 45.1989 35.75 45V42.75H41C41.4641 42.75 41.9092 42.5656 42.2374 42.2374C42.5656 41.9092 42.75 41.4641 42.75 41V35.75H45C45.1989 35.75 45.3897 35.671 45.5303 35.5303C45.671 35.3897 45.75 35.1989 45.75 35C45.75 34.8011 45.671 34.6103 45.5303 34.4697C45.3897 34.329 45.1989 34.25 45 34.25ZM41.25 41C41.25 41.0663 41.2237 41.1299 41.1768 41.1768C41.1299 41.2237 41.0663 41.25 41 41.25H23C22.9337 41.25 22.8701 41.2237 22.8232 41.1768C22.7763 41.1299 22.75 41.0663 22.75 41V23C22.75 22.9337 22.7763 22.8701 22.8232 22.8232C22.8701 22.7763 22.9337 22.75 23 22.75H41C41.0663 22.75 41.1299 22.7763 41.1768 22.8232C41.2237 22.8701 41.25 22.9337 41.25 23V41Z" fill="#F7931A"/>
</svg>
