<svg width="64" height="64" viewBox="0 0 64 64" fill="none" xmlns="http://www.w3.org/2000/svg">
<rect width="64" height="64" rx="32" fill="#2B2B2B"/>
<path d="M47.4163 31.375L41.4163 27.375C41.3032 27.2996 41.1718 27.2563 41.0361 27.2498C40.9004 27.2432 40.7655 27.2737 40.6457 27.3378C40.526 27.402 40.4259 27.4975 40.3562 27.6141C40.2865 27.7308 40.2498 27.8641 40.25 28V31.25H24.75V25C24.75 24.9337 24.7763 24.8701 24.8232 24.8232C24.8701 24.7763 24.9337 24.75 25 24.75H29.325C29.5109 25.6605 30.0282 26.4696 30.7767 27.0204C31.5252 27.5712 32.4515 27.8244 33.3761 27.731C34.3007 27.6376 35.1577 27.2042 35.781 26.5149C36.4042 25.8255 36.7492 24.9293 36.7492 24C36.7492 23.0707 36.4042 22.1745 35.781 21.4851C35.1577 20.7958 34.3007 20.3624 33.3761 20.269C32.4515 20.1756 31.5252 20.4288 30.7767 20.9796C30.0282 21.5304 29.5109 22.3395 29.325 23.25H25C24.5359 23.25 24.0908 23.4344 23.7626 23.7626C23.4344 24.0908 23.25 24.5359 23.25 25V31.25H17C16.8011 31.25 16.6103 31.329 16.4697 31.4697C16.329 31.6103 16.25 31.8011 16.25 32C16.25 32.1989 16.329 32.3897 16.4697 32.5303C16.6103 32.671 16.8011 32.75 17 32.75H23.25V39C23.25 39.4641 23.4344 39.9093 23.7626 40.2374C24.0908 40.5656 24.5359 40.75 25 40.75H29.25V42C29.25 42.4641 29.4344 42.9093 29.7626 43.2374C30.0908 43.5656 30.5359 43.75 31 43.75H35C35.4641 43.75 35.9092 43.5656 36.2374 43.2374C36.5656 42.9093 36.75 42.4641 36.75 42V38C36.75 37.5359 36.5656 37.0908 36.2374 36.7626C35.9092 36.4344 35.4641 36.25 35 36.25H31C30.5359 36.25 30.0908 36.4344 29.7626 36.7626C29.4344 37.0908 29.25 37.5359 29.25 38V39.25H25C24.9337 39.25 24.8701 39.2237 24.8232 39.1768C24.7763 39.1299 24.75 39.0663 24.75 39V32.75H40.25V36C40.2498 36.1359 40.2865 36.2692 40.3562 36.3859C40.4259 36.5025 40.526 36.598 40.6457 36.6622C40.7655 36.7264 40.9004 36.7568 41.0361 36.7502C41.1718 36.7437 41.3032 36.7004 41.4163 36.625L47.4163 32.625C47.5194 32.5566 47.604 32.4637 47.6625 32.3547C47.721 32.2456 47.7517 32.1238 47.7517 32C47.7517 31.8762 47.721 31.7544 47.6625 31.6453C47.604 31.5363 47.5194 31.4434 47.4163 31.375ZM33 21.75C33.445 21.75 33.88 21.882 34.25 22.1292C34.62 22.3764 34.9084 22.7278 35.0787 23.139C35.249 23.5501 35.2936 24.0025 35.2068 24.439C35.1199 24.8754 34.9057 25.2763 34.591 25.591C34.2763 25.9057 33.8754 26.12 33.439 26.2068C33.0025 26.2936 32.5501 26.249 32.139 26.0787C31.7278 25.9084 31.3764 25.6201 31.1292 25.25C30.882 24.88 30.75 24.445 30.75 24C30.75 23.4033 30.9871 22.831 31.409 22.409C31.831 21.9871 32.4033 21.75 33 21.75ZM30.75 38C30.75 37.9337 30.7763 37.8701 30.8232 37.8232C30.8701 37.7763 30.9337 37.75 31 37.75H35C35.0663 37.75 35.1299 37.7763 35.1768 37.8232C35.2237 37.8701 35.25 37.9337 35.25 38V42C35.25 42.0663 35.2237 42.1299 35.1768 42.1768C35.1299 42.2237 35.0663 42.25 35 42.25H31C30.9337 42.25 30.8701 42.2237 30.8232 42.1768C30.7763 42.1299 30.75 42.0663 30.75 42V38ZM41.75 34.5988V29.4013L45.6475 32L41.75 34.5988Z" fill="#F7931A"/>
</svg>
