<svg width="64" height="64" viewBox="0 0 64 64" fill="none" xmlns="http://www.w3.org/2000/svg">
<rect width="64" height="64" rx="32" fill="#2B2B2B"/>
<path d="M42.53 26.47L35.53 19.47C35.3895 19.3293 35.1988 19.2502 35 19.25H23C22.5359 19.25 22.0908 19.4344 21.7626 19.7626C21.4344 20.0908 21.25 20.5359 21.25 21V43C21.25 43.4641 21.4344 43.9092 21.7626 44.2374C22.0908 44.5656 22.5359 44.75 23 44.75H41C41.4641 44.75 41.9092 44.5656 42.2374 44.2374C42.5656 43.9092 42.75 43.4641 42.75 43V27C42.7498 26.8012 42.6707 26.6105 42.53 26.47ZM35.75 21.81L40.19 26.25H35.75V21.81ZM41 43.25H23C22.9337 43.25 22.8701 43.2237 22.8232 43.1768C22.7763 43.1299 22.75 43.0663 22.75 43V21C22.75 20.9337 22.7763 20.8701 22.8232 20.8232C22.8701 20.7763 22.9337 20.75 23 20.75H34.25V27C34.25 27.1989 34.329 27.3897 34.4697 27.5303C34.6103 27.671 34.8011 27.75 35 27.75H41.25V43C41.25 43.0663 41.2237 43.1299 41.1768 43.1768C41.1299 43.2237 41.0663 43.25 41 43.25ZM36.75 33C36.75 33.1989 36.671 33.3897 36.5303 33.5303C36.3897 33.671 36.1989 33.75 36 33.75H28C27.8011 33.75 27.6103 33.671 27.4697 33.5303C27.329 33.3897 27.25 33.1989 27.25 33C27.25 32.8011 27.329 32.6103 27.4697 32.4697C27.6103 32.329 27.8011 32.25 28 32.25H36C36.1989 32.25 36.3897 32.329 36.5303 32.4697C36.671 32.6103 36.75 32.8011 36.75 33ZM36.75 37C36.75 37.1989 36.671 37.3897 36.5303 37.5303C36.3897 37.671 36.1989 37.75 36 37.75H28C27.8011 37.75 27.6103 37.671 27.4697 37.5303C27.329 37.3897 27.25 37.1989 27.25 37C27.25 36.8011 27.329 36.6103 27.4697 36.4697C27.6103 36.329 27.8011 36.25 28 36.25H36C36.1989 36.25 36.3897 36.329 36.5303 36.4697C36.671 36.6103 36.75 36.8011 36.75 37Z" fill="#F7931A"/>
</svg>
