<svg width="64" height="64" viewBox="0 0 64 64" fill="none" xmlns="http://www.w3.org/2000/svg">
<rect width="64" height="64" rx="32" fill="#2B2B2B"/>
<path d="M42.53 37.4698C42.6705 37.6105 42.7493 37.8011 42.7493 37.9998C42.7493 38.1986 42.6705 38.3892 42.53 38.5298L38.53 42.5298C38.3878 42.6623 38.1998 42.7344 38.0055 42.731C37.8112 42.7276 37.6258 42.6489 37.4884 42.5115C37.351 42.3741 37.2723 42.1887 37.2688 41.9944C37.2654 41.8001 37.3375 41.612 37.47 41.4698L40.1887 38.7498H22C21.8011 38.7498 21.6103 38.6708 21.4697 38.5302C21.329 38.3895 21.25 38.1988 21.25 37.9998C21.25 37.8009 21.329 37.6102 21.4697 37.4695C21.6103 37.3289 21.8011 37.2498 22 37.2498H40.1887L37.47 34.5298C37.3375 34.3877 37.2654 34.1996 37.2688 34.0053C37.2723 33.811 37.351 33.6256 37.4884 33.4882C37.6258 33.3508 37.8112 33.2721 38.0055 33.2687C38.1998 33.2652 38.3878 33.3374 38.53 33.4698L42.53 37.4698ZM25.47 30.5298C25.6122 30.6623 25.8002 30.7345 25.9945 30.731C26.1888 30.7276 26.3742 30.6489 26.5116 30.5115C26.649 30.3741 26.7277 30.1887 26.7312 29.9944C26.7346 29.8001 26.6625 29.612 26.53 29.4698L23.8113 26.7498H42C42.1989 26.7498 42.3897 26.6708 42.5303 26.5302C42.671 26.3895 42.75 26.1988 42.75 25.9998C42.75 25.8009 42.671 25.6102 42.5303 25.4695C42.3897 25.3289 42.1989 25.2498 42 25.2498H23.8113L26.53 22.5298C26.6625 22.3877 26.7346 22.1996 26.7312 22.0053C26.7277 21.811 26.649 21.6256 26.5116 21.4882C26.3742 21.3508 26.1888 21.2721 25.9945 21.2687C25.8002 21.2652 25.6122 21.3374 25.47 21.4698L21.47 25.4698C21.3295 25.6105 21.2507 25.8011 21.2507 25.9998C21.2507 26.1986 21.3295 26.3892 21.47 26.5298L25.47 30.5298Z" fill="#F7931A"/>
</svg>
