<svg width="32" height="32" viewBox="0 0 32 32" fill="none" xmlns="http://www.w3.org/2000/svg">
<path d="M16.0005 3C13.4293 3 10.9159 3.76244 8.77808 5.1909C6.64024 6.61935 4.974 8.64968 3.99006 11.0251C3.00612 13.4006 2.74868 16.0144 3.25029 18.5362C3.75189 21.0579 4.99002 23.3743 6.80811 25.1924C8.62619 27.0105 10.9426 28.2486 13.4643 28.7502C15.9861 29.2518 18.5999 28.9944 20.9754 28.0104C23.3508 27.0265 25.3811 25.3603 26.8096 23.2224C28.2381 21.0846 29.0005 18.5712 29.0005 16C28.9969 12.5533 27.626 9.24882 25.1889 6.81163C22.7517 4.37445 19.4472 3.00364 16.0005 3ZM16.0005 27C13.8249 27 11.6982 26.3549 9.88922 25.1462C8.08028 23.9375 6.67038 22.2195 5.83782 20.2095C5.00526 18.1995 4.78742 15.9878 5.21186 13.854C5.63629 11.7202 6.68394 9.7602 8.22232 8.22183C9.7607 6.68345 11.7207 5.6358 13.8545 5.21136C15.9883 4.78692 18.2 5.00476 20.21 5.83733C22.22 6.66989 23.938 8.07979 25.1467 9.88873C26.3554 11.6977 27.0005 13.8244 27.0005 16C26.9972 18.9164 25.8372 21.7123 23.775 23.7745C21.7128 25.8367 18.9169 26.9967 16.0005 27Z" fill="#AAAAAA"/>
</svg>
