<svg width="185" height="77" viewBox="0 0 185 77" fill="none" xmlns="http://www.w3.org/2000/svg">
<path d="M68.0312 0.683594C72.2098 0.683594 76.3883 0.683594 80.6935 0.683594C80.6935 1.58706 80.6935 2.49053 80.6935 3.42137C77.4184 3.42137 74.1433 3.42137 70.769 3.42137C70.769 15.5052 70.769 27.5891 70.769 40.0392C74.0441 40.0392 77.3192 40.0392 80.6935 40.0392C80.6935 40.9426 80.6935 41.8461 80.6935 42.7769C76.5149 42.7769 72.3364 42.7769 68.0312 42.7769C68.0312 28.8861 68.0312 14.9953 68.0312 0.683594Z" fill="white"/>
<path d="M97.8047 0.683594C101.87 0.683594 105.936 0.683594 110.125 0.683594C110.125 14.5744 110.125 28.4652 110.125 42.7769C106.059 42.7769 101.993 42.7769 97.8047 42.7769C97.8047 41.8735 97.8047 40.97 97.8047 40.0392C100.967 40.0392 104.129 40.0392 107.387 40.0392C107.387 27.9553 107.387 15.8714 107.387 3.42137C104.225 3.42137 101.063 3.42137 97.8047 3.42137C97.8047 2.5179 97.8047 1.61444 97.8047 0.683594Z" fill="white"/>
<path d="M95.0664 5.81836C98.4544 5.81836 101.842 5.81836 105.333 5.81836C105.333 16.4341 105.333 27.0498 105.333 37.9872C101.945 37.9872 98.5571 37.9872 95.0664 37.9872C95.0664 37.0838 95.0664 36.1803 95.0664 35.2495C97.5509 35.2495 100.035 35.2495 102.595 35.2495C102.595 26.3277 102.595 17.406 102.595 8.21391C100.111 8.21391 97.6262 8.21391 95.0664 8.21391C95.0664 7.42338 95.0664 6.63285 95.0664 5.81836Z" fill="white"/>
<path d="M73.1641 5.81836C76.4391 5.81836 79.7142 5.81836 83.0885 5.81836C83.0885 6.60889 83.0885 7.39943 83.0885 8.21391C80.604 8.21391 78.1194 8.21391 75.5596 8.21391C75.5596 17.1356 75.5596 26.0574 75.5596 35.2495C78.0442 35.2495 80.5287 35.2495 83.0885 35.2495C83.0885 36.1529 83.0885 37.0564 83.0885 37.9872C79.8134 37.9872 76.5384 37.9872 73.1641 37.9872C73.1641 27.3715 73.1641 16.7558 73.1641 5.81836Z" fill="white"/>
<path d="M77.9551 10.6094C80.4396 10.6094 82.9241 10.6094 85.484 10.6094C85.484 11.5128 85.484 12.4163 85.484 13.3472C83.9029 13.3472 82.3218 13.3472 80.6929 13.3472C80.6929 18.9938 80.6929 24.6405 80.6929 30.4583C82.2739 30.4583 83.855 30.4583 85.484 30.4583C85.484 31.2488 85.484 32.0393 85.484 32.8538C82.9994 32.8538 80.5149 32.8538 77.9551 32.8538C77.9551 25.5132 77.9551 18.1725 77.9551 10.6094Z" fill="white"/>
<path d="M92.6709 10.6094C95.1554 10.6094 97.64 10.6094 100.2 10.6094C100.2 17.95 100.2 25.2907 100.2 32.8538C97.7153 32.8538 95.2307 32.8538 92.6709 32.8538C92.6709 32.0633 92.6709 31.2728 92.6709 30.4583C94.3649 30.4583 96.0589 30.4583 97.8042 30.4583C97.8042 24.8116 97.8042 19.1649 97.8042 13.3472C96.1102 13.3472 94.4162 13.3472 92.6709 13.3472C92.6709 12.4437 92.6709 11.5402 92.6709 10.6094Z" fill="white"/>
<path d="M69.6785 63.8891C70.1114 63.8968 70.5444 63.9045 70.9905 63.9125C72.0579 63.9326 73.1245 63.9607 74.1915 63.996C74.1915 64.6736 74.1915 65.3512 74.1915 66.0494C71.3682 66.0494 68.5448 66.0494 65.636 66.0494C65.636 66.727 65.636 67.4046 65.636 68.1027C65.8343 68.0973 66.0327 68.0919 66.2371 68.0864C67.1418 68.065 68.0464 68.0517 68.9512 68.0385C69.4194 68.0256 69.4194 68.0256 69.897 68.0125C72.8257 67.9805 72.8257 67.9805 74.1915 69.1294C74.7398 70.2259 74.7024 71.3618 74.5337 72.5516C73.8067 73.7299 73.4562 74.1656 72.1382 74.6049C71.4565 74.6333 70.7738 74.6417 70.0915 74.6383C69.6934 74.6372 69.2953 74.6361 68.8851 74.635C68.4693 74.6321 68.0535 74.6293 67.6251 74.6263C67.2054 74.6248 66.7856 74.6232 66.3532 74.6216C65.3156 74.6176 64.278 74.612 63.2404 74.6049C63.2404 73.8144 63.2404 73.0238 63.2404 72.2094C66.1767 72.0964 69.1129 71.9835 72.1382 71.8671C72.1382 71.4154 72.1382 70.9637 72.1382 70.4982C71.7173 70.4855 71.2965 70.4727 70.8629 70.4595C70.3041 70.437 69.7453 70.4143 69.1865 70.3913C68.9099 70.3836 68.6333 70.3759 68.3483 70.3679C66.6435 70.2917 65.3949 70.0815 63.9248 69.1294C63.0692 67.8459 63.057 67.2271 63.2404 65.7071C64.7254 63.2914 67.1065 63.8026 69.6785 63.8891Z" fill="white"/>
<path d="M1.98242 63.9957C3.47879 63.9816 4.97516 63.9674 6.51687 63.9529C6.9868 63.9467 7.45673 63.9404 7.9409 63.934C8.31267 63.9323 8.68445 63.9306 9.06749 63.9288C9.44743 63.9252 9.82736 63.9217 10.2188 63.918C11.2184 63.9954 11.7645 64.1282 12.5913 64.6801C13.649 66.1754 13.7392 67.3355 13.4789 69.0862C13.191 70.1167 12.6552 70.7762 11.9069 71.5246C12.0798 71.6895 12.2527 71.8545 12.4309 72.0245C12.6532 72.2407 12.8756 72.4568 13.1046 72.6796C13.4382 73.0012 13.4382 73.0012 13.7784 73.3292C14.3024 73.9201 14.3024 73.9201 14.3024 74.6046C12.5755 74.8469 12.5755 74.8469 11.5646 74.6046C10.9938 74.007 10.9938 74.007 10.4524 73.2571C9.68968 72.249 9.35405 71.9117 8.10633 71.6088C7.08507 71.5334 6.08583 71.4977 5.06242 71.5246C5.06242 70.9599 5.06242 70.3952 5.06242 69.8134C5.42107 69.8007 5.77972 69.7879 6.14924 69.7747C6.62115 69.7522 7.09304 69.7295 7.56492 69.7065C7.80116 69.6988 8.03739 69.6911 8.28078 69.6831C9.29486 69.6292 10.0311 69.585 10.8789 68.9993C11.3119 68.425 11.3119 68.425 11.1369 67.5462C10.9564 66.757 10.9564 66.757 10.538 66.3912C10.0543 66.3378 9.56827 66.3055 9.0822 66.2829C8.81903 66.2699 8.55585 66.2569 8.28471 66.2434C7.78019 66.2213 7.78019 66.2213 7.26548 66.1987C6.19967 66.1493 5.13386 66.0999 4.03576 66.049C4.03576 68.8723 4.03576 71.6957 4.03576 74.6046C3.35816 74.6046 2.68056 74.6046 1.98242 74.6046C1.98242 71.1036 1.98242 67.6027 1.98242 63.9957Z" fill="white"/>
<path d="M50.2354 63.9963C51.7176 63.961 53.1999 63.9257 54.727 63.8893C55.1907 63.8738 55.6544 63.8582 56.1322 63.8421C59.5342 63.8029 59.5342 63.8029 60.7774 64.773C61.8712 66.1334 61.8709 66.7157 61.8709 68.4452C61.5354 69.6753 60.9614 70.5414 60.1598 71.5252C60.3327 71.6902 60.5057 71.8552 60.6838 72.0251C60.9062 72.2413 61.1285 72.4575 61.3576 72.6802C61.6911 73.0018 61.6911 73.0018 62.0313 73.3299C62.5554 73.9207 62.5554 73.9207 62.5554 74.6052C60.8284 74.8476 60.8284 74.8476 59.8176 74.6052C59.2468 74.0076 59.2468 74.0076 58.7054 73.2577C57.9426 72.2496 57.607 71.9123 56.3593 71.6094C55.338 71.534 54.3388 71.4983 53.3154 71.5252C53.3154 70.9605 53.3154 70.3958 53.3154 69.8141C53.8593 69.783 53.8593 69.783 54.4142 69.7512C54.8892 69.7224 55.3642 69.6934 55.8392 69.6643C56.1979 69.6442 56.1979 69.6442 56.5638 69.6236C57.8921 69.5599 57.8921 69.5599 59.1331 69.1296C59.4251 68.5045 59.4251 68.5045 59.4754 67.7607C59.2495 67.309 59.0236 66.8573 58.7909 66.3918C56.6452 66.2789 54.4994 66.166 52.2887 66.0496C52.2887 68.873 52.2887 71.6963 52.2887 74.6052C51.6111 74.6052 50.9335 74.6052 50.2354 74.6052C50.2354 71.1042 50.2354 67.6033 50.2354 63.9963Z" fill="white"/>
<path d="M136.134 63.9952C137.623 63.967 139.112 63.9388 140.647 63.9097C141.114 63.8972 141.58 63.8848 142.061 63.8719C142.432 63.8685 142.803 63.8651 143.185 63.8616C143.753 63.8508 143.753 63.8508 144.331 63.8398C145.611 64.0306 146.167 64.4723 147.085 65.3641C147.718 66.6294 147.59 68.0898 147.427 69.4708C146.812 70.475 146.42 71.0012 145.374 71.5241C144.903 71.5526 144.431 71.5609 143.959 71.5576C143.684 71.5565 143.408 71.5554 143.124 71.5542C142.836 71.5513 142.548 71.5485 142.251 71.5455C141.96 71.544 141.67 71.5424 141.37 71.5408C140.651 71.5368 139.933 71.5307 139.214 71.5241C139.214 70.8465 139.214 70.1689 139.214 69.4708C139.605 69.4501 139.996 69.4293 140.4 69.408C140.91 69.3791 141.42 69.3501 141.93 69.3211C142.188 69.3076 142.447 69.2942 142.713 69.2803C143.977 69.3201 143.977 69.3201 145.032 68.7864C145.089 67.7597 145.089 67.7597 145.032 66.733C144.501 66.2028 143.971 66.3167 143.234 66.2825C142.97 66.2695 142.707 66.2564 142.436 66.243C141.932 66.2209 141.932 66.2209 141.417 66.1983C140.351 66.1489 139.285 66.0995 138.187 66.0486C138.187 68.8719 138.187 71.6952 138.187 74.6041C137.51 74.6041 136.832 74.6041 136.134 74.6041C136.134 71.1032 136.134 67.6023 136.134 63.9952Z" fill="white"/>
<path d="M14.9863 63.9961C18.1485 63.9961 21.3106 63.9961 24.5686 63.9961C24.5686 64.6737 24.5686 65.3513 24.5686 66.0494C22.197 66.0494 19.8254 66.0494 17.3819 66.0494C17.3819 68.0822 17.3819 70.115 17.3819 72.2094C19.7535 72.2094 22.1251 72.2094 24.5686 72.2094C24.5686 73 24.5686 73.7905 24.5686 74.605C21.4064 74.605 18.2443 74.605 14.9863 74.605C14.9863 71.104 14.9863 67.6031 14.9863 63.9961Z" fill="white"/>
<path d="M127.92 63.6543C128.598 63.7155 128.598 63.7155 129.289 63.9965C129.888 64.8156 130.404 65.606 130.915 66.4776C131.062 66.7223 131.21 66.967 131.362 67.2191C131.665 67.7226 131.967 68.2271 132.268 68.7325C132.685 69.4275 133.111 70.1153 133.543 70.8009C133.67 71.0032 133.797 71.2056 133.928 71.4141C134.109 71.7021 134.109 71.7021 134.294 71.996C135.449 73.8357 135.449 73.8357 135.449 74.6054C134.358 74.7551 134.358 74.7551 133.054 74.6054C132.682 74.0841 132.682 74.0841 132.348 73.429C131.982 72.7329 131.982 72.7329 131.342 72.2099C129.745 71.8888 128.178 71.8522 126.551 71.8676C126.777 71.303 127.003 70.7383 127.236 70.1565C128.591 69.9871 128.591 69.9871 129.974 69.8143C129.409 68.9108 128.844 68.0074 128.262 67.0765C128.056 67.448 127.85 67.8194 127.637 68.2021C127.361 68.6968 127.084 69.1914 126.808 69.686C126.605 70.0519 126.605 70.0519 126.398 70.4252C125.999 71.1379 125.593 71.846 125.182 72.5521C125.063 72.7609 124.944 72.9697 124.82 73.1849C124.477 73.7499 124.477 73.7499 123.814 74.6054C122.53 74.7337 122.53 74.7337 121.418 74.6054C121.91 73.2715 122.537 72.0981 123.268 70.8797C123.608 70.3136 123.608 70.3136 123.954 69.7361C124.071 69.5419 124.189 69.3476 124.31 69.1475C124.67 68.5515 125.027 67.9542 125.384 67.3566C127.147 64.4278 127.147 64.4278 127.92 63.6543Z" fill="white"/>
<path d="M93.6982 63.9961C96.8604 63.9961 100.023 63.9961 103.28 63.9961C103.28 64.6737 103.28 65.3513 103.28 66.0494C100.796 66.0494 98.3114 66.0494 95.7516 66.0494C95.7516 68.0822 95.7516 70.115 95.7516 72.2094C96.5238 72.2035 96.5238 72.2035 97.3116 72.1974C97.9823 72.1942 98.6529 72.1911 99.3235 72.188C99.8334 72.1837 99.8334 72.1837 100.354 72.1793C100.677 72.1782 101 72.1771 101.333 72.176C101.782 72.1733 101.782 72.1733 102.24 72.1706C102.938 72.2094 102.938 72.2094 103.28 72.5516C103.28 73.2292 103.28 73.9068 103.28 74.605C100.118 74.605 96.9562 74.605 93.6982 74.605C93.6982 71.104 93.6982 67.6031 93.6982 63.9961Z" fill="white"/>
<path d="M166.249 63.6543C167.15 63.7466 167.524 63.8883 168.124 64.5781C168.279 64.8278 168.434 65.0774 168.594 65.3347C168.769 65.6131 168.945 65.8915 169.125 66.1784C169.396 66.6229 169.396 66.6229 169.672 67.0765C169.853 67.3681 170.034 67.6596 170.221 67.96C170.771 68.8523 171.313 69.7494 171.853 70.6485C172.04 70.9553 172.226 71.2621 172.419 71.5782C172.595 71.8709 172.771 72.1636 172.952 72.4652C173.191 72.8605 173.191 72.8605 173.434 73.2638C173.778 73.921 173.778 73.921 173.778 74.6054C172.666 74.7337 172.666 74.7337 171.383 74.6054C170.014 72.9908 170.014 72.9908 170.014 71.8676C168.32 71.8676 166.626 71.8676 164.88 71.8676C165.106 71.303 165.332 70.7383 165.565 70.1565C166.581 70.1565 167.598 70.1565 168.645 70.1565C168.08 69.2531 167.516 68.3496 166.934 67.4187C166.098 68.3933 165.398 69.3809 164.767 70.4947C164.628 70.7363 164.488 70.9778 164.345 71.2266C164.058 71.7286 163.778 72.234 163.503 72.7426C163.09 73.4452 162.725 74.0351 162.143 74.6054C160.834 74.7698 160.834 74.7698 159.747 74.6054C161.065 72.0858 162.499 69.6427 163.961 67.2049C164.145 66.8964 164.33 66.5879 164.52 66.2701C165.863 64.0407 165.863 64.0407 166.249 63.6543Z" fill="white"/>
<path d="M115.093 63.8957C115.443 63.899 115.792 63.9023 116.153 63.9057C116.694 63.9186 116.694 63.9186 117.247 63.9318C117.798 63.9387 117.798 63.9387 118.361 63.9458C119.266 63.9579 120.171 63.9747 121.075 63.9959C121.075 64.6735 121.075 65.3511 121.075 66.0493C120.778 66.0514 120.778 66.0514 120.474 66.0535C119.569 66.0648 118.665 66.089 117.76 66.1134C117.448 66.1154 117.136 66.1174 116.814 66.1194C115.233 66.1712 114.457 66.2205 113.164 67.1989C112.378 68.301 112.322 68.8291 112.52 70.1559C112.933 71.2527 112.933 71.2527 113.889 71.867C114.434 71.919 114.981 71.9523 115.528 71.9753C116.011 71.9968 116.011 71.9968 116.504 72.0188C116.841 72.0322 117.178 72.0457 117.525 72.0595C117.865 72.0743 118.204 72.0891 118.554 72.1043C119.395 72.1407 120.235 72.1756 121.075 72.2093C121.075 72.9998 121.075 73.7903 121.075 74.6048C120.041 74.6327 119.008 74.653 117.974 74.669C117.684 74.6776 117.394 74.6862 117.095 74.6951C114.961 74.7198 113.261 74.5112 111.581 73.0648C110.173 71.1998 109.85 69.7095 110.124 67.4182C110.976 65.0019 112.554 63.8531 115.093 63.8957Z" fill="white"/>
<path d="M30.5639 63.8957C30.9136 63.899 31.2632 63.9023 31.6234 63.9057C32.165 63.9186 32.165 63.9186 32.7175 63.9318C33.2691 63.9387 33.2691 63.9387 33.8318 63.9458C34.7367 63.9579 35.6414 63.9747 36.5461 63.9959C36.5461 64.6735 36.5461 65.3511 36.5461 66.0493C36.2486 66.0514 36.2486 66.0514 35.945 66.0535C35.0399 66.0648 34.1357 66.089 33.2309 66.1134C32.9188 66.1154 32.6066 66.1174 32.2851 66.1194C30.7034 66.1712 29.9272 66.221 28.6336 67.1989C27.6969 68.5154 27.8903 69.4135 28.0975 70.9473C28.1752 71.1379 28.2528 71.3285 28.3328 71.5248C29.3099 71.8505 30.0129 71.9321 31.0318 71.9753C31.3528 71.9897 31.6737 72.004 32.0044 72.0188C32.3385 72.0322 32.6727 72.0457 33.017 72.0595C33.3551 72.0743 33.6933 72.0891 34.0416 72.1043C34.8764 72.1406 35.7113 72.1755 36.5461 72.2093C36.5461 72.9998 36.5461 73.7903 36.5461 74.6048C35.5122 74.6327 34.4789 74.653 33.4448 74.669C33.1547 74.6776 32.8647 74.6862 32.5658 74.6951C30.4318 74.7198 28.7321 74.5112 27.0522 73.0648C25.6437 71.1998 25.321 69.7095 25.595 67.4182C26.4468 65.0019 28.0247 63.8531 30.5639 63.8957Z" fill="white"/>
<path d="M37.5735 63.9961C38.2511 63.9961 38.9287 63.9961 39.6268 63.9961C39.63 64.1963 39.6332 64.3964 39.6365 64.6027C39.6549 65.513 39.6836 66.4227 39.7124 67.3328C39.7172 67.6477 39.7221 67.9627 39.7271 68.2872C39.7845 70.1139 39.7845 70.1139 40.5519 71.7349C41.5122 72.3147 42.1027 72.3822 43.2202 72.3591C43.5413 72.3587 43.8625 72.3583 44.1934 72.3578C45.2622 72.1833 45.6901 71.9249 46.4713 71.1828C46.6898 70.3943 46.6898 70.3943 46.6798 69.5104C46.6909 69.1895 46.7019 68.8685 46.7132 68.5379C46.7181 68.2037 46.7229 67.8696 46.7279 67.5253C46.7432 67.0181 46.7432 67.0181 46.7587 66.5006C46.7829 65.6657 46.8009 64.8312 46.8135 63.9961C47.4911 63.9961 48.1687 63.9961 48.8668 63.9961C48.8967 65.2722 48.9149 66.5483 48.931 67.8247C48.9396 68.1858 48.9482 68.5469 48.9571 68.9189C48.9604 69.2685 48.9637 69.6181 48.9671 69.9783C48.9725 70.2991 48.9778 70.6199 48.9834 70.9504C48.8427 72.057 48.4961 72.6828 47.8402 73.5783C45.7218 74.9138 43.4392 74.8348 40.9957 74.605C39.349 74.0561 38.4612 73.3559 37.5735 71.8672C37.4044 70.516 37.4448 69.1837 37.4879 67.8247C37.4972 67.2732 37.4972 67.2732 37.5067 66.7105C37.5228 65.8054 37.5452 64.9009 37.5735 63.9961Z" fill="white"/>
<path d="M90.2754 15.4004C91.9694 15.4004 93.6634 15.4004 95.4087 15.4004C95.4087 19.5789 95.4087 23.7575 95.4087 28.0626C93.7147 28.0626 92.0207 28.0626 90.2754 28.0626C90.2754 27.1591 90.2754 26.2557 90.2754 25.3248C91.0659 25.3248 91.8565 25.3248 92.6709 25.3248C92.6709 22.9532 92.6709 20.5816 92.6709 18.1382C91.8804 18.1382 91.0899 18.1382 90.2754 18.1382C90.2754 17.2347 90.2754 16.3312 90.2754 15.4004Z" fill="white"/>
<path d="M82.7471 15.4004C84.4411 15.4004 86.1351 15.4004 87.8804 15.4004C87.8804 16.3039 87.8804 17.2073 87.8804 18.1382C87.0899 18.1382 86.2993 18.1382 85.4848 18.1382C85.4848 20.5098 85.4848 22.8814 85.4848 25.3248C86.2754 25.3248 87.0659 25.3248 87.8804 25.3248C87.8804 26.2283 87.8804 27.1318 87.8804 28.0626C86.1864 28.0626 84.4924 28.0626 82.7471 28.0626C82.7471 23.8841 82.7471 19.7055 82.7471 15.4004Z" fill="white"/>
<path d="M78.9824 63.9951C79.8859 63.9951 80.7894 63.9951 81.7202 63.9951C83.0754 66.3667 84.4306 68.7383 85.8269 71.1817C87.0517 69.3444 88.0768 67.769 89.0566 65.8559C90.0683 64.0741 90.0683 64.0741 90.9602 63.7344C91.6233 63.7384 91.6233 63.7384 92.6713 63.9951C91.9442 65.9463 90.8937 67.6842 89.836 69.4718C89.601 69.8713 89.3684 70.2722 89.1382 70.6746C88.8041 71.2585 88.4619 71.8378 88.1195 72.4169C87.8169 72.9355 87.8169 72.9355 87.5082 73.4646C86.8535 74.2617 86.8535 74.2617 85.9189 74.5481C85.6626 74.5665 85.4064 74.585 85.1424 74.6039C84.3188 73.2589 83.4966 71.913 82.6756 70.5664C82.3961 70.1084 82.1163 69.6507 81.8361 69.1931C81.4333 68.5354 81.0319 67.8768 80.6307 67.2181C80.4425 66.9116 80.4425 66.9116 80.2504 66.599C79.7255 65.7345 79.3037 64.9588 78.9824 63.9951Z" fill="white"/>
<path d="M174.462 63.9961C175.252 63.9961 176.043 63.9961 176.857 63.9961C176.857 66.7065 176.857 69.4169 176.857 72.2094C179.116 72.2094 181.375 72.2094 183.702 72.2094C183.702 73 183.702 73.7905 183.702 74.605C180.653 74.605 177.604 74.605 174.462 74.605C174.462 71.104 174.462 67.6031 174.462 63.9961Z" fill="white"/>
<path d="M151.533 63.9961C154.921 63.9961 158.309 63.9961 161.8 63.9961C161.8 64.6737 161.8 65.3513 161.8 66.0494C160.445 66.0494 159.089 66.0494 157.693 66.0494C157.693 68.8728 157.693 71.6961 157.693 74.605C157.016 74.605 156.338 74.605 155.64 74.605C155.64 71.7816 155.64 68.9583 155.64 66.0494C154.285 66.0494 152.929 66.0494 151.533 66.0494C151.533 65.3718 151.533 64.6942 151.533 63.9961Z" fill="white"/>
<path d="M148.796 63.9961C149.473 63.9961 150.151 63.9961 150.849 63.9961C150.849 67.497 150.849 70.998 150.849 74.605C150.172 74.605 149.494 74.605 148.796 74.605C148.796 71.104 148.796 67.6031 148.796 63.9961Z" fill="white"/>
<path d="M75.9023 63.9961C76.5799 63.9961 77.2575 63.9961 77.9557 63.9961C77.9557 67.497 77.9557 70.998 77.9557 74.605C77.2781 74.605 76.6005 74.605 75.9023 74.605C75.9023 71.104 75.9023 67.6031 75.9023 63.9961Z" fill="white"/>
<path d="M96.7773 68.1016C98.8101 68.1016 100.843 68.1016 102.937 68.1016C102.937 68.6662 102.937 69.2309 102.937 69.8127C102.595 70.1549 102.595 70.1549 101.289 70.1883C100.748 70.186 100.206 70.1819 99.6648 70.1763C99.3889 70.1747 99.113 70.1732 98.8287 70.1716C98.1449 70.1676 97.4611 70.1614 96.7773 70.1549C96.7773 69.4773 96.7773 68.7997 96.7773 68.1016Z" fill="white"/>
<path d="M18.0664 68.1016C20.0992 68.1016 22.132 68.1016 24.2264 68.1016C24.2264 68.7792 24.2264 69.4568 24.2264 70.1549C23.2639 70.1641 22.3014 70.1709 21.3389 70.1763C21.0643 70.1792 20.7897 70.182 20.5067 70.185C19.8073 70.1879 19.1078 70.1728 18.4086 70.1549C18.2957 70.042 18.1828 69.929 18.0664 69.8127C18.0664 69.248 18.0664 68.6833 18.0664 68.1016Z" fill="white"/>
</svg>
