<svg width="40" height="40" viewBox="0 0 40 40" fill="none" xmlns="http://www.w3.org/2000/svg">
<rect width="40" height="40" rx="20" fill="#2B2B2B"/>
<path d="M27.5438 18.1102C26.6742 17.6367 25.5055 17.2961 24.2188 17.1359V16.5625C24.2188 15.6156 23.4703 14.7578 22.1094 14.1461C20.8719 13.5883 19.2344 13.2812 17.5 13.2812C15.7656 13.2812 14.1281 13.5883 12.8906 14.1461C11.5297 14.7578 10.7812 15.6156 10.7812 16.5625V19.6875C10.7812 20.6344 11.5297 21.4922 12.8906 22.1039C13.7102 22.4727 14.7039 22.7289 15.7812 22.8641V23.4375C15.7812 24.3844 16.5297 25.2422 17.8906 25.8539C19.1281 26.4117 20.7656 26.7188 22.5 26.7188C24.2344 26.7188 25.8719 26.4117 27.1094 25.8539C28.468 25.2422 29.2188 24.3844 29.2188 23.4375V20.3125C29.2188 19.4805 28.6242 18.6984 27.5438 18.1102ZM27.0953 18.9336C27.8602 19.35 28.2812 19.8438 28.2812 20.3125C28.2812 21.4211 25.907 22.6562 22.5 22.6562C21.946 22.6566 21.3925 22.6216 20.843 22.5516C21.2761 22.4354 21.6995 22.2857 22.1094 22.1039C23.468 21.4922 24.2188 20.6344 24.2188 19.6875V18.0805C25.3438 18.2312 26.3516 18.5281 27.0953 18.9336ZM18.45 21.9984C18.1438 22.0195 17.825 22.0312 17.5 22.0312C17.0859 22.0312 16.6875 22.0125 16.3063 21.9789C16.2966 21.9781 16.287 21.9781 16.2773 21.9789C15.9977 21.9531 15.7305 21.9187 15.4688 21.8773V19.6969C16.1413 19.7954 16.8202 19.8445 17.5 19.8438C18.1798 19.8445 18.8587 19.7954 19.5312 19.6969V21.875C19.1922 21.9289 18.8352 21.9703 18.4617 21.9969L18.45 21.9984ZM23.2812 18.2727V19.6875C23.2812 20.4328 22.207 21.2344 20.4688 21.6805V19.5195C21.0317 19.3924 21.5811 19.2114 22.1094 18.9789C22.5296 18.7964 22.9236 18.5589 23.2812 18.2727ZM17.5 14.2188C20.907 14.2188 23.2812 15.4539 23.2812 16.5625C23.2812 17.6711 20.907 18.9062 17.5 18.9062C14.093 18.9062 11.7188 17.6711 11.7188 16.5625C11.7188 15.4539 14.093 14.2188 17.5 14.2188ZM11.7188 19.6875V18.2727C12.0766 18.5578 12.4706 18.7943 12.8906 18.9758C13.4189 19.2083 13.9683 19.3893 14.5312 19.5164V21.6773C12.793 21.2344 11.7188 20.4328 11.7188 19.6875ZM16.7188 23.4375V22.9469C16.9766 22.9609 17.2367 22.9688 17.5 22.9688C17.8078 22.9688 18.1115 22.9591 18.4109 22.9398C18.7774 23.0721 19.1515 23.1819 19.5312 23.2687V25.4305C17.793 24.9844 16.7188 24.1828 16.7188 23.4375ZM20.4688 25.625V23.4453C21.1413 23.5444 21.8202 23.594 22.5 23.5938C23.1798 23.5945 23.8587 23.5454 24.5312 23.4469V25.625C23.1851 25.8333 21.8149 25.8333 20.4688 25.625ZM25.4688 25.4305V23.2695C26.0317 23.1424 26.5811 22.9614 27.1094 22.7289C27.5294 22.5474 27.9234 22.311 28.2812 22.0258V23.4375C28.2812 24.1828 27.207 24.9844 25.4688 25.4305Z" fill="white"/>
</svg>
