<svg width="40" height="40" viewBox="0 0 40 40" fill="none" xmlns="http://www.w3.org/2000/svg">
<rect width="40" height="40" rx="20" fill="#2B2B2B"/>
<path d="M26.1469 15.1273C24.5492 14.3289 22.4219 13.9062 20 13.9062C17.5781 13.9062 15.4508 14.3289 13.8531 15.1273C12.2977 15.9047 11.4062 16.9977 11.4062 18.125V21.875C11.4062 23.0023 12.2977 24.0953 13.8531 24.8727C15.4508 25.6711 17.5781 26.0938 20 26.0938C22.4219 26.0938 24.5492 25.6711 26.1469 24.8727C27.7023 24.0953 28.5938 23.0023 28.5938 21.875V18.125C28.5938 16.9977 27.7023 15.9047 26.1469 15.1273ZM14.2719 15.9664C15.7195 15.2422 17.7539 14.8438 20 14.8438C22.2461 14.8438 24.2805 15.2422 25.7281 15.9664C26.9531 16.5789 27.6562 17.3656 27.6562 18.125C27.6562 18.8844 26.9531 19.6711 25.7281 20.2836C24.2805 21.0078 22.2461 21.4062 20 21.4062C17.7539 21.4062 15.7195 21.0078 14.2719 20.2836C13.0469 19.6711 12.3438 18.8844 12.3438 18.125C12.3438 17.3656 13.0469 16.5789 14.2719 15.9664ZM19.5312 22.3383V25.1508C18.0281 25.1133 16.6352 24.8945 15.4688 24.5172V21.7516C16.6617 22.1039 18.0352 22.3039 19.5312 22.3383ZM20.4688 22.3383C21.9648 22.3039 23.3383 22.1039 24.5312 21.7508V24.5164C23.3648 24.8938 21.9719 25.1125 20.4688 25.15V22.3383ZM12.3438 21.875V20.0781C12.7897 20.5022 13.2989 20.8543 13.8531 21.1219C14.0698 21.2297 14.2958 21.3307 14.5312 21.425V24.1594C14.443 24.1188 14.3563 24.0813 14.2719 24.0359C13.0469 23.4211 12.3438 22.6344 12.3438 21.875ZM25.7281 24.0336C25.6438 24.0758 25.557 24.1164 25.4688 24.157V21.4227C25.7036 21.3284 25.9297 21.2273 26.1469 21.1195C26.7009 20.8527 27.2101 20.5013 27.6562 20.0781V21.875C27.6562 22.6344 26.9531 23.4211 25.7281 24.0336Z" fill="white"/>
</svg>
