<svg width="64" height="64" viewBox="0 0 64 64" fill="none" xmlns="http://www.w3.org/2000/svg">
<rect width="64" height="64" rx="32" fill="#2B2B2B"/>
<path d="M44.6475 37.6249C44.7475 37.7967 44.7752 38.0011 44.7246 38.1933C44.674 38.3855 44.5491 38.5497 44.3775 38.6499L32.3775 45.6499C32.2635 45.7158 32.1342 45.7504 32.0025 45.7504C31.8708 45.7504 31.7415 45.7158 31.6275 45.6499L19.6275 38.6499C19.4699 38.5437 19.3586 38.3816 19.3159 38.1964C19.2733 38.0112 19.3025 37.8167 19.3978 37.6522C19.493 37.4877 19.6472 37.3656 19.829 37.3104C20.0109 37.2552 20.2069 37.2711 20.3775 37.3549L32.0025 44.1337L43.6275 37.3549C43.7988 37.2565 44.002 37.2297 44.193 37.2802C44.384 37.3308 44.5473 37.4547 44.6475 37.6249ZM43.625 31.3524L32 38.1312L20.375 31.3524C20.2044 31.2686 20.0084 31.2527 19.8265 31.3079C19.6447 31.3631 19.4905 31.4852 19.3953 31.6497C19.3 31.8142 19.2708 32.0087 19.3134 32.1939C19.3561 32.3791 19.4674 32.5412 19.625 32.6474L31.625 39.6474C31.739 39.7133 31.8683 39.7479 32 39.7479C32.1317 39.7479 32.261 39.7133 32.375 39.6474L44.375 32.6474C44.5326 32.5412 44.6439 32.3791 44.6866 32.1939C44.7292 32.0087 44.7 31.8142 44.6047 31.6497C44.5095 31.4852 44.3553 31.3631 44.1735 31.3079C43.9916 31.2527 43.7956 31.2686 43.625 31.3524ZM19.25 25.9999C19.2504 25.8686 19.2852 25.7397 19.351 25.6261C19.4168 25.5124 19.5113 25.4181 19.625 25.3524L31.625 18.3524C31.739 18.2866 31.8683 18.252 32 18.252C32.1317 18.252 32.261 18.2866 32.375 18.3524L44.375 25.3524C44.4881 25.4185 44.5819 25.5131 44.647 25.6267C44.7122 25.7403 44.7465 25.869 44.7465 25.9999C44.7465 26.1309 44.7122 26.2596 44.647 26.3732C44.5819 26.4868 44.4881 26.5813 44.375 26.6474L32.375 33.6474C32.261 33.7133 32.1317 33.7479 32 33.7479C31.8683 33.7479 31.739 33.7133 31.625 33.6474L19.625 26.6474C19.5113 26.5818 19.4168 26.4874 19.351 26.3738C19.2852 26.2602 19.2504 26.1312 19.25 25.9999ZM21.4887 25.9999L32 32.1312L42.5112 25.9999L32 19.8749L21.4887 25.9999Z" fill="#F7931A"/>
</svg>
