<svg width="132" height="56" viewBox="0 0 132 56" fill="none" xmlns="http://www.w3.org/2000/svg">
<g clip-path="url(#clip0_1629_9582)">
<path d="M59.4461 0.0644833C80.0741 0.0644833 100.626 0.142304 121.177 0.0173282C127.39 -0.0204436 130.814 4.4385 131.678 8.52251C131.883 9.49414 131.99 10.5041 131.992 11.4968C132.013 22.5065 132.007 33.5162 132.004 44.526C132.003 47.6943 131.057 50.5309 128.866 52.8978C126.99 54.9252 124.651 55.9565 121.849 55.9526C116.769 55.9457 111.688 55.9507 106.607 55.9507C74.6741 55.9507 42.7411 55.8952 10.8087 55.9971C4.35468 56.0177 0.834373 51.1711 0.159285 46.7526C0.0539163 46.0629 -0.00268493 45.3592 -0.00330591 44.6619C-0.0132023 33.552 -0.0104625 22.4422 -0.010195 11.3324C-0.0101299 8.68168 0.708593 6.24245 2.30134 4.09614C4.2696 1.44381 6.89582 0.0523738 10.2894 0.0562041C26.6495 0.0746684 43.0097 0.0644925 59.4461 0.0644833ZM45.5225 13.795C44.8347 13.0976 44.2102 12.3231 43.4485 11.7157C39.6029 8.64936 34.9973 7.59773 30.2322 7.11553C27.1591 6.80457 24.1108 7.23969 21.1204 7.96781C17.6195 8.82024 14.4024 10.2297 11.8121 12.7987C10.5429 14.0575 9.71086 15.5769 9.37229 17.292C9.0483 18.9332 9.64778 20.4496 10.4972 21.8445C11.695 23.8117 13.448 25.2227 15.4892 26.2381C22.9284 29.9386 30.5914 30.1208 38.3746 27.4356C40.8932 26.5666 43.148 25.2199 44.9523 23.2338C46.3271 21.7206 47.2352 19.9486 47.1906 17.9171C47.1584 16.452 46.4923 15.0857 45.5225 13.795ZM60.6243 36.148C59.6085 34.4215 58.6003 32.6905 57.5668 30.9744C57.4448 30.7718 57.193 30.5274 56.9861 30.5129C56.2099 30.4583 55.4274 30.491 54.6262 30.491C54.6262 35.1767 54.6262 39.7878 54.6262 44.3822C55.5425 44.3822 56.414 44.3822 57.2287 44.3822C57.2287 41.3472 57.2287 38.3706 57.2287 35.2662C58.3729 37.2491 59.4871 39.1144 60.5261 41.0195C60.8453 41.6048 61.2923 41.5203 61.7864 41.5555C62.269 41.5898 62.5581 41.4548 62.8054 41.0097C63.8576 39.1159 64.9559 37.2471 66.0872 35.2828C66.0872 38.3946 66.0872 41.3924 66.0872 44.3865C66.9656 44.3865 67.8369 44.3865 68.6906 44.3865C68.6906 39.7397 68.6906 35.1468 68.6906 30.4909C68.0746 30.4909 67.491 30.5389 66.9192 30.4784C66.2466 30.4072 65.8913 30.654 65.5619 31.2405C64.3131 33.4651 62.9958 35.6522 61.6639 37.9219C61.3061 37.3171 60.9895 36.7821 60.6243 36.148ZM63.7759 17.9751C64.0191 15.863 63.2712 14.4399 61.386 13.4859C60.9386 13.2595 60.456 13.1002 59.9886 12.9125C59.2412 12.6124 58.4751 12.3505 57.7506 12.0041C57.1771 11.7299 56.7457 11.2727 56.8669 10.5761C56.991 9.86248 57.5469 9.57148 58.2079 9.43001C59.5143 9.1504 60.4206 9.65859 60.9795 10.8731C61.8033 10.5283 62.5795 10.2035 63.3511 9.88056C62.443 7.39012 60.2123 6.55431 57.621 6.98353C55.7958 7.28584 54.4972 8.57688 54.2599 10.1177C53.9829 11.9163 54.7478 13.3514 56.5539 14.2674C57.2702 14.6306 58.068 14.8352 58.799 15.1741C59.4332 15.4682 60.0995 15.7665 60.619 16.2127C61.4036 16.8866 61.2149 18.037 60.3335 18.568C59.2833 19.2006 57.7915 18.9824 57.0276 18.0241C56.6758 17.5827 56.4407 17.0512 56.1195 16.5041C55.3182 16.8198 54.4876 17.147 53.6631 17.4718C54.5422 20.2313 56.6743 21.663 59.5022 21.4524C61.6763 21.2905 63.3315 19.9835 63.7759 17.9751ZM41.6034 38.0735C38.1468 39.7751 34.4672 40.685 30.6284 40.8912C23.0022 41.3008 15.9011 39.9326 10.0085 34.6956C9.97845 34.7267 9.91906 34.7602 9.91923 34.7933C9.91973 34.8899 9.91625 35.0026 9.96307 35.0806C10.9804 36.7755 12.263 38.222 13.9219 39.3527C17.7413 41.9562 22.1143 42.8823 26.606 43.3136C28.3167 43.4779 30.0824 43.2303 31.8099 43.0489C34.9905 42.7149 38.0378 41.8804 40.8643 40.368C43.0855 39.1795 45.0135 37.6684 46.245 35.4296C46.3795 35.1851 46.4801 34.9225 46.5207 34.8337C44.9676 35.8608 43.3351 36.9403 41.6034 38.0735ZM38.5761 34.6474C32.7967 36.56 26.9263 36.79 20.9915 35.509C17.399 34.7336 14.0724 33.3584 11.2191 31.0099C10.7983 30.6636 10.4075 30.282 9.97882 29.895C9.95588 30.0017 9.92545 30.0558 9.93929 30.0945C9.98944 30.2348 10.0474 30.3735 10.1149 30.5066C11.3 32.8435 13.2121 34.484 15.5257 35.6116C23.5474 39.5211 31.7022 39.5799 39.8933 36.1484C42.1634 35.1974 44.1362 33.7781 45.5927 31.7667C45.9887 31.2198 46.2858 30.6034 46.6284 30.019C46.5742 29.9788 46.52 29.9387 46.4659 29.8986C44.2754 32.1212 41.6146 33.5792 38.5761 34.6474ZM21.707 30.9789C17.2736 30.0723 13.2189 28.4073 9.91627 25.215C9.95279 25.452 10.0212 25.6365 10.1092 25.8114C11.1494 27.8788 12.8163 29.3498 14.7843 30.5174C18.6031 32.7831 22.8036 33.7277 27.2076 33.8587C32.3258 34.0108 37.2221 33.1388 41.6878 30.5209C43.479 29.4709 45.0181 28.1465 46.0743 26.3432C46.2128 26.1066 46.2805 25.8296 46.381 25.5714C46.1539 25.5656 46.0461 25.623 45.9605 25.7034C44.0376 27.5116 41.779 28.7865 39.3064 29.6946C33.6135 31.7854 27.774 32.0826 21.707 30.9789ZM110.104 19.7386C110.104 18.714 110.033 17.683 110.128 16.667C110.195 15.9458 110.378 15.1919 110.704 14.5485C111.089 13.7897 112.011 13.5261 112.803 13.7461C113.595 13.9659 113.979 14.4751 114.036 15.4237C114.063 15.872 114.055 16.3226 114.055 16.7722C114.057 18.214 114.056 19.6557 114.056 21.112C114.992 21.112 115.84 21.112 116.696 21.112C116.696 18.926 116.819 16.7741 116.664 14.6415C116.487 12.201 114.972 11.0572 112.576 11.2788C111.556 11.3732 110.765 11.905 110.059 12.6935C110.059 10.8089 110.059 9.03008 110.059 7.25448C109.173 7.25448 108.326 7.25448 107.513 7.25448C107.513 11.9122 107.513 16.5211 107.513 21.1148C108.395 21.1148 109.223 21.1148 110.104 21.1148C110.104 20.6795 110.104 20.2836 110.104 19.7386ZM73.9104 12.669C73.8086 12.7802 73.6994 12.8858 73.6062 13.0036C72.2748 14.6865 72.0117 16.5415 72.8327 18.4941C73.6013 20.3221 75.0869 21.2772 77.0632 21.4463C79.2892 21.6367 81.0013 20.7826 82.1841 18.8249C81.4417 18.4574 80.7258 18.1029 79.9755 17.7314C79.2312 18.9739 78.1214 19.3666 76.7794 19.0211C75.7619 18.7591 75.1894 18.0404 75.0267 16.9316C77.4712 16.9316 79.8708 16.9316 82.2633 16.9316C82.4723 14.4618 81.5753 12.603 79.7963 11.7445C77.9054 10.832 75.6355 11.1689 73.9104 12.669ZM100.541 44.3334C101.562 43.8655 102.328 43.1343 102.905 42.1238C102.16 41.7586 101.446 41.4083 100.741 41.0627C99.6253 42.5091 98.6587 42.6557 97.3404 42.2694C96.4032 41.9949 95.851 41.1973 95.8587 40.2416C98.2328 40.2416 100.607 40.2416 102.974 40.2416C103.246 37.927 102.401 36.0045 100.664 35.1434C98.7604 34.2003 96.8634 34.2958 95.1469 35.5667C93.3931 36.8652 92.8224 38.695 93.2337 40.7621C93.8751 43.9852 97.0646 45.5572 100.541 44.3334ZM87.0469 11.3012C85.7048 11.5153 84.5633 12.0713 83.6819 13.2087C84.332 13.6508 84.9513 14.072 85.588 14.5049C86.5848 13.4825 87.7165 13.0042 89.073 13.7032C89.6822 14.0171 90.0706 14.5245 89.9389 15.075C88.71 15.052 87.5451 14.9058 86.4134 15.0367C84.468 15.2617 83.3546 16.6625 83.4778 18.4799C83.5905 20.1419 85.036 21.3745 86.8924 21.4699C88.1121 21.5326 89.072 21.0641 89.9207 20.1104C89.9404 20.5358 89.9531 20.8082 89.9672 21.1125C90.8309 21.1125 91.6797 21.1125 92.5253 21.1125C92.5253 18.9501 92.5926 16.8276 92.5045 14.7113C92.4314 12.9564 91.3387 11.7769 89.5991 11.4458C88.8128 11.2961 87.9897 11.334 87.0469 11.3012ZM78.2126 44.2518C80.1897 43.2051 81.0087 41.546 80.9462 39.3736C80.8827 37.1669 79.3761 35.2445 77.2283 34.7237C74.777 34.1293 72.3509 35.0942 71.2758 37.0912C70.1901 39.1077 70.4811 41.6241 71.9864 43.2368C73.4196 44.7723 75.9276 45.2043 78.2126 44.2518ZM104.418 37.1638C105.335 39.2134 106.234 41.2711 107.183 43.3065C107.405 43.7838 107.405 44.1522 107.173 44.6221C106.53 45.9277 105.946 47.2618 105.319 48.6283C106.335 48.6283 107.247 48.6283 108.188 48.6283C110.199 44.0717 112.209 39.5182 114.248 34.8979C113.193 34.8979 112.263 34.8979 111.286 34.8979C110.516 36.7774 109.742 38.6692 108.915 40.6871C108.781 40.4008 108.714 40.2694 108.657 40.1342C107.984 38.5496 107.323 36.96 106.629 35.3846C106.538 35.177 106.287 34.9072 106.095 34.8952C105.243 34.8419 104.386 34.8721 103.399 34.8721C103.752 35.664 104.063 36.3608 104.418 37.1638ZM85.0124 40.3197C85.1159 39.6347 85.1164 38.914 85.3465 38.2731C85.7034 37.279 86.59 36.8572 87.5846 37.0382C88.4985 37.2045 88.9208 37.7421 88.9545 38.9018C88.9871 40.0269 88.9621 41.1536 88.9623 42.2796C88.9624 42.9915 88.9623 43.7035 88.9623 44.4072C89.8982 44.4072 90.7274 44.4072 91.5835 44.4072C91.5835 42.2032 91.6562 40.0294 91.5606 37.8628C91.4835 36.1142 90.4568 35.0043 88.8752 34.6609C87.2991 34.3187 85.9882 34.7647 84.9083 36.0899C84.8707 35.6246 84.8421 35.2714 84.813 34.9126C83.9765 34.9126 83.2013 34.9126 82.3888 34.9126C82.3888 38.093 82.3888 41.2322 82.3888 44.3981C83.2651 44.3981 84.1116 44.3981 85.0124 44.3981C85.0124 43.0599 85.0124 41.7636 85.0124 40.3197ZM103.178 9.27982C103.167 9.0889 103.156 8.89797 103.145 8.69683C102.244 8.69683 101.391 8.69683 100.465 8.69683C100.465 9.67307 100.465 10.6079 100.465 11.5893C99.8918 11.5893 99.3929 11.5893 98.8548 11.5893C98.8548 12.3475 98.8548 13.0566 98.8548 13.8317C99.4173 13.8317 99.9391 13.8317 100.49 13.8317C100.49 15.2953 100.457 16.6937 100.496 18.0902C100.578 20.977 103.386 22.464 105.913 20.9607C105.807 20.6105 105.706 20.2532 105.59 19.9012C105.466 19.5289 105.328 19.1615 105.197 18.7951C103.915 19.1571 103.249 18.8995 103.205 17.9493C103.142 16.5869 103.189 15.2197 103.189 13.7885C104.005 13.7885 104.751 13.7885 105.473 13.7885C105.473 13.0126 105.473 12.3054 105.473 11.5516C104.686 11.5516 103.958 11.5516 103.178 11.5516C103.178 10.8098 103.178 10.1152 103.178 9.27982ZM65.0413 11.5733C64.8577 11.6745 64.5248 11.7638 64.5154 11.8787C64.4635 12.5131 64.4905 13.1538 64.4905 13.844C65.1171 13.844 65.6411 13.844 66.1934 13.844C66.1934 15.2951 66.1866 16.6924 66.1954 18.0896C66.2033 19.3344 66.5746 20.432 67.7494 21.0569C69.0209 21.7332 70.3156 21.5554 71.6337 21.0264C71.37 20.2313 71.1304 19.5087 70.8916 18.7887C69.6555 19.1407 68.967 18.9245 68.9197 18.0835C68.8405 16.6763 68.898 15.2617 68.898 13.7919C69.6972 13.7919 70.4462 13.7919 71.1838 13.7919C71.1838 13.0213 71.1838 12.3117 71.1838 11.5409C70.3801 11.5409 69.6294 11.5409 68.8353 11.5409C68.8353 10.5618 68.8353 9.64474 68.8353 8.69774C67.9392 8.69774 67.0891 8.69774 66.1654 8.69774C66.1654 9.6751 66.1654 10.6101 66.1654 11.5733C65.7897 11.5733 65.4878 11.5733 65.0413 11.5733ZM97.2346 13.2868C97.2346 11.2733 97.2346 9.25976 97.2346 7.2456C96.2985 7.2456 95.4493 7.2456 94.5913 7.2456C94.5913 11.8931 94.5913 16.4993 94.5913 21.1112C95.4876 21.1112 96.3356 21.1112 97.2346 21.1112C97.2346 18.5233 97.2346 15.9801 97.2346 13.2868Z" fill="#080808"/>
<path d="M45.5561 13.8379C46.4925 15.0856 47.1586 16.4519 47.1908 17.917C47.2354 19.9485 46.3273 21.7205 44.9525 23.2337C43.1482 25.2198 40.8934 26.5665 38.3748 27.4355C30.5916 30.1207 22.9286 29.9385 15.4894 26.238C13.4482 25.2226 11.6952 23.8116 10.4974 21.8444C9.64798 20.4495 9.04851 18.9331 9.37249 17.2919C9.71106 15.5768 10.5431 14.0574 11.8123 12.7986C14.4026 10.2296 17.6197 8.82013 21.1206 7.9677C24.111 7.23959 27.1593 6.80446 30.2324 7.11543C34.9975 7.59762 39.6031 8.64926 43.4487 11.7156C44.2104 12.323 44.8349 13.0975 45.5561 13.8379Z" fill="#F18B38"/>
<path d="M45.5541 13.8379C46.4905 15.0856 47.1566 16.4519 47.1888 17.917C47.2335 19.9485 46.3253 21.7205 44.9506 23.2337C43.1462 25.2198 40.8915 26.5665 38.3728 27.4355C30.5896 30.1207 22.9267 29.9385 15.4875 26.238C13.4462 25.2226 11.6933 23.8116 10.4954 21.8444C9.64603 20.4495 9.04655 18.9331 9.37054 17.2919C9.70911 15.5768 10.5411 14.0574 11.8103 12.7986C14.4007 10.2296 17.6177 8.82013 21.1187 7.9677C24.109 7.23959 27.1573 6.80446 30.2304 7.11543C34.9956 7.59762 39.6012 8.64926 43.4467 11.7156C44.2085 12.323 44.8329 13.0975 45.5541 13.8379Z" fill="#F18B38"/>
<path d="M60.6484 36.1978C60.9893 36.7824 61.3059 37.3174 61.6637 37.9222C62.9956 35.6526 64.3129 33.4654 65.5617 31.2409C65.891 30.6543 66.2463 30.4075 66.919 30.4787C67.4908 30.5392 68.0744 30.4912 68.6904 30.4912C68.6904 35.1471 68.6904 39.74 68.6904 44.3869C67.8367 44.3869 66.9654 44.3869 66.0869 44.3869C66.0869 41.3927 66.0869 38.3949 66.0869 35.2832C64.9557 37.2474 63.8574 39.1163 62.8052 41.01C62.5579 41.4551 62.2687 41.5901 61.7862 41.5558C61.2921 41.5207 60.8451 41.6051 60.5259 41.0198C59.4868 39.1148 58.3727 37.2494 57.2284 35.2665C57.2284 38.3709 57.2284 41.3476 57.2284 44.3825C56.4138 44.3825 55.5423 44.3825 54.626 44.3825C54.626 39.7882 54.626 35.177 54.626 30.4913C55.4272 30.4913 56.2097 30.4586 56.9859 30.5132C57.1928 30.5277 57.4445 30.7721 57.5665 30.9747C58.6001 32.6908 59.6083 34.4218 60.6484 36.1978Z" fill="#FBFBFB"/>
<path d="M60.6494 36.1978C60.9903 36.7824 61.3069 37.3174 61.6647 37.9222C62.9965 35.6526 64.3139 33.4654 65.5627 31.2409C65.892 30.6543 66.2473 30.4075 66.92 30.4787C67.4918 30.5392 68.0754 30.4912 68.6913 30.4912C68.6913 35.1471 68.6913 39.74 68.6913 44.3869C67.8377 44.3869 66.9664 44.3869 66.0879 44.3869C66.0879 41.3927 66.0879 38.3949 66.0879 35.2832C64.9567 37.2474 63.8583 39.1163 62.8062 41.01C62.5589 41.4551 62.2697 41.5901 61.7871 41.5558C61.293 41.5207 60.8461 41.6051 60.5269 41.0198C59.4878 39.1148 58.3737 37.2494 57.2294 35.2665C57.2294 38.3709 57.2294 41.3476 57.2294 44.3825C56.4147 44.3825 55.5433 44.3825 54.627 44.3825C54.627 39.7882 54.627 35.177 54.627 30.4913C55.4282 30.4913 56.2107 30.4586 56.9869 30.5132C57.1937 30.5277 57.4455 30.7721 57.5675 30.9747C58.601 32.6908 59.6093 34.4218 60.6494 36.1978Z" fill="#FBFBFB"/>
<path d="M63.7624 18.0373C63.3314 19.9838 61.6762 21.2908 59.5022 21.4527C56.6743 21.6633 54.5422 20.2316 53.6631 17.4721C54.4876 17.1473 55.3182 16.8201 56.1195 16.5044C56.4407 17.0515 56.6758 17.583 57.0276 18.0244C57.7915 18.9828 59.2833 19.2009 60.3334 18.5683C61.2149 18.0374 61.4036 16.8869 60.619 16.2131C60.0995 15.7669 59.4332 15.4686 58.7989 15.1745C58.068 14.8355 57.2702 14.631 56.5539 14.2677C54.7478 13.3518 53.9828 11.9167 54.2599 10.118C54.4971 8.57721 55.7958 7.28617 57.621 6.98386C60.2123 6.55464 62.443 7.39045 63.3511 9.88089C62.5795 10.2038 61.8033 10.5286 60.9795 10.8734C60.4205 9.65892 59.5143 9.15072 58.2079 9.43034C57.5469 9.5718 56.991 9.86281 56.8668 10.5764C56.7457 11.273 57.1771 11.7302 57.7506 12.0044C58.4751 12.3508 59.2411 12.6127 59.9886 12.9128C60.456 13.1005 60.9385 13.2598 61.386 13.4862C63.2712 14.4402 64.0191 15.8633 63.7624 18.0373Z" fill="#FAFAFA"/>
<path d="M63.7634 18.0373C63.3324 19.9838 61.6772 21.2908 59.5031 21.4527C56.6753 21.6633 54.5431 20.2316 53.6641 17.4721C54.4886 17.1473 55.3192 16.8201 56.1205 16.5044C56.4417 17.0515 56.6768 17.583 57.0285 18.0244C57.7925 18.9828 59.2843 19.2009 60.3344 18.5683C61.2159 18.0374 61.4045 16.8869 60.62 16.2131C60.1004 15.7669 59.4342 15.4686 58.7999 15.1745C58.069 14.8355 57.2712 14.631 56.5549 14.2677C54.7488 13.3518 53.9838 11.9167 54.2608 10.118C54.4981 8.57721 55.7968 7.28617 57.622 6.98386C60.2132 6.55464 62.444 7.39045 63.3521 9.88089C62.5805 10.2038 61.8043 10.5286 60.9804 10.8734C60.4215 9.65892 59.5153 9.15072 58.2088 9.43034C57.5479 9.5718 56.9919 9.86281 56.8678 10.5764C56.7467 11.273 57.1781 11.7302 57.7516 12.0044C58.476 12.3508 59.2421 12.6127 59.9896 12.9128C60.457 13.1005 60.9395 13.2598 61.3869 13.4862C63.2721 14.4402 64.0201 15.8633 63.7634 18.0373Z" fill="#FAFAFA"/>
<path d="M41.6527 38.0469C43.3348 36.9405 44.9673 35.8609 46.5204 34.8339C46.4798 34.9227 46.3792 35.1853 46.2447 35.4298C45.0132 37.6686 43.0852 39.1797 40.864 40.3682C38.0375 41.8806 34.9902 42.715 31.8097 43.049C30.0822 43.2304 28.3164 43.4781 26.6058 43.3138C22.114 42.8824 17.741 41.9564 13.9216 39.3529C12.2627 38.2221 10.9801 36.7757 9.96279 35.0808C9.91596 35.0028 9.91945 34.8901 9.91895 34.7934C9.91877 34.7603 9.97816 34.7269 10.0082 34.6958C15.9008 39.9328 23.0019 41.3009 30.6281 40.8914C34.4669 40.6852 38.1465 39.7753 41.6527 38.0469Z" fill="#F2F0F0"/>
<path d="M41.6527 38.0469C43.3348 36.9405 44.9673 35.8609 46.5204 34.8339C46.4798 34.9227 46.3792 35.1853 46.2447 35.4298C45.0132 37.6686 43.0852 39.1797 40.864 40.3682C38.0375 41.8806 34.9902 42.715 31.8097 43.049C30.0822 43.2304 28.3164 43.4781 26.6058 43.3138C22.114 42.8824 17.741 41.9564 13.9216 39.3529C12.2627 38.2221 10.9801 36.7757 9.96279 35.0808C9.91596 35.0028 9.91945 34.8901 9.91895 34.7934C9.91877 34.7603 9.97816 34.7269 10.0082 34.6958C15.9008 39.9328 23.0019 41.3009 30.6281 40.8914C34.4669 40.6852 38.1465 39.7753 41.6527 38.0469Z" fill="#F2F0F0"/>
<path d="M38.6327 34.6276C41.6143 33.5791 44.2752 32.1212 46.4656 29.8985C46.5198 29.9387 46.5739 29.9788 46.6281 30.0189C46.2856 30.6034 45.9884 31.2197 45.5924 31.7667C44.136 33.7781 42.1631 35.1974 39.8931 36.1484C31.7019 39.5798 23.5472 39.5211 15.5255 35.6116C13.2118 34.484 11.2997 32.8435 10.1146 30.5066C10.0471 30.3734 9.98918 30.2348 9.93902 30.0945C9.92518 30.0557 9.95562 30.0017 9.97856 29.895C10.4072 30.2819 10.7981 30.6635 11.2188 31.0099C14.0722 33.3583 17.3987 34.7335 20.9912 35.509C26.926 36.7899 32.7964 36.56 38.6327 34.6276Z" fill="#F2F0F0"/>
<path d="M38.6327 34.6276C41.6143 33.5791 44.2752 32.1212 46.4656 29.8985C46.5198 29.9387 46.5739 29.9788 46.6281 30.0189C46.2856 30.6034 45.9884 31.2197 45.5924 31.7667C44.136 33.7781 42.1631 35.1974 39.8931 36.1484C31.7019 39.5798 23.5472 39.5211 15.5255 35.6116C13.2118 34.484 11.2997 32.8435 10.1146 30.5066C10.0471 30.3734 9.98918 30.2348 9.93902 30.0945C9.92518 30.0557 9.95562 30.0017 9.97856 29.895C10.4072 30.2819 10.7981 30.6635 11.2188 31.0099C14.0722 33.3583 17.3987 34.7335 20.9912 35.509C26.926 36.7899 32.7964 36.56 38.6327 34.6276Z" fill="#F2F0F0"/>
<path d="M21.7691 30.9953C27.7737 32.083 33.6133 31.7857 39.3061 29.6949C41.7788 28.7868 44.0373 27.5119 45.9603 25.7037C46.0458 25.6233 46.1536 25.5659 46.3807 25.5717C46.2802 25.83 46.2126 26.1069 46.074 26.3435C45.0179 28.1468 43.4787 29.4712 41.6876 30.5212C37.2218 33.1391 32.3255 34.0111 27.2073 33.859C22.8033 33.728 18.6028 32.7835 14.784 30.5177C12.816 29.3501 11.1492 27.8791 10.1089 25.8117C10.0209 25.6368 9.95253 25.4523 9.91602 25.2153C13.2187 28.4076 17.2733 30.0726 21.7691 30.9953Z" fill="#F2F0F0"/>
<path d="M21.7691 30.9953C27.7737 32.083 33.6133 31.7857 39.3061 29.6949C41.7788 28.7868 44.0373 27.5119 45.9603 25.7037C46.0458 25.6233 46.1536 25.5659 46.3807 25.5717C46.2802 25.83 46.2126 26.1069 46.074 26.3435C45.0179 28.1468 43.4787 29.4712 41.6876 30.5212C37.2218 33.1391 32.3255 34.0111 27.2073 33.859C22.8033 33.728 18.6028 32.7835 14.784 30.5177C12.816 29.3501 11.1492 27.8791 10.1089 25.8117C10.0209 25.6368 9.95253 25.4523 9.91602 25.2153C13.2187 28.4076 17.2733 30.0726 21.7691 30.9953Z" fill="#F2F0F0"/>
<path d="M110.103 19.8131C110.103 20.2835 110.103 20.6794 110.103 21.1147C109.222 21.1147 108.395 21.1147 107.513 21.1147C107.513 16.521 107.513 11.9121 107.513 7.25439C108.326 7.25439 109.173 7.25439 110.058 7.25439C110.058 9.02999 110.058 10.8088 110.058 12.6934C110.765 11.9049 111.556 11.3731 112.576 11.2787C114.971 11.0572 116.487 12.201 116.664 14.6415C116.818 16.774 116.696 18.9259 116.696 21.1119C115.84 21.1119 114.992 21.1119 114.056 21.1119C114.056 19.6557 114.057 18.2139 114.055 16.7721C114.055 16.3225 114.063 15.8719 114.036 15.4236C113.979 14.4751 113.595 13.9658 112.803 13.746C112.011 13.526 111.088 13.7896 110.704 14.5484C110.378 15.1918 110.195 15.9457 110.127 16.6669C110.033 17.6829 110.103 18.7139 110.103 19.8131Z" fill="#FBFBFB"/>
<path d="M110.101 19.8131C110.101 20.2835 110.101 20.6794 110.101 21.1147C109.22 21.1147 108.393 21.1147 107.511 21.1147C107.511 16.521 107.511 11.9121 107.511 7.25439C108.324 7.25439 109.171 7.25439 110.056 7.25439C110.056 9.02999 110.056 10.8088 110.056 12.6934C110.763 11.9049 111.554 11.3731 112.574 11.2787C114.969 11.0572 116.485 12.201 116.662 14.6415C116.816 16.774 116.694 18.9259 116.694 21.1119C115.838 21.1119 114.99 21.1119 114.054 21.1119C114.054 19.6557 114.055 18.2139 114.053 16.7721C114.053 16.3225 114.061 15.8719 114.034 15.4236C113.977 14.4751 113.593 13.9658 112.801 13.746C112.009 13.526 111.086 13.7896 110.702 14.5484C110.376 15.1918 110.193 15.9457 110.125 16.6669C110.031 17.6829 110.101 18.7139 110.101 19.8131Z" fill="#FBFBFB"/>
<path d="M73.9536 12.6371C75.6352 11.1689 77.9051 10.832 79.7961 11.7445C81.575 12.603 82.472 14.4618 82.263 16.9316C79.8705 16.9316 77.4709 16.9316 75.0264 16.9316C75.1891 18.0405 75.7616 18.7591 76.7791 19.0211C78.1211 19.3667 79.2309 18.974 79.9752 17.7315C80.7255 18.1029 81.4414 18.4574 82.1838 18.825C81.001 20.7827 79.2889 21.6368 77.0629 21.4463C75.0866 21.2772 73.601 20.3222 72.8324 18.4941C72.0114 16.5415 72.2745 14.6866 73.6059 13.0036C73.6991 12.8858 73.8083 12.7803 73.9536 12.6371ZM78.4561 13.5927C76.7979 13.1324 75.5342 13.7284 75.2769 15.0677C76.746 15.0677 78.2197 15.0677 79.752 15.0677C79.5445 14.376 79.1835 13.9051 78.4561 13.5927Z" fill="#FBFBFB"/>
<path d="M73.9536 12.6371C75.6352 11.1689 77.9051 10.832 79.7961 11.7445C81.575 12.603 82.472 14.4618 82.263 16.9316C79.8705 16.9316 77.4709 16.9316 75.0264 16.9316C75.1891 18.0405 75.7616 18.7591 76.7791 19.0211C78.1211 19.3667 79.2309 18.974 79.9752 17.7315C80.7255 18.1029 81.4414 18.4574 82.1838 18.825C81.001 20.7827 79.2889 21.6368 77.0629 21.4463C75.0866 21.2772 73.601 20.3222 72.8324 18.4941C72.0114 16.5415 72.2745 14.6866 73.6059 13.0036C73.6991 12.8858 73.8083 12.7803 73.9536 12.6371ZM78.4561 13.5927C76.7979 13.1324 75.5342 13.7284 75.2769 15.0677C76.746 15.0677 78.2197 15.0677 79.752 15.0677C79.5445 14.376 79.1835 13.9051 78.4561 13.5927Z" fill="#FBFBFB"/>
<path d="M100.49 44.3628C97.0647 45.5574 93.8752 43.9855 93.2339 40.7624C92.8225 38.6952 93.3932 36.8655 95.1471 35.567C96.8636 34.2961 98.7606 34.2006 100.664 35.1437C102.401 36.0047 103.246 37.9273 102.974 40.2419C100.608 40.2419 98.233 40.2419 95.8589 40.2419C95.8511 41.1976 96.4034 41.9952 97.3406 42.2697C98.6589 42.656 99.6254 42.5094 100.741 41.0629C101.446 41.4086 102.16 41.7589 102.905 42.1241C102.328 43.1346 101.563 43.8658 100.49 44.3628ZM95.9829 38.1894C96.0291 38.2703 96.0747 38.4215 96.1216 38.4219C97.5542 38.4344 98.9869 38.4321 100.44 38.4321C100.162 37.4229 99.5602 36.8756 98.6611 36.7622C97.4786 36.6131 96.5749 37.0097 95.9829 38.1894Z" fill="#FBFBFB"/>
<path d="M100.489 44.3628C97.0638 45.5574 93.8743 43.9855 93.2329 40.7624C92.8216 38.6952 93.3923 36.8655 95.1461 35.567C96.8626 34.2961 98.7596 34.2006 100.663 35.1437C102.401 36.0047 103.245 37.9273 102.974 40.2419C100.607 40.2419 98.232 40.2419 95.8579 40.2419C95.8501 41.1976 96.4024 41.9952 97.3396 42.2697C98.6579 42.656 99.6245 42.5094 100.74 41.0629C101.445 41.4086 102.159 41.7589 102.904 42.1241C102.327 43.1346 101.562 43.8658 100.489 44.3628ZM95.982 38.1894C96.0282 38.2703 96.0737 38.4215 96.1206 38.4219C97.5532 38.4344 98.9859 38.4321 100.439 38.4321C100.161 37.4229 99.5592 36.8756 98.6601 36.7622C97.4776 36.6131 96.5739 37.0097 95.982 38.1894Z" fill="#FBFBFB"/>
<path d="M87.1153 11.2939C87.9899 11.334 88.813 11.2961 89.5993 11.4457C91.3389 11.7768 92.4315 12.9563 92.5046 14.7113C92.5928 16.8275 92.5255 18.9501 92.5255 21.1124C91.6799 21.1124 90.8311 21.1124 89.9674 21.1124C89.9533 20.8082 89.9406 20.5358 89.9209 20.1104C89.0722 21.064 88.1123 21.5326 86.8926 21.4699C85.0362 21.3745 83.5907 20.1419 83.478 18.4799C83.3548 16.6624 84.4682 15.2617 86.4135 15.0366C87.5453 14.9057 88.7101 15.052 89.9391 15.075C90.0707 14.5244 89.6824 14.0171 89.0732 13.7032C87.7166 13.0042 86.585 13.4825 85.5881 14.5049C84.9514 14.0719 84.3322 13.6508 83.6821 13.2087C84.5635 12.0712 85.7049 11.5153 87.1153 11.2939ZM86.6481 19.1061C88.0072 19.7599 89.5151 19.174 89.8722 17.8203C89.9231 17.6273 89.7633 17.1918 89.6565 17.1768C88.8227 17.0602 87.9494 16.8565 87.1438 16.9944C86.0752 17.1774 85.8445 18.195 86.6481 19.1061Z" fill="#FBFBFB"/>
<path d="M87.1163 11.2939C87.9908 11.334 88.8139 11.2961 89.6002 11.4457C91.3399 11.7768 92.4325 12.9563 92.5056 14.7113C92.5937 16.8275 92.5265 18.9501 92.5265 21.1124C91.6809 21.1124 90.8321 21.1124 89.9683 21.1124C89.9542 20.8082 89.9416 20.5358 89.9219 20.1104C89.0732 21.064 88.1133 21.5326 86.8935 21.4699C85.0371 21.3745 83.5917 20.1419 83.479 18.4799C83.3558 16.6624 84.4692 15.2617 86.4145 15.0366C87.5463 14.9057 88.7111 15.052 89.9401 15.075C90.0717 14.5244 89.6834 14.0171 89.0742 13.7032C87.7176 13.0042 86.5859 13.4825 85.5891 14.5049C84.9524 14.0719 84.3332 13.6508 83.6831 13.2087C84.5645 12.0712 85.7059 11.5153 87.1163 11.2939ZM86.6491 19.1061C88.0082 19.7599 89.516 19.174 89.8731 17.8203C89.9241 17.6273 89.7642 17.1918 89.6575 17.1768C88.8237 17.0602 87.9504 16.8565 87.1448 16.9944C86.0762 17.1774 85.8454 18.195 86.6491 19.1061Z" fill="#FBFBFB"/>
<path d="M78.1576 44.2709C75.9274 45.2042 73.4193 44.7723 71.9861 43.2368C70.4808 41.624 70.1898 39.1076 71.2755 37.0912C72.3507 35.0941 74.7767 34.1292 77.228 34.7236C79.3759 35.2444 80.8824 37.1668 80.9459 39.3736C81.0084 41.5459 80.1894 43.205 78.1576 44.2709ZM77.1077 41.9872C77.2962 41.8211 77.5034 41.6713 77.67 41.4861C78.391 40.6838 78.5129 39.2399 77.9573 38.2493C77.4596 37.3619 76.4719 36.8668 75.4703 37.0207C74.415 37.1827 73.7231 37.775 73.4332 38.7874C73.1135 39.9039 73.2769 40.9407 74.1797 41.7371C75.0213 42.4795 75.9952 42.5437 77.1077 41.9872Z" fill="#FBFBFB"/>
<path d="M78.1596 44.2709C75.9293 45.2042 73.4213 44.7723 71.9881 43.2368C70.4828 41.624 70.1918 39.1076 71.2775 37.0912C72.3526 35.0941 74.7787 34.1292 77.23 34.7236C79.3778 35.2444 80.8844 37.1668 80.9479 39.3736C81.0104 41.5459 80.1914 43.205 78.1596 44.2709ZM77.1097 41.9872C77.2982 41.8211 77.5054 41.6713 77.6719 41.4861C78.3929 40.6838 78.5149 39.2399 77.9593 38.2493C77.4615 37.3619 76.4739 36.8668 75.4722 37.0207C74.4169 37.1827 73.725 37.775 73.4352 38.7874C73.1155 39.9039 73.2789 40.9407 74.1817 41.7371C75.0233 42.4795 75.9972 42.5437 77.1097 41.9872Z" fill="#FBFBFB"/>
<path d="M104.395 37.1109C104.063 36.361 103.752 35.6642 103.398 34.8723C104.385 34.8723 105.243 34.8421 106.095 34.8954C106.286 34.9074 106.537 35.1772 106.629 35.3848C107.323 36.9602 107.984 38.5498 108.656 40.1344C108.714 40.2696 108.78 40.401 108.914 40.6873C109.741 38.6694 110.516 36.7776 111.286 34.8981C112.262 34.8981 113.193 34.8981 114.248 34.8981C112.209 39.5184 110.199 44.0719 108.188 48.6285C107.246 48.6285 106.335 48.6285 105.319 48.6285C105.946 47.262 106.529 45.9279 107.173 44.6223C107.404 44.1524 107.405 43.784 107.182 43.3067C106.234 41.2713 105.335 39.2136 104.395 37.1109Z" fill="#FAFAFA"/>
<path d="M104.395 37.1109C104.063 36.361 103.752 35.6642 103.398 34.8723C104.385 34.8723 105.243 34.8421 106.095 34.8954C106.286 34.9074 106.537 35.1772 106.629 35.3848C107.323 36.9602 107.984 38.5498 108.656 40.1344C108.714 40.2696 108.78 40.401 108.914 40.6873C109.741 38.6694 110.516 36.7776 111.286 34.8981C112.262 34.8981 113.193 34.8981 114.248 34.8981C112.209 39.5184 110.199 44.0719 108.188 48.6285C107.246 48.6285 106.335 48.6285 105.319 48.6285C105.946 47.262 106.529 45.9279 107.173 44.6223C107.404 44.1524 107.405 43.784 107.182 43.3067C106.234 41.2713 105.335 39.2136 104.395 37.1109Z" fill="#FAFAFA"/>
<path d="M85.0123 40.3933C85.0123 41.7635 85.0123 43.0598 85.0123 44.398C84.1115 44.398 83.265 44.398 82.3887 44.398C82.3887 41.2321 82.3887 38.0929 82.3887 34.9125C83.2012 34.9125 83.9764 34.9125 84.8129 34.9125C84.842 35.2713 84.8705 35.6245 84.9082 36.0898C85.9881 34.7646 87.299 34.3186 88.8751 34.6608C90.4567 35.0042 91.4834 36.1141 91.5605 37.8627C91.656 40.0293 91.5834 42.2031 91.5834 44.4071C90.7273 44.4071 89.898 44.4071 88.9622 44.4071C88.9622 43.7034 88.9623 42.9914 88.9622 42.2795C88.962 41.1535 88.987 40.0268 88.9543 38.9017C88.9207 37.7419 88.4984 37.2044 87.5845 37.0381C86.5899 36.8571 85.7033 37.2789 85.3464 38.273C85.1163 38.9139 85.1157 39.6346 85.0123 40.3933Z" fill="#F9F9F9"/>
<path d="M85.0103 40.3933C85.0103 41.7635 85.0103 43.0598 85.0103 44.398C84.1096 44.398 83.263 44.398 82.3867 44.398C82.3867 41.2321 82.3867 38.0928 82.3867 34.9125C83.1992 34.9125 83.9745 34.9125 84.811 34.9125C84.84 35.2713 84.8686 35.6245 84.9062 36.0898C85.9861 34.7646 87.2971 34.3186 88.8731 34.6608C90.4547 35.0042 91.4815 36.1141 91.5586 37.8627C91.6541 40.0293 91.5814 42.2031 91.5814 44.4071C90.7253 44.4071 89.8961 44.4071 88.9603 44.4071C88.9603 43.7034 88.9604 42.9914 88.9602 42.2795C88.96 41.1535 88.985 40.0268 88.9524 38.9017C88.9187 37.7419 88.4964 37.2044 87.5825 37.0381C86.5879 36.8571 85.7013 37.2789 85.3444 38.273C85.1144 38.9139 85.1138 39.6346 85.0103 40.3933Z" fill="#F9F9F9"/>
<path d="M103.178 9.35012C103.178 10.1151 103.178 10.8097 103.178 11.5515C103.958 11.5515 104.685 11.5515 105.472 11.5515C105.472 12.3054 105.472 13.0126 105.472 13.7884C104.75 13.7884 104.004 13.7884 103.189 13.7884C103.189 15.2196 103.142 16.5869 103.205 17.9492C103.249 18.8994 103.914 19.157 105.197 18.7951C105.328 19.1614 105.466 19.5288 105.589 19.9011C105.706 20.2532 105.806 20.6104 105.912 20.9606C103.386 22.4639 100.578 20.9769 100.496 18.0902C100.457 16.6937 100.489 15.2952 100.489 13.8316C99.9388 13.8316 99.4169 13.8316 98.8545 13.8316C98.8545 13.0565 98.8545 12.3475 98.8545 11.5893C99.3926 11.5893 99.8915 11.5893 100.464 11.5893C100.464 10.6079 100.464 9.67302 100.464 8.69678C101.391 8.69678 102.244 8.69678 103.144 8.69678C103.156 8.89791 103.167 9.08884 103.178 9.35012Z" fill="#F9F9F9"/>
<path d="M103.179 9.35012C103.179 10.1151 103.179 10.8097 103.179 11.5515C103.959 11.5515 104.686 11.5515 105.473 11.5515C105.473 12.3054 105.473 13.0126 105.473 13.7884C104.751 13.7884 104.005 13.7884 103.19 13.7884C103.19 15.2196 103.143 16.5869 103.206 17.9492C103.25 18.8994 103.915 19.157 105.198 18.7951C105.329 19.1614 105.467 19.5288 105.59 19.9011C105.707 20.2532 105.807 20.6104 105.913 20.9606C103.387 22.4639 100.579 20.9769 100.497 18.0902C100.458 16.6937 100.49 15.2952 100.49 13.8316C99.9398 13.8316 99.4179 13.8316 98.8555 13.8316C98.8555 13.0565 98.8555 12.3475 98.8555 11.5893C99.3936 11.5893 99.8925 11.5893 100.465 11.5893C100.465 10.6079 100.465 9.67302 100.465 8.69678C101.392 8.69678 102.245 8.69678 103.145 8.69678C103.157 8.89791 103.168 9.08884 103.179 9.35012Z" fill="#F9F9F9"/>
<path d="M65.1135 11.5733C65.4877 11.5733 65.7896 11.5733 66.1653 11.5733C66.1653 10.6101 66.1653 9.67511 66.1653 8.69775C67.089 8.69775 67.9391 8.69775 68.8352 8.69775C68.8352 9.64476 68.8352 10.5618 68.8352 11.5409C69.6294 11.5409 70.3801 11.5409 71.1837 11.5409C71.1837 12.3117 71.1837 13.0213 71.1837 13.7919C70.4461 13.7919 69.6971 13.7919 68.898 13.7919C68.898 15.2617 68.8404 16.6763 68.9196 18.0835C68.9669 18.9245 69.6555 19.1407 70.8915 18.7887C71.1303 19.5087 71.37 20.2314 71.6337 21.0264C70.3155 21.5554 69.0208 21.7332 67.7493 21.0569C66.5746 20.432 66.2032 19.3344 66.1953 18.0896C66.1865 16.6924 66.1933 15.2951 66.1933 13.844C65.641 13.844 65.117 13.844 64.4905 13.844C64.4905 13.1538 64.4634 12.5131 64.5153 11.8787C64.5247 11.7638 64.8576 11.6745 65.1135 11.5733Z" fill="#F9F9F9"/>
<path d="M65.1125 11.5733C65.4867 11.5733 65.7887 11.5733 66.1644 11.5733C66.1644 10.6101 66.1644 9.67511 66.1644 8.69775C67.0881 8.69775 67.9381 8.69775 68.8342 8.69775C68.8342 9.64476 68.8342 10.5618 68.8342 11.5409C69.6284 11.5409 70.3791 11.5409 71.1828 11.5409C71.1828 12.3117 71.1828 13.0213 71.1828 13.7919C70.4451 13.7919 69.6961 13.7919 68.897 13.7919C68.897 15.2617 68.8394 16.6763 68.9186 18.0835C68.966 18.9245 69.6545 19.1407 70.8905 18.7887C71.1293 19.5087 71.369 20.2314 71.6327 21.0264C70.3146 21.5554 69.0198 21.7332 67.7483 21.0569C66.5736 20.432 66.2022 19.3344 66.1944 18.0896C66.1855 16.6924 66.1923 15.2951 66.1923 13.844C65.64 13.844 65.116 13.844 64.4895 13.844C64.4895 13.1538 64.4624 12.5131 64.5143 11.8787C64.5237 11.7638 64.8566 11.6745 65.1125 11.5733Z" fill="#F9F9F9"/>
<path d="M97.2341 13.3618C97.2341 15.9801 97.2341 18.5233 97.2341 21.1112C96.3351 21.1112 95.4871 21.1112 94.5908 21.1112C94.5908 16.4993 94.5908 11.8931 94.5908 7.24561C95.4488 7.24561 96.298 7.24561 97.2341 7.24561C97.2341 9.25976 97.2341 11.2733 97.2341 13.3618Z" fill="#F7F7F7"/>
<path d="M97.2351 13.3618C97.2351 15.9801 97.2351 18.5233 97.2351 21.1112C96.3361 21.1112 95.4881 21.1112 94.5918 21.1112C94.5918 16.4993 94.5918 11.8931 94.5918 7.24561C95.4498 7.24561 96.299 7.24561 97.2351 7.24561C97.2351 9.25976 97.2351 11.2733 97.2351 13.3618Z" fill="#F7F7F7"/>
<path d="M78.5096 13.6162C79.183 13.9052 79.544 14.3762 79.7514 15.0679C78.2192 15.0679 76.7454 15.0679 75.2764 15.0679C75.5337 13.7286 76.7974 13.1326 78.5096 13.6162Z" fill="#101010"/>
<path d="M96 38.1345C96.5743 37.0095 97.478 36.6129 98.6605 36.7621C99.5596 36.8754 100.162 37.4227 100.439 38.4319C98.9863 38.4319 97.5536 38.4342 96.121 38.4217C96.0741 38.4213 96.0286 38.2701 96 38.1345Z" fill="#030303"/>
<path d="M86.5982 19.0716C85.8438 18.1951 86.0745 17.1775 87.1431 16.9945C87.9487 16.8565 88.822 17.0602 89.6558 17.1769C89.7626 17.1918 89.9224 17.6273 89.8715 17.8203C89.5144 19.1741 88.0065 19.7599 86.5982 19.0716Z" fill="#050505"/>
<path d="M77.0561 42.014C75.9956 42.544 75.0217 42.4798 74.1801 41.7374C73.2774 40.941 73.1139 39.9042 73.4336 38.7877C73.7235 37.7753 74.4154 37.183 75.4707 37.021C76.4723 36.8671 77.46 37.3622 77.9578 38.2496C78.5134 39.2402 78.3914 40.6841 77.6704 41.4864C77.5039 41.6716 77.2966 41.8214 77.0561 42.014Z" fill="#030303"/>
</g>
<defs>
<clipPath id="clip0_1629_9582">
<rect width="132" height="56" fill="white"/>
</clipPath>
</defs>
</svg>
