<svg width="64" height="64" viewBox="0 0 64 64" fill="none" xmlns="http://www.w3.org/2000/svg">
<rect width="64" height="64" rx="32" fill="#2B2B2B"/>
<path d="M37 20.25H27C25.2104 20.252 23.4947 20.9638 22.2292 22.2292C20.9638 23.4947 20.252 25.2104 20.25 27V37C20.252 38.7896 20.9638 40.5053 22.2292 41.7708C23.4947 43.0362 25.2104 43.748 27 43.75H33C33.0808 43.7503 33.161 43.7372 33.2375 43.7113C36.4675 42.635 42.635 36.4675 43.7113 33.2375C43.7372 33.161 43.7503 33.0808 43.75 33V27C43.748 25.2104 43.0362 23.4947 41.7708 22.2292C40.5053 20.9638 38.7896 20.252 37 20.25ZM21.75 37V27C21.75 25.6076 22.3031 24.2723 23.2877 23.2877C24.2723 22.3031 25.6076 21.75 27 21.75H37C38.3924 21.75 39.7277 22.3031 40.7123 23.2877C41.6969 24.2723 42.25 25.6076 42.25 27V32.25H39C37.2104 32.252 35.4947 32.9638 34.2292 34.2292C32.9638 35.4947 32.252 37.2104 32.25 39V42.25H27C25.6076 42.25 24.2723 41.6969 23.2877 40.7123C22.3031 39.7277 21.75 38.3924 21.75 37ZM33.75 41.8337V39C33.75 37.6076 34.3031 36.2723 35.2877 35.2877C36.2723 34.3031 37.6076 33.75 39 33.75H41.8337C40.355 36.3875 36.3875 40.355 33.75 41.8337Z" fill="#F7931A"/>
</svg>
