<svg width="616" height="320" viewBox="0 0 616 320" fill="none" xmlns="http://www.w3.org/2000/svg">
<rect x="0.5" y="0.5" width="615" height="319" rx="19.5" fill="#0D0D0D"/>
<rect x="0.5" y="0.5" width="615" height="319" rx="19.5" stroke="#494949"/>
<g clip-path="url(#clip0_5198_21818)">
<g clip-path="url(#clip1_5198_21818)">
<path fill-rule="evenodd" clip-rule="evenodd" d="M119.587 118.887H155.473C161.133 118.887 163.961 118.887 166.126 119.99C168.03 120.952 169.57 122.501 170.541 124.4C171.645 126.565 171.645 129.393 171.645 135.054V141.055H103.415V135.054C103.415 129.393 103.415 126.565 104.519 124.4C105.48 122.501 107.029 120.957 108.933 119.99C111.098 118.887 113.926 118.887 119.587 118.887ZM171.649 159.813H148.903L148.912 162.963V204.15H155.478C161.138 204.15 163.966 204.15 166.136 203.046C168.03 202.085 169.575 200.536 170.546 198.636C171.649 196.471 171.649 193.644 171.649 187.978V159.813ZM126.152 161.518H103.415V189.688C103.415 195.349 103.415 198.177 104.519 200.341C105.49 202.241 107.029 203.79 108.933 204.751C111.098 205.855 113.926 205.855 119.587 205.855H126.152V161.518ZM215.934 174.298C215.934 182.976 220.671 187.884 229.789 187.884C233.034 187.884 235.312 187.363 236.98 186.747V178.329C235.488 178.945 233.91 179.21 231.802 179.21C228.472 179.21 226.545 177.363 226.545 173.337V149.231H236.625V141.254H226.545V131.174H215.934V141.254H209.805V149.231H215.939L215.934 174.298ZM271.227 171.058C271.227 176.932 266.405 180.347 259.916 180.347C254.658 180.347 252.55 177.804 252.55 173.953C252.55 168.339 257.722 166.497 265.789 166.497H271.227V171.058ZM242.029 174.388C242.029 183.943 248.955 187.974 257.377 187.974C264.387 187.974 268.418 185.43 271.398 181.484V187.097H281.833V157.033C281.833 144.499 273.771 140.293 263.511 140.293C253.251 140.293 244.753 144.759 243.872 155.45H254.127C254.658 150.898 257.372 148.269 262.895 148.269C269.124 148.269 271.227 151.334 271.227 157.473V159.841H265.529C252.375 159.841 242.034 163.693 242.034 174.384M290.577 187.093V141.254H301.188V148.53C303.381 144.058 308.463 140.288 316.005 140.288C325.208 140.288 331.698 145.64 331.698 158.259V187.097H321.087V159.226C321.087 152.3 318.283 149.146 311.973 149.146C306.005 149.146 301.188 152.826 301.188 160.102V187.097L290.577 187.093ZM374.514 163.077C374.514 171.84 369.171 177.098 361.805 177.098C354.965 177.098 349.707 171.84 349.707 163.337V162.636C349.707 154.309 354.264 148.615 362.156 148.615C369.782 148.615 374.519 153.783 374.519 162.461L374.514 163.077ZM339.362 188.67C340.589 197.433 347.073 203.923 361.454 203.923C375.656 203.923 384.689 197.173 384.774 183.673V141.254H374.163V148.265C371.535 143.708 366.978 140.293 359.437 140.293C347.604 140.293 338.831 149.932 338.831 162.816V163.432C338.831 176.667 347.689 185.255 359.176 185.255C365.926 185.255 371.625 181.134 374.168 176.752V183.502C374.168 191.744 369.607 195.865 361.365 195.865C354.439 195.865 350.934 193.231 350.058 188.675L339.362 188.67ZM415.62 187.969C402.12 187.969 392.386 179.116 392.386 164.654V163.953C392.386 149.752 402.12 140.288 415.18 140.288C426.577 140.288 436.837 147.038 436.837 163.427V166.492H403.257C403.608 175.17 407.994 180.077 415.881 180.077C422.285 180.077 425.615 177.538 426.401 173.067H436.661C435.169 182.711 427.368 187.969 415.62 187.969ZM403.432 159.396H426.311C425.79 151.505 421.755 147.999 415.18 147.999C408.785 147.999 404.484 152.296 403.432 159.396ZM444.382 141.254V187.093H454.993V159.661C454.993 152.651 459.815 149.146 465.073 149.146C470.246 149.146 473.225 152.035 473.225 158.785V187.097H483.836V159.661C483.836 152.651 488.658 149.146 493.92 149.146C499.183 149.146 502.068 152.035 502.068 158.785V187.097H512.678V158.084C512.678 145.46 505.843 140.293 497.426 140.293C491.727 140.293 485.413 142.831 481.908 148.535C479.629 142.831 474.897 140.293 468.929 140.293C462.179 140.293 457.181 143.973 454.993 148.269V141.259L444.382 141.254Z" fill="white"/>
</g>
</g>
<defs>
<clipPath id="clip0_5198_21818">
<rect width="412.105" height="90" fill="white" transform="translate(102 115)"/>
</clipPath>
<clipPath id="clip1_5198_21818">
<rect width="412.105" height="94.7368" fill="white" transform="translate(103.415 115)"/>
</clipPath>
</defs>
</svg>
