<svg width="64" height="64" viewBox="0 0 64 64" fill="none" xmlns="http://www.w3.org/2000/svg">
<rect width="64" height="64" rx="32" fill="#2B2B2B"/>
<path d="M42.5 23.25C41.8572 23.25 41.2289 23.4406 40.6944 23.7977C40.1599 24.1548 39.7434 24.6624 39.4974 25.2563C39.2514 25.8501 39.187 26.5036 39.3124 27.134C39.4379 27.7645 39.7474 28.3436 40.2019 28.7981C40.6564 29.2526 41.2355 29.5622 41.866 29.6876C42.4964 29.813 43.1499 29.7486 43.7437 29.5026C44.3376 29.2566 44.8452 28.8401 45.2023 28.3056C45.5594 27.7711 45.75 27.1428 45.75 26.5C45.75 25.638 45.4076 24.8114 44.7981 24.2019C44.1886 23.5924 43.362 23.25 42.5 23.25ZM42.5 28.25C42.1539 28.25 41.8155 28.1474 41.5278 27.9551C41.24 27.7628 41.0157 27.4895 40.8832 27.1697C40.7508 26.8499 40.7161 26.4981 40.7836 26.1586C40.8512 25.8191 41.0178 25.5073 41.2626 25.2626C41.5073 25.0178 41.8191 24.8511 42.1586 24.7836C42.4981 24.7161 42.8499 24.7508 43.1697 24.8832C43.4895 25.0157 43.7628 25.24 43.9551 25.5278C44.1474 25.8155 44.25 26.1539 44.25 26.5C44.25 26.9641 44.0656 27.4092 43.7374 27.7374C43.4092 28.0656 42.9641 28.25 42.5 28.25ZM31.75 35.325V27C31.75 26.8011 31.671 26.6103 31.5303 26.4697C31.3897 26.329 31.1989 26.25 31 26.25C30.8011 26.25 30.6103 26.329 30.4697 26.4697C30.329 26.6103 30.25 26.8011 30.25 27V35.325C29.3395 35.5109 28.5304 36.0282 27.9796 36.7767C27.4288 37.5252 27.1756 38.4515 27.269 39.3761C27.3624 40.3007 27.7958 41.1577 28.4851 41.781C29.1745 42.4042 30.0707 42.7492 31 42.7492C31.9293 42.7492 32.8255 42.4042 33.5149 41.781C34.2042 41.1577 34.6376 40.3007 34.731 39.3761C34.8244 38.4515 34.5712 37.5252 34.0204 36.7767C33.4696 36.0282 32.6605 35.5109 31.75 35.325ZM31 41.25C30.555 41.25 30.12 41.118 29.75 40.8708C29.38 40.6236 29.0916 40.2722 28.9213 39.861C28.751 39.4499 28.7064 38.9975 28.7932 38.561C28.88 38.1246 29.0943 37.7237 29.409 37.409C29.7237 37.0943 30.1246 36.8801 30.561 36.7932C30.9975 36.7064 31.4499 36.751 31.861 36.9213C32.2722 37.0916 32.6236 37.38 32.8708 37.75C33.118 38.12 33.25 38.555 33.25 39C33.25 39.5967 33.0129 40.169 32.591 40.591C32.169 41.0129 31.5967 41.25 31 41.25ZM35.75 32.875V22C35.75 20.7402 35.2496 19.532 34.3588 18.6412C33.468 17.7504 32.2598 17.25 31 17.25C29.7402 17.25 28.532 17.7504 27.6412 18.6412C26.7504 19.532 26.25 20.7402 26.25 22V32.875C24.9732 33.8654 24.0379 35.23 23.5749 36.7781C23.112 38.3262 23.1444 39.9803 23.6678 41.5091C24.1912 43.0378 25.1794 44.3647 26.494 45.3042C27.8087 46.2437 29.3841 46.7487 31 46.7487C32.6159 46.7487 34.1913 46.2437 35.506 45.3042C36.8206 44.3647 37.8088 43.0378 38.3322 41.5091C38.8556 39.9803 38.888 38.3262 38.4251 36.7781C37.9621 35.23 37.0268 33.8654 35.75 32.875ZM31 45.25C29.6705 45.2487 28.3761 44.8235 27.3048 44.0362C26.2335 43.2489 25.4412 42.1406 25.043 40.8721C24.6448 39.6037 24.6614 38.2413 25.0904 36.983C25.5195 35.7247 26.3386 34.6359 27.4288 33.875C27.5293 33.805 27.6111 33.7114 27.6671 33.6025C27.7231 33.4935 27.7516 33.3725 27.75 33.25V22C27.75 21.138 28.0924 20.3114 28.7019 19.7019C29.3114 19.0924 30.138 18.75 31 18.75C31.862 18.75 32.6886 19.0924 33.2981 19.7019C33.9076 20.3114 34.25 21.138 34.25 22V33.25C34.2501 33.3708 34.2793 33.4898 34.3352 33.5969C34.3912 33.704 34.4721 33.7959 34.5713 33.865C35.6658 34.6244 36.489 35.7137 36.9209 36.974C37.3527 38.2342 37.3706 39.5995 36.9718 40.8706C36.5731 42.1418 35.7787 43.2522 34.7044 44.04C33.6301 44.8278 32.3322 45.2518 31 45.25Z" fill="#F7931A"/>
</svg>
