<?xml version="1.0" encoding="UTF-8"?>
<svg version="1.1" xmlns="http://www.w3.org/2000/svg" width="174" height="179">
<path d="M0 0 C0.6445816 -0.00511093 1.28916321 -0.01022186 1.95327759 -0.01548767 C4.07254461 -0.02932601 6.19148433 -0.02843136 8.31079102 -0.02612305 C9.79142883 -0.03001308 11.27206553 -0.03434838 12.75270081 -0.03910828 C15.85193504 -0.04655803 18.95105533 -0.04628823 22.05029297 -0.04101562 C26.01248497 -0.03522176 29.97420939 -0.05215562 33.93632412 -0.0753603 C36.99305425 -0.09012603 40.04967248 -0.09096551 43.10643196 -0.08785057 C44.56680286 -0.08836233 46.02718027 -0.09357273 47.4875164 -0.10366249 C49.53364923 -0.11606577 51.57888049 -0.10921328 53.625 -0.09765625 C54.78684311 -0.09828568 55.94868622 -0.0989151 57.14573669 -0.0995636 C60.81865332 0.32578136 63.2312053 1.35778655 66.37719727 3.2746582 C67.61938477 5.53637695 67.61938477 5.53637695 68.25219727 7.9621582 C68.47649414 8.77040039 68.70079102 9.57864258 68.93188477 10.41137695 C69.07883789 11.02625977 69.22579102 11.64114258 69.37719727 12.2746582 C70.2539209 12.06784424 71.13064453 11.86103027 72.03393555 11.64794922 C75.8024906 11.22717219 77.45398048 11.75083165 80.86938477 13.30200195 C81.89660645 13.7606665 82.92382812 14.21933105 83.98217773 14.69189453 C85.06128418 15.19358154 86.14039062 15.69526855 87.25219727 16.2121582 C88.3661084 16.71706787 89.48001953 17.22197754 90.62768555 17.7421875 C124.14238552 33.03984646 124.14238552 33.03984646 129.37719727 38.2746582 C130.11550124 45.14012405 128.27175801 49.77719297 125.31469727 55.8996582 C124.90058594 56.78717773 124.48647461 57.67469727 124.05981445 58.58911133 C121.30273954 64.46093573 118.41421106 70.26377848 115.45532227 76.03637695 C113.63977764 79.66280617 111.96917856 83.34875269 110.29907227 87.04418945 C109.73180333 88.29293911 109.16441895 89.54163632 108.59692383 90.7902832 C107.47128117 93.26806301 106.36150192 95.75112959 105.2590332 98.23950195 C98.45868794 113.20938952 87.80990201 123.75467726 75.37719727 134.2746582 C74.48774414 135.07645508 73.59829102 135.87825195 72.68188477 136.7043457 C71.73571289 137.53192383 70.78954102 138.35950195 69.81469727 139.2121582 C68.51338867 140.37038086 68.51338867 140.37038086 67.18579102 141.55200195 C63.64033147 143.72661622 61.47330443 143.69272419 57.37719727 143.2746582 C54.83935656 142.5227054 52.77082921 141.44704936 50.37719727 140.2746582 C50.27407227 140.9965332 50.17094727 141.7184082 50.06469727 142.4621582 C48.94145977 147.05722069 47.31650753 149.64845136 43.37719727 152.2746582 C40.89456316 152.50582795 38.52634441 152.62645641 36.04125977 152.64575195 C35.32489349 152.65478043 34.60852722 152.6638089 33.87045288 152.67311096 C32.35581639 152.68760682 30.84111737 152.69649857 29.32641602 152.70019531 C27.01674043 152.71208335 24.70974575 152.76125886 22.40063477 152.81176758 C20.92668943 152.82123354 19.45272773 152.82846775 17.97875977 152.83325195 C17.29214264 152.85278427 16.60552551 152.87231659 15.89810181 152.8924408 C12.06705772 152.85665355 10.5057228 152.38005592 7.50634766 149.92041016 C0.67796427 141.4352375 -2.81737472 129.5275049 -6.87280273 119.5246582 C-7.297146 118.4840625 -7.72148926 117.4434668 -8.15869141 116.37133789 C-8.56450439 115.35458984 -8.97031738 114.3378418 -9.38842773 113.2902832 C-9.74710938 112.39599609 -10.10579102 111.50170898 -10.4753418 110.58032227 C-11.04333496 108.94401855 -11.04333496 108.94401855 -11.62280273 107.2746582 C-11.88433136 106.57891693 -12.14585999 105.88317566 -12.41531372 105.16635132 C-15.55967172 95.62614297 -15.0573145 85.83210794 -15.02124023 75.9074707 C-15.02326431 73.93976738 -15.02617852 71.97206479 -15.02993774 70.00436401 C-15.03433914 65.90102932 -15.02799663 61.79789172 -15.01391602 57.69458008 C-14.99675744 52.43884821 -15.00672123 47.18357378 -15.02463341 41.92785835 C-15.03547262 37.87351022 -15.03202543 33.81927068 -15.02425003 29.76491928 C-15.02225192 27.82645488 -15.02469362 25.88798055 -15.03168869 23.94952774 C-15.03931288 21.24530084 -15.02768852 18.54181798 -15.01098633 15.83764648 C-15.01705902 15.04068863 -15.02313171 14.24373077 -15.02938843 13.42262268 C-14.97753441 8.88764908 -14.61589571 5.77251669 -11.62280273 2.2746582 C-7.80191085 0.09776454 -4.34058701 0.01722478 0 0 Z " fill="#373737" transform="translate(38.622802734375,11.725341796875)"/>
<path d="M0 0 C5.05365292 -0.09897181 10.10674024 -0.17151603 15.16113281 -0.21972656 C16.87998279 -0.23982628 18.59876452 -0.26711089 20.31738281 -0.30175781 C22.78988489 -0.35035034 25.2614821 -0.37298435 27.734375 -0.390625 C28.88459137 -0.42159271 28.88459137 -0.42159271 30.05804443 -0.45318604 C33.54932027 -0.45465013 35.58581916 -0.30404224 38.43847656 1.79003906 C40.49022162 4.69379082 41.20612666 7.5598822 42 11 C42.87672363 10.79318604 43.75344727 10.58637207 44.65673828 10.37329102 C48.42529334 9.95251398 50.07678322 10.47617345 53.4921875 12.02734375 C54.51940918 12.4860083 55.54663086 12.94467285 56.60498047 13.41723633 C57.68408691 13.91892334 58.76319336 14.42061035 59.875 14.9375 C60.98891113 15.44240967 62.10282227 15.94731934 63.25048828 16.4675293 C96.76518826 31.76518826 96.76518826 31.76518826 102 37 C102.73830398 43.86546585 100.89456074 48.50253477 97.9375 54.625 C97.31633301 55.9562793 97.31633301 55.9562793 96.68261719 57.31445312 C93.92554228 63.18627753 91.0370138 68.98912028 88.078125 74.76171875 C86.26258038 78.38814797 84.59198129 82.07409449 82.921875 85.76953125 C82.35460607 87.0182809 81.78722169 88.26697812 81.21972656 89.515625 C80.0940839 91.99340481 78.98430465 94.47647139 77.88183594 96.96484375 C74.65039907 104.07834237 71.16049059 110.12428072 66 116 C65.278125 116.83273438 64.55625 117.66546875 63.8125 118.5234375 C59.73850782 122.68523123 56.38608846 124.69167637 51 127 C48.88421853 128.90588252 46.94360536 130.93378517 44.97265625 132.98828125 C42.11213806 135.90544336 39.57952666 137.98244861 36 140 C31.80910013 139.9289678 28.59556337 139.15733802 25 137 C25.63716402 133.10858964 26.81366546 129.81630851 28.3984375 126.2109375 C28.87796875 125.10363281 29.3575 123.99632812 29.8515625 122.85546875 C30.8573224 120.55769421 31.86509506 118.2607995 32.875 115.96484375 C33.35710937 114.84980469 33.83921875 113.73476562 34.3359375 112.5859375 C34.77470215 111.5861084 35.2134668 110.5862793 35.66552734 109.55615234 C40.72153527 96.08271447 40.33357349 87.32780972 41 72 C24.83 72 8.66 72 -8 72 C-8 67.61474711 -7.87192739 65.74385478 -6 62 C-5.01 61.505 -5.01 61.505 -4 61 C-4.99 60.67 -5.98 60.34 -7 60 C-7 58.35 -7 56.7 -7 55 C-3.98968256 54.06576355 -3.13349732 53.95550089 0 55 C3.15020361 54.11680706 3.15020361 54.11680706 6 53 C6 49.37 6 45.74 6 42 C5.34 42 4.68 42 4 42 C3.67 40.68 3.34 39.36 3 38 C0.69 37.67 -1.62 37.34 -4 37 C-4.49397281 23.85483457 -4.49397281 23.85483457 -2 18 C-1.01 17.67 -0.02 17.34 1 17 C1 15.68 1 14.36 1 13 C1.99 13 2.98 13 4 13 C4 12.34 4 11.68 4 11 C2.35 11 0.7 11 -1 11 C-1.07442057 7.13013042 -1.04702186 3.7264085 0 0 Z " fill="#2C2C2C" transform="translate(66,13)"/>
<path d="M0 0 C5.05365292 -0.09897181 10.10674024 -0.17151603 15.16113281 -0.21972656 C16.87998279 -0.23982628 18.59876452 -0.26711089 20.31738281 -0.30175781 C22.78988489 -0.35035034 25.2614821 -0.37298435 27.734375 -0.390625 C28.88459137 -0.42159271 28.88459137 -0.42159271 30.05804443 -0.45318604 C33.62425392 -0.45468155 35.60295498 -0.29902842 38.4921875 1.87695312 C40.29111834 4.40990367 40.43051175 5.68130032 40.25 8.75 C40.21390625 9.54921875 40.1778125 10.3484375 40.140625 11.171875 C40.09421875 11.77515625 40.0478125 12.3784375 40 13 C40.99 13.33 41.98 13.66 43 14 C42.34 14.33 41.68 14.66 41 15 C40.67 33.81 40.34 52.62 40 72 C24.16 72 8.32 72 -8 72 C-8 67.61474711 -7.87192739 65.74385478 -6 62 C-5.01 61.505 -5.01 61.505 -4 61 C-4.99 60.67 -5.98 60.34 -7 60 C-7 58.35 -7 56.7 -7 55 C-3.98968256 54.06576355 -3.13349732 53.95550089 0 55 C3.15020361 54.11680706 3.15020361 54.11680706 6 53 C6 49.37 6 45.74 6 42 C5.34 42 4.68 42 4 42 C3.67 40.68 3.34 39.36 3 38 C0.69 37.67 -1.62 37.34 -4 37 C-4.49397281 23.85483457 -4.49397281 23.85483457 -2 18 C-1.01 17.67 -0.02 17.34 1 17 C1 15.68 1 14.36 1 13 C1.99 13 2.98 13 4 13 C4 12.34 4 11.68 4 11 C2.35 11 0.7 11 -1 11 C-1.07442057 7.13013042 -1.04702186 3.7264085 0 0 Z " fill="#0A0A0A" transform="translate(66,13)"/>
<path d="M0 0 C1.64547318 0.00666183 1.64547318 0.00666183 3.32418823 0.01345825 C4.56532379 0.01360931 5.80645935 0.01376038 7.08520508 0.01391602 C8.4446529 0.02413003 9.8040991 0.03456204 11.1635437 0.04519653 C12.55073849 0.04892619 13.93793591 0.05177339 15.32513428 0.05377197 C18.97813171 0.0614122 22.63097037 0.08106388 26.28390503 0.10317993 C30.01068982 0.12363007 33.73750024 0.1327719 37.46432495 0.14285278 C44.77819945 0.16430953 52.09194309 0.19845001 59.4057312 0.24050903 C59.4057312 0.57050903 59.4057312 0.90050903 59.4057312 1.24050903 C49.5057312 1.24050903 39.6057312 1.24050903 29.4057312 1.24050903 C29.4057312 3.88050903 29.4057312 6.52050903 29.4057312 9.24050903 C38.9757312 9.24050903 48.5457312 9.24050903 58.4057312 9.24050903 C58.4057312 9.57050903 58.4057312 9.90050903 58.4057312 10.24050903 C50.48687542 10.28679849 42.56807594 10.32236085 34.64911842 10.34413338 C30.9722377 10.35458177 27.29544937 10.36876005 23.61862183 10.39138794 C20.07193465 10.41307894 16.52533648 10.4250697 12.9785881 10.43026352 C11.62375868 10.43396604 10.26893426 10.44119593 8.91414261 10.45196915 C7.02027363 10.46643351 5.12631556 10.46732552 3.23239136 10.46755981 C2.15317413 10.47200104 1.07395691 10.47644226 -0.03796387 10.48101807 C-2.5942688 10.24050903 -2.5942688 10.24050903 -4.5942688 8.24050903 C-4.8442688 5.24050903 -4.8442688 5.24050903 -4.5942688 2.24050903 C-2.5942688 0.24050903 -2.5942688 0.24050903 0 0 Z " fill="#2A2A2A" transform="translate(36.594268798828125,92.75949096679688)"/>
<path d="M0 0 C1.4540625 0.0309375 1.4540625 0.0309375 2.9375 0.0625 C3.2675 1.7125 3.5975 3.3625 3.9375 5.0625 C4.5975 5.0625 5.2575 5.0625 5.9375 5.0625 C5.9375 8.6925 5.9375 12.3225 5.9375 16.0625 C1.53335492 18.44073834 1.53335492 18.44073834 -1.0625 19.0625 C-4.5 17.75 -4.5 17.75 -7.0625 16.0625 C-7.0625 12.4325 -7.0625 8.8025 -7.0625 5.0625 C-6.4025 5.0625 -5.7425 5.0625 -5.0625 5.0625 C-4.8459375 4.1034375 -4.8459375 4.1034375 -4.625 3.125 C-3.73376283 -0.14286963 -3.55757083 0.07260349 0 0 Z " fill="#DDDDDD" transform="translate(66.0625,49.9375)"/>
<path d="M0 0 C1.485 0.495 1.485 0.495 3 1 C-0.30251663 4.03550464 -3.64160253 7.02646664 -7 10 C-8.30904297 11.17755859 -8.30904297 11.17755859 -9.64453125 12.37890625 C-15.96630035 17.80727634 -15.96630035 17.80727634 -20.6875 18.6875 C-24.4939749 17.89747691 -27.51262503 16.70810203 -31 15 C-30.67 14.34 -30.34 13.68 -30 13 C-28.9790625 13.2165625 -28.9790625 13.2165625 -27.9375 13.4375 C-26.968125 13.623125 -25.99875 13.80875 -25 14 C-23.948125 14.350625 -22.89625 14.70125 -21.8125 15.0625 C-14.90442664 14.9492529 -10.55966497 9.35644832 -5.6875 4.87109375 C-4.98625 4.23300781 -4.285 3.59492188 -3.5625 2.9375 C-2.94503906 2.34839844 -2.32757813 1.75929687 -1.69140625 1.15234375 C-1.13324219 0.77207031 -0.57507813 0.39179688 0 0 Z " fill="#696969" transform="translate(120,137)"/>
<path d="M0 0 C0.87398437 0.09087891 0.87398437 0.09087891 1.765625 0.18359375 C8.50409957 0.87227433 15.24850516 1.45477619 22 2 C21.67 3.32 21.34 4.64 21 6 C19.66666667 6 18.33333333 6 17 6 C16.1028125 6.2784375 16.1028125 6.2784375 15.1875 6.5625 C12.76313455 7.04737309 11.3280562 6.74830378 9 6 C9 5.34 9 4.68 9 4 C8.34 4 7.68 4 7 4 C6.67 4.66 6.34 5.32 6 6 C4.68 6 3.36 6 2 6 C2 4.68 2 3.36 2 2 C1.34 2 0.68 2 0 2 C0 1.34 0 0.68 0 0 Z " fill="#656565" transform="translate(36,72)"/>
<path d="M0 0 C0.66 0.33 1.32 0.66 2 1 C2 1.66 2 2.32 2 3 C2.66 3 3.32 3 4 3 C4 6.63 4 10.26 4 14 C0.535 15.485 0.535 15.485 -3 17 C-4.32 16.01 -5.64 15.02 -7 14 C-4.69 13.34 -2.38 12.68 0 12 C0.33 10.02 0.66 8.04 1 6 C-1.31 6 -3.62 6 -6 6 C-6 5.34 -6 4.68 -6 4 C-4.02 4 -2.04 4 0 4 C0 2.68 0 1.36 0 0 Z " fill="#DCDCDC" transform="translate(68,52)"/>
<path d="M0 0 C0.61488281 0.0721875 1.22976562 0.144375 1.86328125 0.21875 C3.07564453 0.35796875 3.07564453 0.35796875 4.3125 0.5 C5.51326172 0.63921875 5.51326172 0.63921875 6.73828125 0.78125 C9.11896555 1.04813463 9.11896555 1.04813463 12 1 C11.67 2.65 11.34 4.3 11 6 C2.42857143 7.28571429 2.42857143 7.28571429 -1 6 C-0.01 5.34 0.98 4.68 2 4 C1.01 3.67 0.02 3.34 -1 3 C-0.67 2.01 -0.34 1.02 0 0 Z " fill="#454545" transform="translate(69,72)"/>
<path d="M0 0 C2.31 0 4.62 0 7 0 C7 1.98 7 3.96 7 6 C5.02 6.99 5.02 6.99 3 8 C2.01 7.34 1.02 6.68 0 6 C-0.1875 2.875 -0.1875 2.875 0 0 Z " fill="#0D0D0D" transform="translate(62,58)"/>
<path d="M0 0 C2.5 0.3125 2.5 0.3125 5 1 C5.33 1.66 5.66 2.32 6 3 C5.0625 5.125 5.0625 5.125 4 7 C2.68 7 1.36 7 0 7 C-0.38133299 5.0085944 -0.71325582 3.00720923 -1 1 C-0.67 0.67 -0.34 0.34 0 0 Z M-3 2 C-2.34 2.33 -1.68 2.66 -1 3 C-1.33 4.32 -1.66 5.64 -2 7 C-2.66 7 -3.32 7 -4 7 C-3.67 5.35 -3.34 3.7 -3 2 Z " fill="#242424" transform="translate(59,24)"/>
<path d="M0 0 C1.6045556 0.14148989 3.20863767 0.28835686 4.8125 0.4375 C5.70582031 0.51871094 6.59914063 0.59992188 7.51953125 0.68359375 C10 1 10 1 13 2 C13 2.66 13 3.32 13 4 C12.01 4 11.02 4 10 4 C9.67 4.66 9.34 5.32 9 6 C9 5.34 9 4.68 9 4 C8.34 4 7.68 4 7 4 C6.67 4.66 6.34 5.32 6 6 C4.68 6 3.36 6 2 6 C2 4.68 2 3.36 2 2 C1.34 2 0.68 2 0 2 C0 1.34 0 0.68 0 0 Z " fill="#7F7F7F" transform="translate(36,72)"/>
<path d="M0 0 C1.0209375 0.2165625 1.0209375 0.2165625 2.0625 0.4375 C7.99071506 1.59570509 7.99071506 1.59570509 14 2 C13.67 2.99 13.34 3.98 13 5 C7.34605369 5.34615998 3.96993194 4.43425238 -1 2 C-0.67 1.34 -0.34 0.68 0 0 Z " fill="#5C5C5C" transform="translate(90,150)"/>
<path d="M0 0 C0.66 0 1.32 0 2 0 C0.64002446 6.04433574 -2.85651794 9.63494136 -7 14 C-7.33 13.01 -7.66 12.02 -8 11 C-6.6015625 8.80859375 -6.6015625 8.80859375 -4.625 6.4375 C-2.0525231 3.38757937 -2.0525231 3.38757937 0 0 Z " fill="#6D6D6D" transform="translate(138,116)"/>
<path d="M0 0 C-0.33 1.65 -0.66 3.3 -1 5 C-3.31 5.33 -5.62 5.66 -8 6 C-7.67 5.01 -7.34 4.02 -7 3 C-7.33 2.67 -7.66 2.34 -8 2 C-8 1.67 -8 1.34 -8 1 C-2.25 -1.125 -2.25 -1.125 0 0 Z " fill="#6A6A6A" transform="translate(81,73)"/>
<path d="M0 0 C0.33 0 0.66 0 1 0 C1.33 1.65 1.66 3.3 2 5 C2.94875 4.79375 3.8975 4.5875 4.875 4.375 C6.421875 4.189375 6.421875 4.189375 8 4 C8.66 4.66 9.32 5.32 10 6 C9 7 9 7 6.93359375 7.09765625 C6.10988281 7.08605469 5.28617187 7.07445312 4.4375 7.0625 C3.61121094 7.05347656 2.78492187 7.04445313 1.93359375 7.03515625 C1.29550781 7.02355469 0.65742187 7.01195312 0 7 C0 4.69 0 2.38 0 0 Z " fill="#505050" transform="translate(106,19)"/>
<path d="M0 0 C0.99 0.33 1.98 0.66 3 1 C3 2.65 3 4.3 3 6 C1.68 6 0.36 6 -1 6 C-1.042721 4.33388095 -1.04063832 2.66617115 -1 1 C-0.67 0.67 -0.34 0.34 0 0 Z " fill="#5F5F5F" transform="translate(92,72)"/>
<path d="M0 0 C1.32 0 2.64 0 4 0 C3.49396008 2.16874252 3.00016187 3.99967627 2 6 C2.66 6.33 3.32 6.66 4 7 C2.35 7 0.7 7 -1 7 C-0.67 4.69 -0.34 2.38 0 0 Z " fill="#131313" transform="translate(72,24)"/>
<path d="M0 0 C0.99 0.33 1.98 0.66 3 1 C2.67 2.65 2.34 4.3 2 6 C1.01 5.67 0.02 5.34 -1 5 C-0.67 3.35 -0.34 1.7 0 0 Z " fill="#5A5A5A" transform="translate(83,73)"/>
<path d="M0 0 C0.99 0.33 1.98 0.66 3 1 C-1.39453125 5.00390625 -1.39453125 5.00390625 -3 6 C-3.99 5.67 -4.98 5.34 -6 5 C-1.60546875 0.99609375 -1.60546875 0.99609375 0 0 Z " fill="#636363" transform="translate(120,137)"/>
<path d="M0 0 C0.99 0 1.98 0 3 0 C1.25 5.75 1.25 5.75 -1 8 C-2.2077558 4.37673261 -1.54311128 3.35853631 0 0 Z " fill="#484848" transform="translate(148,93)"/>
<path d="M0 0 C1.98 0.495 1.98 0.495 4 1 C4 1.99 4 2.98 4 4 C2.35 4 0.7 4 -1 4 C-0.67 2.68 -0.34 1.36 0 0 Z " fill="#494949" transform="translate(64,52)"/>
<path d="M0 0 C5.75 1.75 5.75 1.75 8 4 C2.46153846 4.36923077 2.46153846 4.36923077 0.125 2.5 C-0.24625 2.005 -0.6175 1.51 -1 1 C-0.67 0.67 -0.34 0.34 0 0 Z " fill="#494848" transform="translate(153,42)"/>
<path d="M0 0 C2.475 0.495 2.475 0.495 5 1 C5 2.65 5 4.3 5 6 C4.01 6 3.02 6 2 6 C2 4.68 2 3.36 2 2 C1.34 2 0.68 2 0 2 C0 1.34 0 0.68 0 0 Z " fill="#747474" transform="translate(36,72)"/>
<path d="M0 0 C0.66 0 1.32 0 2 0 C1.46930939 3.82097239 0.50298434 6.06171403 -2 9 C-2 7.35 -2 5.7 -2 4 C-1.34 4 -0.68 4 0 4 C-0.33 3.01 -0.66 2.02 -1 1 C-0.67 0.67 -0.34 0.34 0 0 Z " fill="#555555" transform="translate(164,60)"/>
</svg>
