<?xml version="1.0" encoding="UTF-8"?>
<svg version="1.1" xmlns="http://www.w3.org/2000/svg" width="156" height="177">
<path d="M0 0 C0.69689941 0.02239746 1.39379883 0.04479492 2.11181641 0.06787109 C6.28759286 0.30168072 9.0385019 1.15200235 12.375 3.6875 C14.88996512 7.45994769 14.67769677 10.46488014 14.68139648 14.83642578 C14.68972 15.66787109 14.69804352 16.49931641 14.70661926 17.35595703 C14.73077674 20.1149563 14.73950469 22.87371852 14.74609375 25.6328125 C14.75506601 27.56078153 14.76418797 29.48874988 14.77345276 31.41671753 C14.78996801 35.47037442 14.79764568 39.52394858 14.80053711 43.57763672 C14.80587901 48.72722499 14.84337239 53.87601302 14.88928127 59.02537727 C14.91932043 63.01674072 14.92626667 67.00791929 14.92726326 70.99938583 C14.93142388 72.89447512 14.94368716 74.78956715 14.96478081 76.68454361 C15.14707513 94.5018546 10.99003528 108.85209719 3.875 125.125 C3.41480469 126.20458984 2.95460938 127.28417969 2.48046875 128.39648438 C0.33015649 133.39671753 -1.88735067 138.36658097 -4.21875 143.28515625 C-4.77079102 144.45510132 -4.77079102 144.45510132 -5.33398438 145.64868164 C-6.90151632 148.12418453 -8.03611285 149.28449195 -10.625 150.6875 C-13.18549389 151.00336097 -15.49821383 151.1554977 -18.05859375 151.15625 C-18.77354507 151.16386353 -19.4884964 151.17147705 -20.22511292 151.17932129 C-21.73378008 151.19010226 -23.24252175 151.1929835 -24.7512207 151.18847656 C-27.05221752 151.18750434 -29.34987525 151.22913529 -31.65039062 151.2734375 C-33.11978475 151.27864524 -34.5891904 151.28133268 -36.05859375 151.28125 C-36.74207382 151.29764526 -37.42555389 151.31404053 -38.12974548 151.33093262 C-41.9627789 151.27583811 -43.52544461 150.76829858 -46.53930664 148.32226562 C-48.625 145.6875 -48.625 145.6875 -49.5625 142.9375 C-50.0884375 141.82375 -50.0884375 141.82375 -50.625 140.6875 C-51.52734375 140.58566406 -52.4296875 140.48382813 -53.359375 140.37890625 C-57.50205575 139.50180758 -59.303177 137.47801216 -61.9375 134.375 C-62.40897461 133.83955566 -62.88044922 133.30411133 -63.36621094 132.75244141 C-68.10001599 127.2997993 -72.40860211 121.5458222 -76.625 115.6875 C-77.27597656 114.83285156 -77.92695312 113.97820312 -78.59765625 113.09765625 C-79.20480469 112.28167969 -79.81195313 111.46570313 -80.4375 110.625 C-81.22060547 109.58666016 -81.22060547 109.58666016 -82.01953125 108.52734375 C-86.71108866 100.22865217 -88.94468469 90.50912183 -91.515625 81.390625 C-91.86510193 80.15761658 -92.21457886 78.92460815 -92.574646 77.65423584 C-93.30700611 75.06671593 -94.03590122 72.47824863 -94.76269531 69.88916016 C-95.6905501 66.58615658 -96.63068655 63.28678382 -97.57382584 59.98811722 C-98.47926327 56.81208849 -99.37160668 53.63238355 -100.265625 50.453125 C-100.60305725 49.27695618 -100.9404895 48.10078735 -101.28814697 46.88897705 C-104.46874317 35.45504318 -104.46874317 35.45504318 -103.625 30.6875 C-100.22423824 26.90574003 -96.3773976 25.71798101 -91.57421875 24.328125 C-90.91541214 24.13402039 -90.25660553 23.93991577 -89.57783508 23.7399292 C-87.49239431 23.12818546 -85.40273137 22.53264369 -83.3125 21.9375 C-81.88966324 21.52320103 -80.46713331 21.10784677 -79.04492188 20.69140625 C-75.57507861 19.677877 -72.10126396 18.67881434 -68.625 17.6875 C-68.58761719 16.86765625 -68.55023438 16.0478125 -68.51171875 15.203125 C-68.44597656 14.12546875 -68.38023438 13.0478125 -68.3125 11.9375 C-68.22548828 10.33648438 -68.22548828 10.33648438 -68.13671875 8.703125 C-67.58587183 5.4569126 -66.91515812 4.01573676 -64.625 1.6875 C-60.88368098 0.44039366 -57.28139141 0.31413192 -53.375 0.125 C-52.08650146 0.0623999 -52.08650146 0.0623999 -50.77197266 -0.00146484 C-33.89785013 -0.71957497 -16.87469259 -0.72868807 0 0 Z " fill="#393939" transform="translate(116.625,18.3125)"/>
<path d="M0 0 C1.07879425 -0.00855011 1.07879425 -0.00855011 2.17938232 -0.01727295 C3.70599897 -0.02673861 5.2326362 -0.03326312 6.75927734 -0.03710938 C9.08598074 -0.04677779 11.41178683 -0.07776905 13.73828125 -0.109375 C15.22134892 -0.11590869 16.70442292 -0.12115772 18.1875 -0.125 C18.88039124 -0.1373468 19.57328247 -0.1496936 20.28717041 -0.16241455 C24.62394359 -0.14260708 27.53117939 0.33990937 30.859375 3.203125 C31.94723295 7.05038852 31.98062855 10.75754716 31.97290039 14.73754883 C31.97282486 16.03852005 31.97274933 17.33949127 31.97267151 18.67988586 C31.96756562 20.08997639 31.96234964 21.50006651 31.95703125 22.91015625 C31.95516479 24.36032563 31.95374196 25.81049565 31.95274353 27.26066589 C31.9489363 31.06645466 31.93912142 34.87220491 31.92803955 38.67797852 C31.91598225 43.25020298 31.91141464 47.82244037 31.90558624 52.39467621 C31.89590863 59.33085255 31.87673957 66.26694446 31.859375 73.203125 C15.359375 73.203125 -1.140625 73.203125 -18.140625 73.203125 C-17.150625 72.708125 -17.150625 72.708125 -16.140625 72.203125 C-16.140625 70.223125 -16.140625 68.243125 -16.140625 66.203125 C-15.150625 66.203125 -14.160625 66.203125 -13.140625 66.203125 C-13.140625 64.883125 -13.140625 63.563125 -13.140625 62.203125 C-14.130625 61.543125 -15.120625 60.883125 -16.140625 60.203125 C-15.480625 58.223125 -14.820625 56.243125 -14.140625 54.203125 C-11.2109375 54.25195312 -11.2109375 54.25195312 -8.28125 54.30078125 C-5.80063324 54.25842756 -5.80063324 54.25842756 -2.140625 53.203125 C-2.140625 49.903125 -2.140625 46.603125 -2.140625 43.203125 C-2.800625 43.203125 -3.460625 43.203125 -4.140625 43.203125 C-4.346875 42.39875 -4.553125 41.594375 -4.765625 40.765625 C-5.44625 39.4971875 -5.44625 39.4971875 -6.140625 38.203125 C-9.18229343 37.5016065 -9.18229343 37.5016065 -12.140625 37.203125 C-11.50774785 27.47680252 -10.43630047 17.85995621 -9.140625 8.203125 C-8.975625 6.91148438 -8.810625 5.61984375 -8.640625 4.2890625 C-7.75107912 -1.2011035 -4.80018623 0.02910207 0 0 Z " fill="#0D0D0D" transform="translate(98.140625,18.796875)"/>
<path d="M0 0 C-0.00079559 0.91216278 -0.00159119 1.82432556 -0.00241089 2.76412964 C-0.00463628 11.44132897 0.02224473 20.117876 0.0802784 28.79488945 C0.10911579 33.25386123 0.12744202 37.71231608 0.12011719 42.17138672 C0.11343684 46.49012465 0.13649278 50.80784894 0.17855453 55.12637711 C0.18953333 56.7582042 0.19052693 58.39013609 0.18042374 60.02196884 C0.09663173 75.5737508 4.17324553 88.76861824 10.921875 102.73828125 C14.09732573 109.39982464 14.09732573 109.39982464 13.625 112.3125 C13.41875 112.869375 13.2125 113.42625 13 114 C7.09333539 110.78831444 4.00876031 106.28367753 0 101 C-1.00165319 99.72321171 -2.0043172 98.44721598 -3.0078125 97.171875 C-4.06865688 95.80281781 -5.12855357 94.43302575 -6.1875 93.0625 C-6.68644775 92.43126221 -7.18539551 91.80002441 -7.69946289 91.1496582 C-15.19867332 81.30904841 -18.32129592 70.09661578 -21.375 58.3125 C-22.14799136 55.38295361 -22.92730451 52.45510365 -23.70703125 49.52734375 C-23.8990361 48.80295105 -24.09104095 48.07855835 -24.28886414 47.33221436 C-26.33350513 39.65944279 -28.60185199 32.05340438 -30.96826172 24.47387695 C-32.44948995 19.57732422 -33.73670828 15.16359497 -33 10 C-30.09562991 6.60547173 -26.02749876 6.03119236 -21.8125 5 C-16.75285219 3.73600487 -11.81240942 2.35890155 -6.9296875 0.515625 C-4.57454001 -0.11368567 -2.4286553 -0.03289375 0 0 Z " fill="#E7B0A3" transform="translate(49,40)"/>
<path d="M0 0 C1.64547318 0.00666183 1.64547318 0.00666183 3.32418823 0.01345825 C4.56532379 0.01360931 5.80645935 0.01376038 7.08520508 0.01391602 C8.4446529 0.02413003 9.8040991 0.03456204 11.1635437 0.04519653 C12.55073849 0.04892619 13.93793591 0.05177339 15.32513428 0.05377197 C18.97813171 0.0614122 22.63097037 0.08106388 26.28390503 0.10317993 C30.01068982 0.12363007 33.73750024 0.1327719 37.46432495 0.14285278 C44.77819945 0.16430953 52.09194309 0.19845001 59.4057312 0.24050903 C59.4057312 0.57050903 59.4057312 0.90050903 59.4057312 1.24050903 C49.8357312 1.24050903 40.2657312 1.24050903 30.4057312 1.24050903 C30.4057312 3.55050903 30.4057312 5.86050903 30.4057312 8.24050903 C34.48156297 8.19635958 38.55606743 8.12653477 42.631073 8.0329895 C44.01701516 8.00478106 45.40311816 7.9835657 46.78927612 7.96951294 C48.78280524 7.94808482 50.77598166 7.89933889 52.76901245 7.84988403 C53.96824341 7.82893677 55.16747437 7.8079895 56.40304565 7.78640747 C59.5160096 7.52784942 59.5160096 7.52784942 61.32052612 5.2024231 C61.6786438 4.55499146 62.03676147 3.90755981 62.4057312 3.24050903 C62.0932312 5.61550903 62.0932312 5.61550903 61.4057312 8.24050903 C57.96161311 10.53658776 56.6617688 10.49736905 52.60494995 10.51516724 C51.4136145 10.52469925 50.22227905 10.53423126 48.99484253 10.54405212 C47.70731079 10.54314072 46.41977905 10.54222931 45.0932312 10.54129028 C43.75948961 10.54517742 42.42574925 10.54951212 41.0920105 10.55427551 C38.2977802 10.56173494 35.50367627 10.56144821 32.70944214 10.55618286 C29.128019 10.55038373 25.54711226 10.56733054 21.96577454 10.59052753 C19.21197484 10.60525491 16.45829987 10.60613806 13.70446777 10.60301781 C11.74182867 10.60378111 9.77920892 10.61766016 7.81661987 10.63169861 C6.0296167 10.62235542 6.0296167 10.62235542 4.20651245 10.61282349 C3.15632935 10.61345291 2.10614624 10.61408234 1.0241394 10.61473083 C-1.5942688 10.24050903 -1.5942688 10.24050903 -3.43728638 8.87739563 C-5.06741615 6.57110513 -4.94769665 4.99724625 -4.5942688 2.24050903 C-2.5942688 0.24050903 -2.5942688 0.24050903 0 0 Z " fill="#303030" transform="translate(60.594268798828125,98.75949096679688)"/>
<path d="M0 0 C0.99 0 1.98 0 3 0 C3.15033691 0.57854736 3.30067383 1.15709473 3.45556641 1.75317383 C7.89431732 18.61405266 13.64598113 30.86386928 24.65576172 44.32958984 C25.91856165 45.8988011 27.13493042 47.50505748 28.34765625 49.11328125 C29.03730469 50.02464844 29.72695313 50.93601563 30.4375 51.875 C31.33275391 53.07769531 31.33275391 53.07769531 32.24609375 54.3046875 C34.07279039 56.46332967 34.07279039 56.46332967 38 56 C40.1385485 58.1385485 40.42655063 59.13275314 41 62 C38 63 38 63 35.578125 61.83984375 C27.11328622 55.79902698 21.04233666 46.31787843 15 38 C14.34644531 37.14277344 13.69289063 36.28554687 13.01953125 35.40234375 C8.68214363 29.56675401 6.09579615 23.94401127 4 17 C3.62746094 15.77796875 3.25492188 14.5559375 2.87109375 13.296875 C0 3.57317073 0 3.57317073 0 0 Z " fill="#746F6D" transform="translate(25,96)"/>
<path d="M0 0 C0.33 1.65 0.66 3.3 1 5 C1.66 5 2.32 5 3 5 C3 8.3 3 11.6 3 15 C-1.53815546 17.26907773 -3.17169942 17.00210012 -8 16 C-9.63837345 14.36162655 -9.17085921 12.49983422 -9.1875 10.25 C-9.14913565 6.41904548 -8.96667227 3.38704669 -7 0 C-4.3333581 -1.33332095 -2.83319697 -0.67102033 0 0 Z " fill="#EBEBEB" transform="translate(93,57)"/>
<path d="M0 0 C-2.64 0.66 -5.28 1.32 -8 2 C-8 2.66 -8 3.32 -8 4 C-8.99 4.66 -9.98 5.32 -11 6 C-11.54954461 11.31005754 -10.41155795 15.8628515 -8.8125 20.875 C-8.59053955 21.60315918 -8.3685791 22.33131836 -8.13989258 23.08154297 C-7.43577862 25.39064076 -6.71950424 27.69565489 -6 30 C-5.05130732 33.03836341 -4.11560045 36.08029153 -3.1875 39.125 C-2.96876221 39.81062012 -2.75002441 40.49624023 -2.5246582 41.20263672 C-1.19057342 45.5844476 -0.79232131 49.4310689 -1 54 C-3.38801053 51.87127213 -4.4790034 50.26053481 -5.3503418 47.19042969 C-5.57034348 46.4324408 -5.79034515 45.6744519 -6.01701355 44.89349365 C-6.24214127 44.0778595 -6.46726898 43.26222534 -6.69921875 42.421875 C-6.9391304 41.57707581 -7.17904205 40.73227661 -7.42622375 39.86187744 C-7.93103708 38.07449104 -8.43085214 36.2856865 -8.92602539 34.49560547 C-9.68190221 31.77018362 -10.45787327 29.05107869 -11.23632812 26.33203125 C-11.72518075 24.5914887 -12.21284949 22.85061312 -12.69921875 21.109375 C-12.93041916 20.30183777 -13.16161957 19.49430054 -13.39982605 18.66229248 C-14.66934793 14.01582966 -15.43745215 9.86332508 -15 5 C-10.75057186 0.37562232 -6.0870378 -1.52175945 0 0 Z " fill="#5C5655" transform="translate(28,44)"/>
<path d="M0 0 C1.64547318 0.00666183 1.64547318 0.00666183 3.32418823 0.01345825 C4.56532379 0.01360931 5.80645935 0.01376038 7.08520508 0.01391602 C8.4446529 0.02413003 9.8040991 0.03456204 11.1635437 0.04519653 C12.55073849 0.04892619 13.93793591 0.05177339 15.32513428 0.05377197 C18.97813171 0.0614122 22.63097037 0.08106388 26.28390503 0.10317993 C30.01068982 0.12363007 33.73750024 0.1327719 37.46432495 0.14285278 C44.77819945 0.16430953 52.09194309 0.19845001 59.4057312 0.24050903 C59.4057312 0.57050903 59.4057312 0.90050903 59.4057312 1.24050903 C39.6057312 1.57050903 19.8057312 1.90050903 -0.5942688 2.24050903 C-0.9242688 3.89050903 -1.2542688 5.54050903 -1.5942688 7.24050903 C1.02750899 8.55139793 3.02097754 8.4013461 5.95700073 8.4458313 C7.69857956 8.47574913 7.69857956 8.47574913 9.4753418 8.50627136 C10.73369843 8.52298386 11.99205505 8.53969635 13.2885437 8.55691528 C14.57308441 8.57769638 15.85762512 8.59847748 17.18109131 8.61988831 C20.59722479 8.67509952 24.01341865 8.72451291 27.42965698 8.7727356 C30.91522601 8.8229576 34.40070729 8.87864 37.88619995 8.93386841 C44.72596762 9.04143831 51.56581454 9.14288587 58.4057312 9.24050903 C58.4057312 9.57050903 58.4057312 9.90050903 58.4057312 10.24050903 C50.63456813 10.30999712 42.86347773 10.36331405 35.09208202 10.39594555 C31.48354817 10.41160654 27.87522676 10.43285219 24.26681519 10.46682739 C20.78494998 10.4994062 17.30328919 10.51735879 13.82128334 10.52514076 C11.84531024 10.53338759 9.86941945 10.55680942 7.89356995 10.58039856 C6.69255142 10.58062515 5.4915329 10.58085175 4.25411987 10.58108521 C2.66527229 10.59107796 2.66527229 10.59107796 1.04432678 10.60127258 C-1.5942688 10.24050903 -1.5942688 10.24050903 -3.44026184 8.87937927 C-5.06553137 6.57124253 -4.94758479 4.99637374 -4.5942688 2.24050903 C-2.5942688 0.24050903 -2.5942688 0.24050903 0 0 Z " fill="#181818" transform="translate(60.594268798828125,98.75949096679688)"/>
<path d="M0 0 C5.13664018 1.93791425 7.59607509 6.42079867 10.78125 10.6640625 C11.5134375 11.43492187 12.245625 12.20578125 13 13 C14.32 13 15.64 13 17 13 C19.1385485 15.1385485 19.42655063 16.13275314 20 19 C17 20 17 20 14.6015625 18.859375 C7.96288843 14.11461695 2.53925956 7.78706264 0 0 Z " fill="#726D6C" transform="translate(46,139)"/>
<path d="M0 0 C5.61 0 11.22 0 17 0 C16.01 0.33 15.02 0.66 14 1 C14 1.99 14 2.98 14 4 C13.34 4 12.68 4 12 4 C12 3.01 12 2.02 12 1 C11.34 1 10.68 1 10 1 C9.67 1.99 9.34 2.98 9 4 C9 3.34 9 2.68 9 2 C8.34 2 7.68 2 7 2 C7.33 2.99 7.66 3.98 8 5 C5.69 5 3.38 5 1 5 C0.67 3.35 0.34 1.7 0 0 Z " fill="#787878" transform="translate(70,80)"/>
<path d="M0 0 C2.64 0 5.28 0 8 0 C8 1.98 8 3.96 8 6 C5.6875 7.125 5.6875 7.125 3 8 C2.01 7.34 1.02 6.68 0 6 C-0.1875 2.875 -0.1875 2.875 0 0 Z " fill="#1E1E1E" transform="translate(86,64)"/>
<path d="M0 0 C0.99 0 1.98 0 3 0 C3.67668949 2.20528272 4.34093498 4.41438609 5 6.625 C5.37125 7.85476562 5.7425 9.08453125 6.125 10.3515625 C6.93727719 13.73846826 7.17041013 16.53854429 7 20 C3.55774997 17.31721488 2.92821008 14.10376121 1.8125 10 C1.46832031 8.7625 1.12414062 7.525 0.76953125 6.25 C0 3 0 3 0 0 Z " fill="#646060" transform="translate(25,96)"/>
<path d="M0 0 C0.33 0.66 0.66 1.32 1 2 C0.67 2.99 0.34 3.98 0 5 C-1.98 5 -3.96 5 -6 5 C-6.33 3.35 -6.66 1.7 -7 0 C-4.30234372 -1.34882814 -2.84835666 -0.80338265 0 0 Z " fill="#9C9C9C" transform="translate(93,57)"/>
<path d="M0 0 C-6.83102288 3.5535119 -13.38898472 5.02125692 -21 6 C-18.4345406 3.4345406 -16.52313332 3.45953913 -13 3 C-13 2.34 -13 1.68 -13 1 C-11.39796533 0.63631108 -9.79325797 0.28438048 -8.1875 -0.0625 C-7.29417969 -0.25972656 -6.40085937 -0.45695312 -5.48046875 -0.66015625 C-3 -1 -3 -1 0 0 Z " fill="#322C2B" transform="translate(41,41)"/>
<path d="M0 0 C2.1385485 2.1385485 2.42655063 3.13275314 3 6 C0 7 0 7 -2.6875 5.75 C-3.450625 5.1725 -4.21375 4.595 -5 4 C-5 3.01 -5 2.02 -5 1 C-2.625 0.375 -2.625 0.375 0 0 Z " fill="#887A78" transform="translate(63,152)"/>
<path d="M0 0 C-2.64 0.66 -5.28 1.32 -8 2 C-8 2.66 -8 3.32 -8 4 C-8.61875 4.45375 -9.2375 4.9075 -9.875 5.375 C-12.13442278 7.10279389 -12.92750301 8.40813228 -14 11 C-14.25 7.6875 -14.25 7.6875 -14 4 C-10.24610403 -0.18703782 -5.28285714 -1.32071428 0 0 Z " fill="#4A4848" transform="translate(28,44)"/>
<path d="M0 0 C1.32 0 2.64 0 4 0 C4 1.65 4 3.3 4 5 C1.36 5 -1.28 5 -4 5 C-4.33 4.34 -4.66 3.68 -5 3 C-3.35 2.67 -1.7 2.34 0 2 C0 1.34 0 0.68 0 0 Z " fill="#666666" transform="translate(97,80)"/>
<path d="M0 0 C3 2 3 2 3.58203125 4.05859375 C3.65808594 4.84363281 3.73414063 5.62867188 3.8125 6.4375 C3.90144531 7.21996094 3.99039062 8.00242187 4.08203125 8.80859375 C4 11 4 11 2 14 C0.4087311 9.126739 -0.21192221 5.19209404 0 0 Z " fill="#605D5A" transform="translate(13,49)"/>
<path d="M0 0 C-3.52155964 2.34770643 -5.50771843 2.37669614 -9.6875 2.625 C-10.86699219 2.69976562 -12.04648437 2.77453125 -13.26171875 2.8515625 C-14.16535156 2.90054688 -15.06898437 2.94953125 -16 3 C-10.73077357 -0.51281762 -6.16352144 -1.50329791 0 0 Z " fill="#625F5E" transform="translate(47,39)"/>
<path d="M0 0 C0.99 0.33 1.98 0.66 3 1 C3 2.65 3 4.3 3 6 C1.68 6 0.36 6 -1 6 C-1.042721 4.33388095 -1.04063832 2.66617115 -1 1 C-0.67 0.67 -0.34 0.34 0 0 Z " fill="#5A5A5A" transform="translate(116,78)"/>
<path d="M0 0 C0.66 0 1.32 0 2 0 C3.1577506 3.47325181 3.06866652 6.36067448 3 10 C1.5 8.9375 1.5 8.9375 0 7 C-0.1875 3.3125 -0.1875 3.3125 0 0 Z " fill="#453E3C" transform="translate(24,88)"/>
<path d="M0 0 C0.99 0.495 0.99 0.495 2 1 C2.4140625 3.06640625 2.4140625 3.06640625 2.625 5.5625 C2.69976563 6.38878906 2.77453125 7.21507813 2.8515625 8.06640625 C2.92503906 9.02353516 2.92503906 9.02353516 3 10 C2.34 10 1.68 10 1 10 C0.67 6.7 0.34 3.4 0 0 Z " fill="#403D3D" transform="translate(19,71)"/>
<path d="M0 0 C0.66 0.33 1.32 0.66 2 1 C2 1.66 2 2.32 2 3 C-1.375 3.625 -1.375 3.625 -5 4 C-5.66 3.34 -6.32 2.68 -7 2 C-6.401875 1.855625 -5.80375 1.71125 -5.1875 1.5625 C-3.43849596 1.1127561 -1.71322977 0.57107659 0 0 Z " fill="#D8D8D8" transform="translate(92,70)"/>
<path d="M0 0 C0.99 0 1.98 0 3 0 C3.625 2.875 3.625 2.875 4 6 C3.34 6.66 2.68 7.32 2 8 C0.74335022 5.09399739 0 3.20395416 0 0 Z " fill="#7E7978" transform="translate(30,114)"/>
<path d="M0 0 C1.32 0 2.64 0 4 0 C3.67 1.65 3.34 3.3 3 5 C2.01 4.67 1.02 4.34 0 4 C0 2.68 0 1.36 0 0 Z " fill="#6A6A6A" transform="translate(106,80)"/>
</svg>
