<svg width="580" height="400" viewBox="0 0 580 400" fill="none" xmlns="http://www.w3.org/2000/svg">
<rect x="0.5" y="0.5" width="579" height="399" rx="19.5" fill="#0D0D0D"/>
<rect x="0.5" y="0.5" width="579" height="399" rx="19.5" stroke="#494949"/>
<g clip-path="url(#clip0_3603_27652)">
<path d="M141.789 171.83C141.789 158.259 129.861 147 115.34 147C100.817 147 88.8861 158.264 88.8861 171.827V179.766H78V236.847L115.332 254L152.686 236.852V180.018H141.8L141.792 171.827L141.789 171.83ZM102.37 171.83C102.37 165.431 108.078 160.311 115.34 160.311C122.602 160.311 128.305 165.431 128.305 171.83V179.766H102.373L102.37 171.83ZM137.642 227.635L115.33 237.881L93.0248 227.643V193.334H137.64L137.642 227.635Z" fill="white"/>
<path d="M183.027 179.766H229.967V193.334H213.887V237.104H198.847V193.334H183.027V179.766ZM283.912 198.963C283.912 187.442 275.871 180.02 263.943 180.02H236.709V237.101H251.752V217.906H257.458L268.089 237.101H285.481L272.774 215.859C278.206 213.812 283.912 208.432 283.912 198.963ZM262.14 204.595H251.752V193.074H262.127C266.016 193.074 268.609 195.381 268.609 198.709C268.609 202.291 266.016 204.595 262.127 204.595H262.14ZM290.911 179.766H332.926V193.077H305.952V201.525H332.149V214.579H305.952V223.79H332.926V237.104H290.911V179.766ZM417.211 178.994C399.578 178.994 387.135 191.539 387.135 208.435C387.135 225.328 399.835 237.881 417.211 237.881C434.587 237.881 447.555 225.339 447.555 208.443C447.555 191.547 434.847 178.997 417.211 178.997V178.994ZM417.211 224.562C408.396 224.562 402.428 217.906 402.428 208.448C402.428 198.719 408.396 192.329 417.211 192.329C426.029 192.329 432.254 198.987 432.254 208.445C432.254 217.906 426.029 224.559 417.211 224.559V224.562ZM489.829 215.859C495.272 213.812 500.983 208.432 500.983 198.963C500.983 187.442 492.941 180.02 481.011 180.02H453.782V237.101H468.823V217.906H474.539L485.17 237.101H502.547L489.829 215.859ZM479.195 204.595H468.823V193.074H479.195C483.089 193.074 485.68 195.381 485.68 198.709C485.68 202.291 483.089 204.595 479.195 204.595ZM340.187 179.766H384.535V191.284L360.416 223.538H384.535V237.104H340.187V225.583L364.306 193.334H340.187V179.766Z" fill="white"/>
</g>
<defs>
<clipPath id="clip0_3603_27652">
<rect width="424.546" height="107" fill="white" transform="translate(78 147)"/>
</clipPath>
</defs>
</svg>
