<?xml version="1.0" encoding="UTF-8"?>
<svg version="1.1" xmlns="http://www.w3.org/2000/svg" width="170" height="215">
<path d="M0 0 C3.78902173 0.00536309 7.57792521 0.00002827 11.36694336 -0.00634766 C13.81290716 -0.00568684 16.25887088 -0.00440561 18.70483398 -0.00244141 C19.81875015 -0.00446564 20.93266632 -0.00648987 22.08033752 -0.00857544 C44.91508443 0.05838204 44.91508443 0.05838204 50.36499023 5.16943359 C54.57767829 11.2116319 55.17041747 16.53422244 55.12036133 23.69897461 C55.12561829 24.63335861 55.13087524 25.56774261 55.1362915 26.53044128 C55.14944884 29.60689224 55.14076334 32.68282146 55.13061523 35.75927734 C55.13263838 37.91291909 55.13555182 40.06656017 55.13931274 42.22019958 C55.14373135 46.73337325 55.13732426 51.24636859 55.12329102 55.75952148 C55.10627161 61.50995268 55.11599734 67.25996151 55.13400841 73.01037693 C55.14492037 77.46055705 55.14136489 81.91063939 55.13362503 86.36082268 C55.13163969 88.4788512 55.13402293 90.59688894 55.14106369 92.71490669 C55.17742172 106.73588063 54.61485151 119.71743538 49.34936523 132.91943359 C48.90850586 134.03632568 48.46764648 135.15321777 48.01342773 136.30395508 C47.54936523 137.44292236 47.08530273 138.58188965 46.60717773 139.75537109 C46.12506836 140.95943604 45.64295898 142.16350098 45.14624023 143.40405273 C40.96257428 153.76344269 36.63431993 164.08689225 31.73217773 174.13037109 C31.27842773 175.07009766 30.82467773 176.00982422 30.35717773 176.97802734 C28.14955794 179.90206222 26.12515315 180.74610919 22.73217773 182.13037109 C19.96166558 182.40077308 17.42827724 182.52904105 14.66577148 182.49365234 C13.90925797 182.49415085 13.15274445 182.49464935 12.37330627 182.49516296 C10.78237262 182.49283363 9.19143449 182.48317282 7.60058594 182.46655273 C5.17340993 182.44290745 2.74733079 182.44600687 0.32006836 182.45263672 C-1.23137044 182.44706065 -2.78280465 182.43995121 -4.33422852 182.43115234 C-5.05518204 182.43206375 -5.77613556 182.43297516 -6.51893616 182.43391418 C-10.51923395 182.37792025 -13.76366815 182.1316837 -17.26782227 180.13037109 C-22.75246782 173.53535778 -25.84937192 164.70650958 -29.14282227 156.88037109 C-29.39972839 156.27453186 -29.65663452 155.66869263 -29.92132568 155.04449463 C-33.42828878 146.76830035 -36.78513529 138.44073175 -39.89282227 130.00537109 C-40.21105957 129.14911133 -40.52929688 128.29285156 -40.85717773 127.41064453 C-44.13933355 118.25240018 -45.56920749 109.51906495 -45.54248047 99.80297852 C-45.5475914 98.82443909 -45.55270233 97.84589966 -45.55796814 96.83770752 C-45.57175114 93.637021 -45.57091705 90.43655231 -45.56860352 87.23583984 C-45.57249439 84.9976646 -45.57682987 82.75949009 -45.58158875 80.52131653 C-45.58902493 75.847113 -45.58877692 71.17298506 -45.58349609 66.4987793 C-45.57768058 60.5088004 -45.59469529 54.51912863 -45.61784077 48.52920055 C-45.63256112 43.91470024 -45.63345253 39.30027441 -45.63033104 34.68575478 C-45.6308443 32.47654928 -45.63608299 30.26733962 -45.64614296 28.05815697 C-45.65846772 24.97549653 -45.65174116 21.89344161 -45.64013672 18.81079102 C-45.65160233 17.44468437 -45.65160233 17.44468437 -45.66329956 16.05097961 C-45.62322197 11.23861864 -45.37781894 8.048391 -42.26782227 4.13037109 C-33.81676657 -3.98165774 -10.91164626 -0.0183924 0 0 Z " fill="#4B4B4B" transform="translate(85.267822265625,17.86962890625)"/>
<path d="M0 0 C8.38853685 -0.09276481 16.77685865 -0.16379728 25.16578197 -0.20724869 C29.0613081 -0.22810547 32.95648277 -0.2563873 36.85180664 -0.30175781 C40.61250058 -0.34528508 44.3728569 -0.36915148 48.13378334 -0.37950897 C49.56711452 -0.38688812 51.00042765 -0.4012982 52.43361473 -0.42292023 C54.44408454 -0.45203957 56.45489555 -0.45363462 58.46557617 -0.45410156 C59.60919113 -0.46298401 60.75280609 -0.47186646 61.93107605 -0.48101807 C65.69106089 0.10831574 67.33418252 1.32796981 70 4 C71.18872138 7.56616414 71.13208696 10.79091341 71.11352539 14.50073242 C71.11367142 15.26194901 71.11381744 16.02316559 71.1139679 16.80744934 C71.11327124 19.3234848 71.10549038 21.83944622 71.09765625 24.35546875 C71.09579119 26.09995992 71.0943677 27.8444516 71.09336853 29.58894348 C71.08955026 34.18058722 71.07972584 38.77219933 71.06866455 43.36383057 C71.05663719 48.8729563 71.0520449 54.38209261 71.04621124 59.89122772 C71.03651374 68.26084048 71.01735235 76.63038384 71 85 C51.86 85 32.72 85 13 85 C13.99 80.05 14.98 75.1 16 70 C18.47395833 70.32552083 20.94791667 70.65104167 23.421875 70.9765625 C26.27076076 71.00246146 27.5470643 70.35014528 30 69 C30.99 69 31.98 69 33 69 C33 64.05 33 59.1 33 54 C32.34 54 31.68 54 31 54 C30.71125 53.030625 30.4225 52.06125 30.125 51.0625 C29.35785318 47.89335797 29.35785318 47.89335797 27 47 C25.62657169 46.9310528 24.24997898 46.91532292 22.875 46.9375 C20.956875 46.9684375 20.956875 46.9684375 19 47 C19.08207579 43.06172251 19.19480111 39.12486113 19.3125 35.1875 C19.33505859 34.08728516 19.35761719 32.98707031 19.38085938 31.85351562 C19.58614041 25.52712742 20.27411538 19.93848669 22.27026367 13.91918945 C23.32395528 9.7040705 23.56767387 5.32326126 24 1 C16.08 1 8.16 1 0 1 C0 0.67 0 0.34 0 0 Z " fill="#1F1F1F" transform="translate(65,19)"/>
<path d="M0 0 C3.54301913 3.20014631 4.81744831 5.24481953 5.13142776 9.98358727 C5.13588976 11.03480987 5.13588976 11.03480987 5.14044189 12.10726929 C5.14615204 12.9171228 5.15186218 13.72697632 5.15774536 14.56137085 C5.15942215 15.88136581 5.15942215 15.88136581 5.16113281 17.22802734 C5.16858017 18.62894623 5.16858017 18.62894623 5.17617798 20.0581665 C5.19079007 23.15076436 5.1976028 26.24331078 5.203125 29.3359375 C5.20888066 31.49386597 5.21463834 33.65179444 5.22039795 35.8097229 C5.23090759 40.34076169 5.23674938 44.87178276 5.24023438 49.40283203 C5.2456953 55.17684882 5.26967189 60.95062696 5.29820633 66.72456932 C5.31694509 71.1875982 5.32204443 75.65057114 5.32357025 80.11363602 C5.32657596 82.24005044 5.33453308 84.36646438 5.34775543 86.49283981 C5.42894583 100.56300342 4.90215003 113.53823206 -0.3828125 126.7890625 C-1.04410156 128.46440063 -1.04410156 128.46440063 -1.71875 130.17358398 C-2.1828125 131.31255127 -2.646875 132.45151855 -3.125 133.625 C-3.60710937 134.82906494 -4.08921875 136.03312988 -4.5859375 137.27368164 C-8.76960345 147.6330716 -13.0978578 157.95652116 -18 168 C-18.45375 168.93972656 -18.9075 169.87945312 -19.375 170.84765625 C-21.5826198 173.77169113 -23.60702458 174.61573809 -27 176 C-29.77051215 176.27040199 -32.30390049 176.39866996 -35.06640625 176.36328125 C-35.82291977 176.36377975 -36.57943329 176.36427826 -37.35887146 176.36479187 C-38.94980512 176.36246254 -40.54074325 176.35280172 -42.1315918 176.33618164 C-44.5587678 176.31253636 -46.98484694 176.31563577 -49.41210938 176.32226562 C-50.96354817 176.31668956 -52.51498238 176.30958012 -54.06640625 176.30078125 C-55.14783653 176.30214836 -55.14783653 176.30214836 -56.25111389 176.30354309 C-60.2524573 176.24753452 -63.46406434 175.93610657 -67 174 C-69.3125 170.875 -69.3125 170.875 -71 168 C-70.505 167.01 -70.505 167.01 -70 166 C-69.67 166.99 -69.34 167.98 -69 169 C-63.00914485 170.99695172 -56.10061972 170.30738747 -49.81298828 170.35009766 C-48.02444455 170.36666727 -46.23596731 170.39397079 -44.44775391 170.43212891 C-41.86325902 170.48695586 -39.2803109 170.50877694 -36.6953125 170.5234375 C-35.50133347 170.55744156 -35.50133347 170.55744156 -34.28323364 170.59213257 C-30.04366904 170.57603764 -28.48231581 170.3862763 -25.05371094 167.64038086 C-22.91800796 164.89458584 -21.50849555 162.37608887 -20.125 159.1875 C-19.62355469 158.04539063 -19.12210938 156.90328125 -18.60546875 155.7265625 C-18.34556152 155.12102539 -18.0856543 154.51548828 -17.81787109 153.89160156 C-16.97720457 151.94727792 -16.11083391 150.01614421 -15.23828125 148.0859375 C-10.37516151 137.2646385 -6.32112396 126.25869694 -2.67578125 114.96484375 C-2 113 -2 113 -0.97195435 111.03230286 C0.46884325 106.53730297 0.26106198 102.20999839 0.22705078 97.51831055 C0.22734283 96.46419479 0.22763489 95.41007904 0.22793579 94.32402039 C0.22654407 90.84483569 0.21099001 87.36586597 0.1953125 83.88671875 C0.19158182 81.47247942 0.18873511 79.05823858 0.18673706 76.64399719 C0.17910498 70.29328218 0.15946003 63.94265881 0.1373291 57.59197998 C0.11686159 51.11016072 0.1077334 44.62832664 0.09765625 38.14648438 C0.07621384 25.43095051 0.04246799 12.71548013 0 0 Z " fill="#C9C9C9" transform="translate(135,24)"/>
<path d="M0 0 C0.68012146 -0.00379669 1.36024292 -0.00759338 2.06097412 -0.01150513 C4.30267873 -0.01889797 6.54307918 0.00244743 8.78466797 0.02490234 C10.34357552 0.02728713 11.90248597 0.02819202 13.46139526 0.02767944 C16.72477263 0.03080498 19.98770988 0.04735382 23.25097656 0.07421875 C27.43885153 0.10825492 31.62624432 0.11584563 35.81424141 0.11432838 C39.03124616 0.11487147 42.24814501 0.12582774 45.46511459 0.14033127 C47.00971551 0.14670469 48.55432844 0.15063943 50.0989418 0.15211868 C52.25367053 0.15644287 54.40788197 0.17392218 56.5625 0.1953125 C57.78953644 0.2029361 59.01657288 0.21055969 60.28079224 0.21841431 C63.15185547 0.48583984 63.15185547 0.48583984 65.15185547 2.48583984 C53.27185547 2.48583984 41.39185547 2.48583984 29.15185547 2.48583984 C29.15185547 5.45583984 29.15185547 8.42583984 29.15185547 11.48583984 C34.08179803 11.39229832 39.01124986 11.28620343 43.94067383 11.16845703 C45.61768181 11.13016992 47.29477185 11.09531653 48.97192383 11.06396484 C51.38245979 11.01830805 53.79243104 10.96031574 56.20263672 10.89990234 C57.32778435 10.88257553 57.32778435 10.88257553 58.47566223 10.86489868 C62.2131326 10.75888525 63.9661417 10.60964902 67.15185547 8.48583984 C66.49185547 9.80583984 65.83185547 11.12583984 65.15185547 12.48583984 C55.66839532 12.53211803 46.18497386 12.56768597 36.70142555 12.58946419 C32.29814296 12.59991502 27.89493744 12.61409781 23.49169922 12.63671875 C19.24475722 12.65840096 14.99788951 12.67039867 10.75089645 12.67559433 C9.12812505 12.67929842 7.50535785 12.6865313 5.88261795 12.69729996 C3.6150143 12.71175364 1.34772019 12.71382039 -0.91992188 12.71289062 C-2.21231781 12.71733185 -3.50471375 12.72177307 -4.83627319 12.72634888 C-7.84814453 12.48583984 -7.84814453 12.48583984 -9.84814453 10.48583984 C-10.72314453 7.61083984 -10.72314453 7.61083984 -10.84814453 4.48583984 C-7.73492789 0.17690019 -5.14519774 -0.01193527 0 0 Z " fill="#484848" transform="translate(59.84814453125,111.51416015625)"/>
<path d="M0 0 C3.625 0.375 3.625 0.375 6.0625 2.125 C7.625 4.375 7.625 4.375 7.625 8.375 C8.285 8.375 8.945 8.375 9.625 8.375 C9.625 13.325 9.625 18.275 9.625 23.375 C4.44872276 26.01595777 1.46279728 26.888503 -4.375 25.375 C-7.06640625 24.26953125 -7.06640625 24.26953125 -9.375 22.375 C-9.86328125 19.01953125 -9.86328125 19.01953125 -9.6875 15.1875 C-9.61982422 13.27904297 -9.61982422 13.27904297 -9.55078125 11.33203125 C-9.49277344 10.35621094 -9.43476562 9.38039063 -9.375 8.375 C-8.385 8.375 -7.395 8.375 -6.375 8.375 C-6.25125 7.42625 -6.1275 6.4775 -6 5.5 C-5.12880952 1.14404762 -4.43217354 0.49246373 0 0 Z " fill="#EEEEEE" transform="translate(88.375,64.625)"/>
<path d="M0 0 C2.74349859 9.28074134 -0.55559891 17.05701647 -4.91796875 25.25 C-7.41337486 28.54599606 -9.1724181 29.46758244 -13 31 C-15.77051215 31.27040199 -18.30390049 31.39866996 -21.06640625 31.36328125 C-21.82291977 31.36377975 -22.57943329 31.36427826 -23.35887146 31.36479187 C-24.94980512 31.36246254 -26.54074325 31.35280172 -28.1315918 31.33618164 C-30.5587678 31.31253636 -32.98484694 31.31563577 -35.41210938 31.32226562 C-36.96354817 31.31668956 -38.51498238 31.30958012 -40.06640625 31.30078125 C-41.14783653 31.30214836 -41.14783653 31.30214836 -42.25111389 31.30354309 C-46.2524573 31.24753452 -49.46406434 30.93610657 -53 29 C-55.3125 25.875 -55.3125 25.875 -57 23 C-56.67 22.34 -56.34 21.68 -56 21 C-55.67 21.99 -55.34 22.98 -55 24 C-49.00914485 25.99695172 -42.10061972 25.30738747 -35.81298828 25.35009766 C-34.02444455 25.36666727 -32.23596731 25.39397079 -30.44775391 25.43212891 C-27.86325902 25.48695586 -25.2803109 25.50877694 -22.6953125 25.5234375 C-21.50133347 25.55744156 -21.50133347 25.55744156 -20.28323364 25.59213257 C-16.05937972 25.57609728 -14.48320056 25.38488981 -11.0625 22.66015625 C-8.81093003 19.75614271 -7.33911602 16.99326692 -5.875 13.625 C-5.37484375 12.48933594 -4.8746875 11.35367188 -4.359375 10.18359375 C-3.68648437 8.60771484 -3.68648437 8.60771484 -3 7 C-2.65453125 6.20722656 -2.3090625 5.41445312 -1.953125 4.59765625 C-1.29080427 3.06994476 -0.64296005 1.53596013 0 0 Z " fill="#A0A0A0" transform="translate(121,169)"/>
<path d="M0 0 C0.66 0 1.32 0 2 0 C2.09301312 13.3180656 2.16392342 26.63605287 2.20724869 39.95437813 C2.22805116 46.13978745 2.25623408 52.32497321 2.30175781 58.51025391 C2.34547802 64.48845467 2.3691922 70.46644148 2.37950897 76.44478989 C2.38685356 78.71636188 2.40119477 80.98792325 2.42292023 83.25940323 C2.53497371 95.46963119 2.47302563 106.49822845 -2 118 C-2.66 118 -3.32 118 -4 118 C-3.9175 118.66 -3.835 119.32 -3.75 120 C-4.04776008 123.573121 -5.24028999 125.80388802 -6.91015625 128.9296875 C-8.46335509 131.88020859 -9.71804263 134.92330231 -11 138 C-11.66 138 -12.32 138 -13 138 C-12.36838751 135.33904681 -11.61718903 132.78128476 -10.6953125 130.20703125 C-10.44297852 129.49836914 -10.19064453 128.78970703 -9.93066406 128.05957031 C-9.66479492 127.31803711 -9.39892578 126.57650391 -9.125 125.8125 C-7.45977042 121.1375808 -5.79787975 116.46544809 -4.25 111.75 C-3 108 -3 108 -1.94180298 105.89204407 C-0.54549085 101.60431478 -0.69139813 97.46014848 -0.68115234 92.97729492 C-0.67110672 91.97194702 -0.6610611 90.96659912 -0.65071106 89.93078613 C-0.6198669 86.61401938 -0.60284029 83.29733341 -0.5859375 79.98046875 C-0.56722687 77.67832239 -0.54765354 75.3761829 -0.5272522 73.0740509 C-0.47591405 67.01933844 -0.43629719 60.96460374 -0.39910889 54.90979004 C-0.3590799 48.72951753 -0.30798248 42.54933766 -0.2578125 36.36914062 C-0.16103322 24.24615882 -0.07663471 12.12312471 0 0 Z " fill="#919191" transform="translate(136,29)"/>
<path d="M0 0 C0.68012146 -0.00379669 1.36024292 -0.00759338 2.06097412 -0.01150513 C4.30267873 -0.01889797 6.54307918 0.00244743 8.78466797 0.02490234 C10.34357552 0.02728713 11.90248597 0.02819202 13.46139526 0.02767944 C16.72477263 0.03080498 19.98770988 0.04735382 23.25097656 0.07421875 C27.43885153 0.10825492 31.62624432 0.11584563 35.81424141 0.11432838 C39.03124616 0.11487147 42.24814501 0.12582774 45.46511459 0.14033127 C47.00971551 0.14670469 48.55432844 0.15063943 50.0989418 0.15211868 C52.25367053 0.15644287 54.40788197 0.17392218 56.5625 0.1953125 C57.78953644 0.2029361 59.01657288 0.21055969 60.28079224 0.21841431 C63.15185547 0.48583984 63.15185547 0.48583984 65.15185547 2.48583984 C53.27185547 2.48583984 41.39185547 2.48583984 29.15185547 2.48583984 C29.15185547 5.45583984 29.15185547 8.42583984 29.15185547 11.48583984 C34.08179803 11.39229832 39.01124986 11.28620343 43.94067383 11.16845703 C45.61768181 11.13016992 47.29477185 11.09531653 48.97192383 11.06396484 C51.38245979 11.01830805 53.79243104 10.96031574 56.20263672 10.89990234 C57.32778435 10.88257553 57.32778435 10.88257553 58.47566223 10.86489868 C62.2131326 10.75888525 63.9661417 10.60964902 67.15185547 8.48583984 C66.49185547 9.80583984 65.83185547 11.12583984 65.15185547 12.48583984 C55.66839532 12.53211803 46.18497386 12.56768597 36.70142555 12.58946419 C32.29814296 12.59991502 27.89493744 12.61409781 23.49169922 12.63671875 C19.24475722 12.65840096 14.99788951 12.67039867 10.75089645 12.67559433 C9.12812505 12.67929842 7.50535785 12.6865313 5.88261795 12.69729996 C3.6150143 12.71175364 1.34772019 12.71382039 -0.91992188 12.71289062 C-2.21231781 12.71733185 -3.50471375 12.72177307 -4.83627319 12.72634888 C-7.84814453 12.48583984 -7.84814453 12.48583984 -9.84814453 10.48583984 C-10.72314453 7.61083984 -10.72314453 7.61083984 -10.84814453 4.48583984 C-7.73492789 0.17690019 -5.14519774 -0.01193527 0 0 Z M-8.84814453 4.48583984 C-9.2648112 6.98583984 -9.2648112 6.98583984 -8.84814453 9.48583984 C-5.15656136 11.94689529 -2.38190899 11.74159777 1.88232422 11.68115234 C2.6327449 11.67832245 3.38316559 11.67549255 4.15632629 11.6725769 C6.55083222 11.66139046 8.94496278 11.63628912 11.33935547 11.61083984 C12.96369902 11.60080804 14.58804844 11.59168254 16.21240234 11.58349609 C20.19236447 11.56145621 24.17204635 11.52693725 28.15185547 11.48583984 C28.15185547 8.51583984 28.15185547 5.54583984 28.15185547 2.48583984 C23.20395369 2.43647475 18.25619464 2.40013715 13.30810547 2.37597656 C11.62416081 2.36590668 9.94023367 2.35224996 8.25634766 2.33496094 C5.83866046 2.31075559 3.42120404 2.29936688 1.00341797 2.29052734 C-0.12947159 2.27504349 -0.12947159 2.27504349 -1.2852478 2.25924683 C-5.52706411 2.10486302 -5.52706411 2.10486302 -8.84814453 4.48583984 Z " fill="#2E2E2E" transform="translate(59.84814453125,111.51416015625)"/>
<path d="M0 0 C1.54207746 4.11220656 0.74901256 7.77829286 0 12 C-0.66 12.66 -1.32 13.32 -2 14 C-2.71408334 15.98356483 -3.38617742 17.98315437 -4 20 C-4.99 20 -5.98 20 -7 20 C-7.3403125 21.1446875 -7.3403125 21.1446875 -7.6875 22.3125 C-9.34237086 25.70104509 -10.60401952 26.4034317 -14 28 C-17.47338867 28.37231445 -17.47338867 28.37231445 -21.41796875 28.36328125 C-22.1164241 28.36377975 -22.81487946 28.36427826 -23.53450012 28.36479187 C-25.00276553 28.36246144 -26.47103571 28.35279395 -27.93920898 28.33618164 C-30.19095293 28.31246363 -32.44152119 28.31564329 -34.69335938 28.32226562 C-45.72074102 28.27925898 -45.72074102 28.27925898 -48 26 C-46.99622314 25.99589111 -45.99244629 25.99178223 -44.95825195 25.98754883 C-41.22108156 25.96571688 -37.48495799 25.91138706 -33.74829102 25.84741211 C-32.13348451 25.82426714 -30.51852779 25.80984457 -28.90356445 25.80444336 C-26.57668852 25.79512726 -24.25216324 25.75408632 -21.92578125 25.70703125 C-21.20787918 25.7109639 -20.48997711 25.71489655 -19.75032043 25.71894836 C-15.86975432 25.60690484 -14.15664608 25.12747431 -11.1105957 22.64868164 C-8.8038079 19.75378969 -7.34947678 17.01710232 -5.875 13.625 C-5.37484375 12.48933594 -4.8746875 11.35367188 -4.359375 10.18359375 C-3.68648437 8.60771484 -3.68648437 8.60771484 -3 7 C-2.65453125 6.20722656 -2.3090625 5.41445312 -1.953125 4.59765625 C-1.29080427 3.06994476 -0.64296005 1.53596013 0 0 Z " fill="#888888" transform="translate(121,169)"/>
<path d="M0 0 C3.63 0 7.26 0 11 0 C11.29296875 6.8359375 11.29296875 6.8359375 11 9 C8 11 8 11 4.9375 10.6875 C2 10 2 10 0 9 C0 6.03 0 3.06 0 0 Z " fill="#4F4F4F" transform="translate(83,76)"/>
<path d="M0 0 C2.70024975 8.83595363 -3.17403234 18.91478473 -6.5 26.9375 C-7.00444444 28.1801202 -7.50835451 29.42295747 -8.01171875 30.66601562 C-11.73524306 39.73524306 -11.73524306 39.73524306 -14 42 C-14.08333357 37.1666528 -13.95261487 32.76307437 -13 28 C-12.01 28 -11.02 28 -10 28 C-9.81824219 27.41992188 -9.63648437 26.83984375 -9.44921875 26.2421875 C-7.95292957 21.59218114 -6.18738998 17.37477996 -4 13 C-3.30092586 10.26427415 -3.30092586 10.26427415 -3 8 C-2.34 8 -1.68 8 -1 8 C-0.67 5.36 -0.34 2.72 0 0 Z " fill="#BBBBBB" transform="translate(135,139)"/>
<path d="M0 0 C0.33 0 0.66 0 1 0 C1.22577402 5.4185766 0.46670113 9.77487721 -1 15 C-1.66 15 -2.32 15 -3 15 C-2.87625 15.99 -2.87625 15.99 -2.75 17 C-3.04776008 20.573121 -4.24028999 22.80388802 -5.91015625 25.9296875 C-7.46335509 28.88020859 -8.71804263 31.92330231 -10 35 C-10.66 35 -11.32 35 -12 35 C-11.36838751 32.33904681 -10.61718903 29.78128476 -9.6953125 27.20703125 C-9.44297852 26.49836914 -9.19064453 25.78970703 -8.93066406 25.05957031 C-8.66479492 24.31803711 -8.39892578 23.57650391 -8.125 22.8125 C-6.45977042 18.1375808 -4.79787975 13.46544809 -3.25 8.75 C-2.25982582 5.77947746 -1.21025176 2.88598498 0 0 Z " fill="#868686" transform="translate(135,132)"/>
<path d="M0 0 C1.18684632 4.41223507 0.80105422 7.48496711 0 12 C-0.66 12.66 -1.32 13.32 -2 14 C-2.71408334 15.98356483 -3.38617742 17.98315437 -4 20 C-4.99 20 -5.98 20 -7 20 C-7.33 20.66 -7.66 21.32 -8 22 C-7.40644629 16.69981613 -5.62627368 12.41863107 -3.4375 7.625 C-3.10814453 6.88894531 -2.77878906 6.15289062 -2.43945312 5.39453125 C-1.63252195 3.59355443 -0.8171174 1.79637819 0 0 Z " fill="#8D8D8D" transform="translate(121,169)"/>
<path d="M0 0 C0.99 0.495 0.99 0.495 2 1 C2 1.66 2 2.32 2 3 C2.99 3.33 3.98 3.66 5 4 C6.02019573 4.9793879 7.02149805 5.97895449 8 7 C11.0549278 8.5274639 14.2763314 8.23991832 17.6328125 8.31640625 C18.76056595 8.3475779 18.76056595 8.3475779 19.91110229 8.37937927 C22.31564085 8.44482705 24.72028967 8.50373738 27.125 8.5625 C28.75391771 8.60568977 30.38282422 8.64930421 32.01171875 8.69335938 C36.00769915 8.80050351 40.00379059 8.90178433 44 9 C44 9.33 44 9.66 44 10 C39.10702988 10.04955872 34.21420695 10.0857946 29.32104492 10.10986328 C27.65760756 10.11990057 25.99418775 10.13353331 24.33081055 10.15087891 C21.93533995 10.17522749 19.54010332 10.18650588 17.14453125 10.1953125 C16.4047554 10.20563507 15.66497955 10.21595764 14.90278625 10.22659302 C10.83153248 10.22747117 7.59653534 9.97938963 4 8 C0 2.81081081 0 2.81081081 0 0 Z " fill="#D0D0D0" transform="translate(64,190)"/>
<path d="M0 0 C1.25312512 3.75937536 0.50868401 4.42680103 -1 8 C-1.3505768 9.39160257 -1.68305146 10.78785525 -2 12.1875 C-3 16 -3 16 -5 18 C-5.08333357 13.1666528 -4.95261487 8.76307437 -4 4 C-3.01 4 -2.02 4 -1 4 C-0.67 2.68 -0.34 1.36 0 0 Z " fill="#A7A7A7" transform="translate(126,163)"/>
<path d="M0 0 C2.5 1.1875 2.5 1.1875 5 3 C5.375 5.625 5.375 5.625 5 8 C4 9 4 9 1.4375 9.0625 C0.633125 9.041875 -0.17125 9.02125 -1 9 C-0.67 6.03 -0.34 3.06 0 0 Z " fill="#3D3D3D" transform="translate(63,31)"/>
<path d="M0 0 C1 3 1 3 -0.328125 6.06640625 C-1.27945313 7.79697266 -1.27945313 7.79697266 -2.25 9.5625 C-2.87390625 10.71878906 -3.4978125 11.87507812 -4.140625 13.06640625 C-6 16 -6 16 -9 18 C-9.99 17.67 -10.98 17.34 -12 17 C-11.2575 16.484375 -10.515 15.96875 -9.75 15.4375 C-5.24712215 11.44631281 -3.13686824 6.58873232 -1 1 C-0.67 0.67 -0.34 0.34 0 0 Z " fill="#C8C8C8" transform="translate(120,181)"/>
<path d="M0 0 C1.32 0 2.64 0 4 0 C4.33 1.65 4.66 3.3 5 5 C3.02 5 1.04 5 -1 5 C-0.67 3.35 -0.34 1.7 0 0 Z " fill="#555555" transform="translate(87,68)"/>
<path d="M0 0 C1.65 0 3.3 0 5 0 C4.34 1.65 3.68 3.3 3 5 C3.66 5.66 4.32 6.32 5 7 C3.02 7.33 1.04 7.66 -1 8 C0.875 3.25 0.875 3.25 2 1 C1.34 0.67 0.68 0.34 0 0 Z " fill="#282828" transform="translate(96,33)"/>
<path d="M0 0 C1.2065625 0.0309375 1.2065625 0.0309375 2.4375 0.0625 C1.4475 0.3925 0.4575 0.7225 -0.5625 1.0625 C-0.5625 1.7225 -0.5625 2.3825 -0.5625 3.0625 C0.4275 3.3925 1.4175 3.7225 2.4375 4.0625 C1.4475 4.0625 0.4575 4.0625 -0.5625 4.0625 C-0.2325 5.0525 0.0975 6.0425 0.4375 7.0625 C-0.5525 7.0625 -1.5425 7.0625 -2.5625 7.0625 C-3.2225 6.0725 -3.8825 5.0825 -4.5625 4.0625 C-3.23463115 0.07889344 -3.23463115 0.07889344 0 0 Z " fill="#282828" transform="translate(91.5625,32.9375)"/>
<path d="M0 0 C0.99 0.495 0.99 0.495 2 1 C2 1.66 2 2.32 2 3 C2.99 3.33 3.98 3.66 5 4 C6.5625 5.4375 6.5625 5.4375 8 7 C8.66 7.66 9.32 8.32 10 9 C7.25 8.875 7.25 8.875 4 8 C0 3.05263158 0 3.05263158 0 0 Z " fill="#C2C2C2" transform="translate(64,190)"/>
<path d="M0 0 C0.66 0.33 1.32 0.66 2 1 C1.071875 2.1446875 1.071875 2.1446875 0.125 3.3125 C-2.05597052 5.99625809 -2.05597052 5.99625809 -4 9 C-4.25 6.75 -4.25 6.75 -4 4 C-2 1.6875 -2 1.6875 0 0 Z " fill="#575757" transform="translate(45,20)"/>
<path d="M0 0 C0.33 0.99 0.66 1.98 1 3 C-0.4375 5.1875 -0.4375 5.1875 -2 7 C-3.32 6.67 -4.64 6.34 -6 6 C-5.195625 5.38125 -4.39125 4.7625 -3.5625 4.125 C-0.96125481 2.25835959 -0.96125481 2.25835959 0 0 Z " fill="#828282" transform="translate(112,189)"/>
<path d="M0 0 C1.98 0.66 3.96 1.32 6 2 C6 2.99 6 3.98 6 5 C5.38125 4.649375 4.7625 4.29875 4.125 3.9375 C3.42375 3.628125 2.7225 3.31875 2 3 C1.01 3.495 1.01 3.495 0 4 C0 2.68 0 1.36 0 0 Z " fill="#272727" transform="translate(111,32)"/>
</svg>
