<svg width="64" height="64" viewBox="0 0 64 64" fill="none" xmlns="http://www.w3.org/2000/svg">
<rect width="64" height="64" rx="32" fill="#2B2B2B"/>
<path d="M27.7498 42.0004C27.7498 42.1993 27.6708 42.3901 27.5301 42.5307C27.3895 42.6714 27.1987 42.7504 26.9998 42.7504H20.9998C20.5176 42.7493 20.0442 42.6213 19.6271 42.3795C19.2099 42.1377 18.8637 41.7904 18.6231 41.3726C18.3826 40.9547 18.2561 40.4809 18.2563 39.9988C18.2566 39.5166 18.3837 39.043 18.6248 38.6254L23.2135 30.6954L20.8685 31.3204C20.6763 31.3718 20.4714 31.3447 20.2991 31.2451C20.1268 31.1454 20.0012 30.9814 19.9498 30.7892C19.8984 30.5969 19.9255 30.3921 20.0251 30.2198C20.1248 30.0475 20.2888 29.9218 20.481 29.8704L24.5773 28.7742C24.6728 28.7481 24.7726 28.7412 24.8708 28.754C24.969 28.7667 25.0637 28.7987 25.1495 28.8482C25.2352 28.8977 25.3104 28.9637 25.3705 29.0424C25.4306 29.1211 25.4746 29.2109 25.4998 29.3067L26.5998 33.4017C26.6253 33.4968 26.6318 33.596 26.619 33.6937C26.6062 33.7913 26.5743 33.8855 26.5251 33.9708C26.4758 34.0561 26.4103 34.1309 26.3322 34.1909C26.2541 34.2509 26.1649 34.2949 26.0698 34.3204C26.0062 34.3376 25.9406 34.3464 25.8748 34.3467C25.7098 34.3465 25.5494 34.2919 25.4185 34.1913C25.2877 34.0907 25.1937 33.9498 25.151 33.7904L24.526 31.4404L19.9223 39.3754C19.8128 39.5651 19.755 39.7802 19.7548 39.9991C19.7546 40.2181 19.8119 40.4334 19.921 40.6232C20.0301 40.8131 20.1872 40.971 20.3765 41.0811C20.5659 41.1911 20.7808 41.2495 20.9998 41.2504H26.9998C27.1987 41.2504 27.3895 41.3294 27.5301 41.4701C27.6708 41.6107 27.7498 41.8015 27.7498 42.0004ZM45.3748 38.6254L42.4823 33.6254C42.3785 33.4622 42.2157 33.3453 42.0278 33.2993C41.8399 33.2533 41.6415 33.2816 41.474 33.3784C41.3065 33.4752 41.1829 33.633 41.129 33.8188C41.0751 34.0046 41.0951 34.204 41.1848 34.3754L44.0773 39.3754C44.1868 39.5651 44.2445 39.7802 44.2448 39.9991C44.245 40.2181 44.1877 40.4334 44.0785 40.6232C43.9694 40.8131 43.8123 40.971 43.623 41.0811C43.4337 41.1911 43.2188 41.2495 42.9998 41.2504H33.8098L35.5298 39.5304C35.6623 39.3882 35.7344 39.2002 35.731 39.0059C35.7275 38.8116 35.6488 38.6262 35.5114 38.4888C35.374 38.3514 35.1886 38.2727 34.9943 38.2692C34.8 38.2658 34.612 38.3379 34.4698 38.4704L31.4698 41.4704C31.3293 41.611 31.2504 41.8017 31.2504 42.0004C31.2504 42.1992 31.3293 42.3898 31.4698 42.5304L34.4698 45.5304C34.612 45.6629 34.8 45.735 34.9943 45.7316C35.1886 45.7282 35.374 45.6494 35.5114 45.512C35.6488 45.3746 35.7275 45.1892 35.731 44.9949C35.7344 44.8006 35.6623 44.6126 35.5298 44.4704L33.8098 42.7504H42.9998C43.482 42.7493 43.9553 42.6213 44.3725 42.3795C44.7896 42.1377 45.1358 41.7904 45.3764 41.3726C45.617 40.9547 45.7435 40.4809 45.7432 39.9988C45.7429 39.5166 45.6159 39.043 45.3748 38.6254ZM33.081 20.3754L37.671 28.3054L35.326 27.6804C35.1397 27.6439 34.9464 27.6795 34.7853 27.7799C34.6241 27.8804 34.507 28.0382 34.4577 28.2216C34.4084 28.405 34.4304 28.6002 34.5194 28.768C34.6084 28.9357 34.7578 29.0635 34.9373 29.1254L39.0348 30.2242C39.2269 30.2753 39.4314 30.248 39.6035 30.1484C39.7755 30.0488 39.901 29.885 39.9523 29.6929L41.051 25.5954C41.0811 25.499 41.0914 25.3974 41.0813 25.2969C41.0712 25.1964 41.0409 25.099 40.9922 25.0105C40.9435 24.922 40.8774 24.8442 40.7979 24.7818C40.7184 24.7195 40.6272 24.6739 40.5296 24.6477C40.432 24.6214 40.3302 24.6152 40.2302 24.6294C40.1301 24.6435 40.034 24.6777 39.9475 24.7299C39.861 24.7821 39.786 24.8512 39.7269 24.9332C39.6677 25.0151 39.6258 25.1081 39.6035 25.2067L38.9723 27.5592L34.3748 19.6254C34.1326 19.2104 33.7858 18.8661 33.3691 18.6269C32.9524 18.3876 32.4803 18.2617 31.9998 18.2617C31.5193 18.2617 31.0472 18.3876 30.6305 18.6269C30.2138 18.8661 29.867 19.2104 29.6248 19.6254L26.7248 24.6254C26.6296 24.7974 26.6058 24.9998 26.6583 25.1892C26.7109 25.3786 26.8357 25.5398 27.0059 25.638C27.1761 25.7363 27.3781 25.7639 27.5684 25.7148C27.7587 25.6656 27.9222 25.5438 28.0235 25.3754L30.9185 20.3754C31.0284 20.186 31.1861 20.0287 31.3759 19.9194C31.5657 19.8101 31.7808 19.7526 31.9998 19.7526C32.2188 19.7526 32.4339 19.8101 32.6237 19.9194C32.8134 20.0287 32.9712 20.186 33.081 20.3754Z" fill="#F7931A"/>
</svg>
