<svg width="40" height="40" viewBox="0 0 40 40" fill="none" xmlns="http://www.w3.org/2000/svg">
<rect x="0.5" y="0.5" width="39" height="39" rx="19.5" stroke="#494949"/>
<path d="M29.1922 16.0675L26.8562 18.4035C26.3844 23.8738 21.7711 28.1254 16.25 28.1254C15.1156 28.1254 14.1804 27.9457 13.4703 27.591C12.8976 27.3043 12.6633 26.9972 12.6047 26.9097C12.5524 26.8314 12.5186 26.7422 12.5056 26.6489C12.4927 26.5557 12.5009 26.4607 12.5299 26.371C12.5588 26.2814 12.6076 26.1995 12.6726 26.1314C12.7377 26.0633 12.8173 26.0107 12.9054 25.9777C12.9258 25.9699 14.7992 25.2504 15.989 23.8808C15.3292 23.3383 14.7532 22.7012 14.2797 21.9902C13.3109 20.5519 12.2265 18.0535 12.5609 14.3199C12.5715 14.2012 12.6158 14.0881 12.6885 13.9938C12.7613 13.8995 12.8595 13.8279 12.9715 13.7875C13.0836 13.7471 13.2048 13.7396 13.321 13.7658C13.4372 13.792 13.5435 13.8509 13.6273 13.9355C13.6547 13.9629 16.2273 16.5214 19.3726 17.3511V16.8754C19.3714 16.3764 19.4701 15.8823 19.6627 15.4221C19.8554 14.9619 20.1382 14.5449 20.4945 14.1957C20.8405 13.8501 21.2522 13.5774 21.7054 13.3936C22.1585 13.2098 22.6438 13.1186 23.1328 13.1254C23.7887 13.1318 24.4318 13.3079 24.9995 13.6365C25.5672 13.965 26.0403 14.4349 26.3726 15.0004H28.75C28.8737 15.0003 28.9946 15.0369 29.0975 15.1055C29.2003 15.1742 29.2805 15.2718 29.3279 15.3861C29.3752 15.5004 29.3876 15.6261 29.3634 15.7474C29.3393 15.8687 29.2797 15.9801 29.1922 16.0675Z" fill="white"/>
</svg>
