<svg width="40" height="40" viewBox="0 0 40 40" fill="none" xmlns="http://www.w3.org/2000/svg">
<rect width="40" height="40" rx="20" fill="#2B2B2B"/>
<path d="M29.6352 19.6094L25.8852 17.1094C25.8145 17.0623 25.7324 17.0352 25.6476 17.0311C25.5628 17.027 25.4784 17.046 25.4036 17.0861C25.3287 17.1263 25.2662 17.1859 25.2226 17.2588C25.1791 17.3317 25.1561 17.4151 25.1562 17.5V19.5313H15.4688V15.625C15.4688 15.5836 15.4852 15.5438 15.5145 15.5145C15.5438 15.4852 15.5836 15.4688 15.625 15.4688H18.3281C18.4443 16.0378 18.7676 16.5435 19.2354 16.8878C19.7032 17.232 20.2822 17.3903 20.8601 17.3319C21.438 17.2735 21.9736 17.0026 22.3631 16.5718C22.7526 16.141 22.9683 15.5808 22.9683 15C22.9683 14.4192 22.7526 13.8591 22.3631 13.4282C21.9736 12.9974 21.438 12.7265 20.8601 12.6681C20.2822 12.6097 19.7032 12.768 19.2354 13.1123C18.7676 13.4565 18.4443 13.9622 18.3281 14.5313H15.625C15.3349 14.5313 15.0567 14.6465 14.8516 14.8516C14.6465 15.0567 14.5312 15.3349 14.5312 15.625V19.5313H10.625C10.5007 19.5313 10.3815 19.5806 10.2935 19.6685C10.2056 19.7565 10.1562 19.8757 10.1562 20C10.1562 20.1243 10.2056 20.2436 10.2935 20.3315C10.3815 20.4194 10.5007 20.4688 10.625 20.4688H14.5312V24.375C14.5312 24.6651 14.6465 24.9433 14.8516 25.1484C15.0567 25.3535 15.3349 25.4688 15.625 25.4688H18.2812V26.25C18.2812 26.5401 18.3965 26.8183 18.6016 27.0234C18.8067 27.2285 19.0849 27.3438 19.375 27.3438H21.875C22.1651 27.3438 22.4433 27.2285 22.6484 27.0234C22.8535 26.8183 22.9688 26.5401 22.9688 26.25V23.75C22.9688 23.4599 22.8535 23.1817 22.6484 22.9766C22.4433 22.7715 22.1651 22.6563 21.875 22.6563H19.375C19.0849 22.6563 18.8067 22.7715 18.6016 22.9766C18.3965 23.1817 18.2812 23.4599 18.2812 23.75V24.5313H15.625C15.5836 24.5313 15.5438 24.5148 15.5145 24.4855C15.4852 24.4562 15.4688 24.4164 15.4688 24.375V20.4688H25.1562V22.5C25.1561 22.5849 25.1791 22.6683 25.2226 22.7412C25.2662 22.8141 25.3287 22.8738 25.4036 22.9139C25.4784 22.954 25.5628 22.973 25.6476 22.9689C25.7324 22.9648 25.8145 22.9378 25.8852 22.8906L29.6352 20.3906C29.6996 20.3479 29.7525 20.2898 29.7891 20.2217C29.8257 20.1535 29.8448 20.0774 29.8448 20C29.8448 19.9227 29.8257 19.8465 29.7891 19.7783C29.7525 19.7102 29.6996 19.6521 29.6352 19.6094ZM20.625 13.5938C20.9031 13.5938 21.175 13.6762 21.4063 13.8308C21.6375 13.9853 21.8178 14.2049 21.9242 14.4619C22.0306 14.7188 22.0585 15.0016 22.0042 15.2744C21.95 15.5471 21.816 15.7977 21.6194 15.9944C21.4227 16.191 21.1721 16.325 20.8993 16.3792C20.6266 16.4335 20.3438 16.4056 20.0869 16.2992C19.8299 16.1928 19.6103 16.0125 19.4557 15.7813C19.3012 15.55 19.2188 15.2781 19.2188 15C19.2188 14.627 19.3669 14.2694 19.6306 14.0056C19.8944 13.7419 20.252 13.5938 20.625 13.5938ZM19.2188 23.75C19.2188 23.7086 19.2352 23.6688 19.2645 23.6395C19.2938 23.6102 19.3336 23.5938 19.375 23.5938H21.875C21.9164 23.5938 21.9562 23.6102 21.9855 23.6395C22.0148 23.6688 22.0312 23.7086 22.0312 23.75V26.25C22.0312 26.2914 22.0148 26.3312 21.9855 26.3605C21.9562 26.3898 21.9164 26.4063 21.875 26.4063H19.375C19.3336 26.4063 19.2938 26.3898 19.2645 26.3605C19.2352 26.3312 19.2188 26.2914 19.2188 26.25V23.75ZM26.0938 21.6242V18.3758L28.5297 20L26.0938 21.6242Z" fill="white"/>
</svg>
