<svg width="120" height="120" viewBox="0 0 120 120" fill="none" xmlns="http://www.w3.org/2000/svg">
<g filter="url(#filter0_b_1162_31643)">
<rect width="120" height="120" rx="12" fill="#F7931A" fill-opacity="0.1"/>
<rect x="0.5" y="0.5" width="119" height="119" rx="11.5" stroke="url(#paint0_linear_1162_31643)"/>
<path d="M78 56C78 56.5304 77.7893 57.0391 77.4142 57.4142C77.0391 57.7893 76.5304 58 76 58H66C65.4696 58 64.9609 57.7893 64.5858 57.4142C64.2107 57.0391 64 56.5304 64 56C64 55.4696 64.2107 54.9609 64.5858 54.5858C64.9609 54.2107 65.4696 54 66 54H76C76.5304 54 77.0391 54.2107 77.4142 54.5858C77.7893 54.9609 78 55.4696 78 56ZM76 62H66C65.4696 62 64.9609 62.2107 64.5858 62.5858C64.2107 62.9609 64 63.4696 64 64C64 64.5304 64.2107 65.0391 64.5858 65.4142C64.9609 65.7893 65.4696 66 66 66H76C76.5304 66 77.0391 65.7893 77.4142 65.4142C77.7893 65.0391 78 64.5304 78 64C78 63.4696 77.7893 62.9609 77.4142 62.5858C77.0391 62.2107 76.5304 62 76 62ZM86 42V78C86 79.0609 85.5786 80.0783 84.8284 80.8284C84.0783 81.5786 83.0609 82 82 82H38C36.9391 82 35.9217 81.5786 35.1716 80.8284C34.4214 80.0783 34 79.0609 34 78V42C34 40.9391 34.4214 39.9217 35.1716 39.1716C35.9217 38.4214 36.9391 38 38 38H82C83.0609 38 84.0783 38.4214 84.8284 39.1716C85.5786 39.9217 86 40.9391 86 42ZM82 78V42H38V78H82ZM61.935 69.5C62.0676 70.0139 61.9907 70.5593 61.7211 71.0165C61.4515 71.4736 61.0114 71.8049 60.4975 71.9375C59.9836 72.0701 59.4382 71.9932 58.981 71.7236C58.5239 71.454 58.1926 71.0139 58.06 70.5C57.4025 67.935 54.795 66 51.9975 66C49.2 66 46.595 67.935 45.935 70.5C45.8024 71.0139 45.4711 71.454 45.014 71.7236C44.5568 71.9932 44.0114 72.0701 43.4975 71.9375C42.9836 71.8049 42.5435 71.4736 42.2739 71.0165C42.0043 70.5593 41.9274 70.0139 42.06 69.5C42.709 67.0844 44.2431 65.0014 46.3575 63.665C45.2339 62.5481 44.4673 61.1227 44.1547 59.5696C43.8422 58.0164 43.9978 56.4055 44.6019 54.9409C45.206 53.4763 46.2314 52.224 47.548 51.3429C48.8646 50.4617 50.4132 49.9913 51.9975 49.9913C53.5818 49.9913 55.1304 50.4617 56.447 51.3429C57.7636 52.224 58.789 53.4763 59.3931 54.9409C59.9972 56.4055 60.1528 58.0164 59.8403 59.5696C59.5277 61.1227 58.7611 62.5481 57.6375 63.665C59.7542 64.9995 61.2897 67.0831 61.9375 69.5H61.935ZM52 62C52.7911 62 53.5645 61.7654 54.2223 61.3259C54.8801 60.8864 55.3928 60.2616 55.6955 59.5307C55.9983 58.7998 56.0775 57.9956 55.9231 57.2196C55.7688 56.4437 55.3878 55.731 54.8284 55.1716C54.269 54.6122 53.5563 54.2312 52.7804 54.0769C52.0044 53.9225 51.2002 54.0017 50.4693 54.3045C49.7384 54.6072 49.1136 55.1199 48.6741 55.7777C48.2346 56.4355 48 57.2089 48 58C48 59.0609 48.4214 60.0783 49.1716 60.8284C49.9217 61.5786 50.9391 62 52 62Z" fill="#F7931A"/>
</g>
<defs>
<filter id="filter0_b_1162_31643" x="-8" y="-8" width="136" height="136" filterUnits="userSpaceOnUse" color-interpolation-filters="sRGB">
<feFlood flood-opacity="0" result="BackgroundImageFix"/>
<feGaussianBlur in="BackgroundImageFix" stdDeviation="4"/>
<feComposite in2="SourceAlpha" operator="in" result="effect1_backgroundBlur_1162_31643"/>
<feBlend mode="normal" in="SourceGraphic" in2="effect1_backgroundBlur_1162_31643" result="shape"/>
</filter>
<linearGradient id="paint0_linear_1162_31643" x1="0" y1="0" x2="120" y2="120" gradientUnits="userSpaceOnUse">
<stop stop-color="#F8C296"/>
<stop offset="1" stop-color="#F9CAA4" stop-opacity="0"/>
</linearGradient>
</defs>
</svg>
