<svg width="64" height="64" viewBox="0 0 64 64" fill="none" xmlns="http://www.w3.org/2000/svg">
<rect width="64" height="64" rx="32" fill="#2B2B2B"/>
<path d="M42 21.25H22C21.5359 21.25 21.0908 21.4344 20.7626 21.7626C20.4344 22.0908 20.25 22.5359 20.25 23V30.3462C20.25 41.3762 29.585 45.0362 31.4563 45.6575C31.8088 45.7775 32.1912 45.7775 32.5438 45.6575C34.4188 45.0325 43.75 41.3762 43.75 30.3462V23C43.75 22.5359 43.5656 22.0908 43.2374 21.7626C42.9092 21.4344 42.4641 21.25 42 21.25ZM42.25 30.3488C42.25 40.3488 33.77 43.6725 32.07 44.2362C32.025 44.2537 31.975 44.2537 31.93 44.2362C30.23 43.6725 21.75 40.3488 21.75 30.3488V23C21.75 22.9337 21.7763 22.8701 21.8232 22.8232C21.8701 22.7763 21.9337 22.75 22 22.75H42C42.0663 22.75 42.1299 22.7763 42.1768 22.8232C42.2237 22.8701 42.25 22.9337 42.25 23V30.3488ZM37.53 28.4738C37.6705 28.6144 37.7493 28.805 37.7493 29.0037C37.7493 29.2025 37.6705 29.3931 37.53 29.5337L30.53 36.5338C30.3894 36.6742 30.1988 36.7531 30 36.7531C29.8012 36.7531 29.6106 36.6742 29.47 36.5338L26.47 33.5338C26.3375 33.3916 26.2654 33.2035 26.2688 33.0092C26.2723 32.8149 26.351 32.6295 26.4884 32.4921C26.6258 32.3547 26.8112 32.276 27.0055 32.2726C27.1998 32.2691 27.3878 32.3413 27.53 32.4737L30 34.9387L36.47 28.47C36.6106 28.3295 36.8012 28.2507 37 28.2507C37.1988 28.2507 37.3894 28.3295 37.53 28.47V28.4738Z" fill="#F7931A"/>
</svg>
