<svg width="120" height="120" viewBox="0 0 120 120" fill="none" xmlns="http://www.w3.org/2000/svg">
<g filter="url(#filter0_b_1162_31655)">
<rect width="120" height="120" rx="12" fill="#F7931A" fill-opacity="0.1"/>
<rect x="0.5" y="0.5" width="119" height="119" rx="11.5" stroke="url(#paint0_linear_1162_31655)"/>
<path d="M82 46H42C41.4696 46 40.9609 45.7893 40.5858 45.4142C40.2107 45.0391 40 44.5304 40 44C40 43.4696 40.2107 42.9609 40.5858 42.5858C40.9609 42.2107 41.4696 42 42 42H76C76.5304 42 77.0391 41.7893 77.4142 41.4142C77.7893 41.0391 78 40.5304 78 40C78 39.4696 77.7893 38.9609 77.4142 38.5858C77.0391 38.2107 76.5304 38 76 38H42C40.4087 38 38.8826 38.6321 37.7574 39.7574C36.6321 40.8826 36 42.4087 36 44V76C36 77.5913 36.6321 79.1174 37.7574 80.2426C38.8826 81.3679 40.4087 82 42 82H82C83.0609 82 84.0783 81.5786 84.8284 80.8284C85.5786 80.0783 86 79.0609 86 78V50C86 48.9391 85.5786 47.9217 84.8284 47.1716C84.0783 46.4214 83.0609 46 82 46ZM82 78H42C41.4696 78 40.9609 77.7893 40.5858 77.4142C40.2107 77.0391 40 76.5304 40 76V49.6575C40.6422 49.8851 41.3187 50.001 42 50H82V78ZM70 63C70 62.4067 70.1759 61.8266 70.5056 61.3333C70.8352 60.8399 71.3038 60.4554 71.852 60.2284C72.4001 60.0013 73.0033 59.9419 73.5853 60.0576C74.1672 60.1734 74.7018 60.4591 75.1213 60.8787C75.5409 61.2982 75.8266 61.8328 75.9424 62.4147C76.0581 62.9967 75.9987 63.5999 75.7716 64.148C75.5446 64.6962 75.1601 65.1648 74.6667 65.4944C74.1734 65.8241 73.5933 66 73 66C72.2043 66 71.4413 65.6839 70.8787 65.1213C70.3161 64.5587 70 63.7956 70 63Z" fill="#F7931A"/>
</g>
<defs>
<filter id="filter0_b_1162_31655" x="-8" y="-8" width="136" height="136" filterUnits="userSpaceOnUse" color-interpolation-filters="sRGB">
<feFlood flood-opacity="0" result="BackgroundImageFix"/>
<feGaussianBlur in="BackgroundImageFix" stdDeviation="4"/>
<feComposite in2="SourceAlpha" operator="in" result="effect1_backgroundBlur_1162_31655"/>
<feBlend mode="normal" in="SourceGraphic" in2="effect1_backgroundBlur_1162_31655" result="shape"/>
</filter>
<linearGradient id="paint0_linear_1162_31655" x1="0" y1="0" x2="120" y2="120" gradientUnits="userSpaceOnUse">
<stop stop-color="#F8C296"/>
<stop offset="1" stop-color="#F9CAA4" stop-opacity="0"/>
</linearGradient>
</defs>
</svg>
