<svg width="40" height="40" viewBox="0 0 40 40" fill="none" xmlns="http://www.w3.org/2000/svg">
<rect width="40" height="40" rx="20" fill="#2B2B2B"/>
<path d="M25.625 13.2812H14.375C14.0849 13.2812 13.8067 13.3965 13.6016 13.6016C13.3965 13.8067 13.2812 14.0849 13.2812 14.375V25.625C13.2812 25.9151 13.3965 26.1933 13.6016 26.3984C13.8067 26.6035 14.0849 26.7188 14.375 26.7188H25.625C25.9151 26.7188 26.1933 26.6035 26.3984 26.3984C26.6035 26.1933 26.7188 25.9151 26.7188 25.625V14.375C26.7188 14.0849 26.6035 13.8067 26.3984 13.6016C26.1933 13.3965 25.9151 13.2812 25.625 13.2812ZM14.2188 25.625V14.375C14.2188 14.3336 14.2352 14.2938 14.2645 14.2645C14.2938 14.2352 14.3336 14.2188 14.375 14.2188H19.5312V25.7812H14.375C14.3336 25.7812 14.2938 25.7648 14.2645 25.7355C14.2352 25.7062 14.2188 25.6664 14.2188 25.625ZM25.7812 25.625C25.7812 25.6664 25.7648 25.7062 25.7355 25.7355C25.7062 25.7648 25.6664 25.7812 25.625 25.7812H20.4688V14.2188H25.625C25.6664 14.2188 25.7062 14.2352 25.7355 14.2645C25.7648 14.2938 25.7812 14.3336 25.7812 14.375V25.625Z" fill="white"/>
</svg>
