<svg width="64" height="64" viewBox="0 0 64 64" fill="none" xmlns="http://www.w3.org/2000/svg">
<rect width="64" height="64" rx="32" fill="#2B2B2B"/>
<path d="M41 21.25H23C22.5359 21.25 22.0908 21.4344 21.7626 21.7626C21.4344 22.0908 21.25 22.5359 21.25 23V41C21.25 41.4641 21.4344 41.9092 21.7626 42.2374C22.0908 42.5656 22.5359 42.75 23 42.75H41C41.4641 42.75 41.9092 42.5656 42.2374 42.2374C42.5656 41.9092 42.75 41.4641 42.75 41V23C42.75 22.5359 42.5656 22.0908 42.2374 21.7626C41.9092 21.4344 41.4641 21.25 41 21.25ZM22.75 41V23C22.75 22.9337 22.7763 22.8701 22.8232 22.8232C22.8701 22.7763 22.9337 22.75 23 22.75H31.25V41.25H23C22.9337 41.25 22.8701 41.2237 22.8232 41.1768C22.7763 41.1299 22.75 41.0663 22.75 41ZM41.25 41C41.25 41.0663 41.2237 41.1299 41.1768 41.1768C41.1299 41.2237 41.0663 41.25 41 41.25H32.75V22.75H41C41.0663 22.75 41.1299 22.7763 41.1768 22.8232C41.2237 22.8701 41.25 22.9337 41.25 23V41Z" fill="#F7931A"/>
</svg>
