<svg width="64" height="64" viewBox="0 0 64 64" fill="none" xmlns="http://www.w3.org/2000/svg">
<rect width="64" height="64" rx="32" fill="#2B2B2B"/>
<path d="M32 19.25C29.4783 19.25 27.0132 19.9978 24.9165 21.3988C22.8198 22.7998 21.1856 24.791 20.2205 27.1208C19.2555 29.4505 19.003 32.0141 19.495 34.4874C19.987 36.9607 21.2013 39.2325 22.9844 41.0156C24.7675 42.7987 27.0393 44.0131 29.5126 44.505C31.9859 44.997 34.5495 44.7445 36.8792 43.7795C39.209 42.8144 41.2003 41.1802 42.6012 39.0835C44.0022 36.9868 44.75 34.5217 44.75 32C44.746 28.6197 43.4015 25.379 41.0112 22.9888C38.621 20.5985 35.3803 19.254 32 19.25ZM42.1963 27.25H37.1738C36.6272 24.983 35.6304 22.849 34.2425 20.975C35.9654 21.3291 37.5818 22.0808 38.9627 23.1703C40.3437 24.2597 41.4509 25.6568 42.1963 27.25ZM43.25 32C43.2508 33.101 43.0895 34.196 42.7713 35.25H37.4825C37.8392 33.098 37.8392 30.902 37.4825 28.75H42.7713C43.0895 29.804 43.2508 30.899 43.25 32ZM32 43.25C31.9688 43.2502 31.938 43.2437 31.9095 43.231C31.8811 43.2182 31.8557 43.1996 31.835 43.1763C30.225 41.4425 29.0425 39.2162 28.375 36.75H35.625C34.9575 39.2162 33.775 41.4425 32.165 43.1763C32.1443 43.1996 32.1189 43.2182 32.0905 43.231C32.062 43.2437 32.0312 43.2502 32 43.25ZM28.0388 35.25C27.6538 33.1004 27.6538 30.8996 28.0388 28.75H35.9613C36.3462 30.8996 36.3462 33.1004 35.9613 35.25H28.0388ZM20.75 32C20.7492 30.899 20.9105 29.804 21.2288 28.75H26.5175C26.1608 30.902 26.1608 33.098 26.5175 35.25H21.2288C20.9105 34.196 20.7492 33.101 20.75 32ZM32 20.75C32.0312 20.7498 32.062 20.7563 32.0905 20.769C32.1189 20.7818 32.1443 20.8004 32.165 20.8238C33.775 22.5575 34.9575 24.7838 35.625 27.25H28.375C29.0425 24.7838 30.225 22.5575 31.835 20.8238C31.8557 20.8004 31.8811 20.7818 31.9095 20.769C31.938 20.7563 31.9688 20.7498 32 20.75ZM29.7575 20.975C28.3697 22.849 27.3728 24.983 26.8263 27.25H21.8038C22.5491 25.6568 23.6563 24.2597 25.0373 23.1703C26.4182 22.0808 28.0346 21.3291 29.7575 20.975ZM21.8038 36.75H26.8263C27.3728 39.017 28.3697 41.151 29.7575 43.025C28.0346 42.6709 26.4182 41.9192 25.0373 40.8297C23.6563 39.7403 22.5491 38.3432 21.8038 36.75ZM34.2425 43.025C35.6304 41.151 36.6272 39.017 37.1738 36.75H42.1963C41.4509 38.3432 40.3437 39.7403 38.9627 40.8297C37.5818 41.9192 35.9654 42.6709 34.2425 43.025Z" fill="#F7931A"/>
</svg>
